<?xml version="1.0" encoding="utf-8"?>
<!-- Generator: Adobe Illustrator 16.0.0, SVG Export Plug-In . SVG Version: 6.00 Build 0)  -->
<!DOCTYPE svg PUBLIC "-//W3C//DTD SVG 1.1//EN" "http://www.w3.org/Graphics/SVG/1.1/DTD/svg11.dtd">
<svg version="1.1" id="图层_1" xmlns="http://www.w3.org/2000/svg" xmlns:xlink="http://www.w3.org/1999/xlink" x="0px" y="0px"
	 width="171.935px" height="76.73px" viewBox="0 0 171.935 76.73" enable-background="new 0 0 171.935 76.73" xml:space="preserve">
<g>
	<g>
		<g>
			<g>
				<path fill="#FFFFFF" d="M1.879,23.133L0,22.412c1.024-1.082,1.708-2.145,2.164-3.53l1.404,0.569
					C2.923,20.818,2.392,21.957,1.879,23.133z M8.788,12.029c3.93,0,4.955-0.095,5.581-0.189c-0.076,0.721-0.114,1.841-0.114,2.866
					c0,1.12,0.02,2.392,0.114,3.132c-1.31-0.114-2.373-0.152-5.676-0.152c-4.024,0-4.954,0.076-5.903,0.19
					c0.114-0.854,0.19-2.088,0.19-3.228c0-1.024-0.096-2.145-0.19-2.809c0.854,0.095,1.575,0.171,4.29,0.189V9.01
					c0-1.328-0.057-2.334-0.189-2.979C7.555,6.182,8.637,6.315,9.13,6.315c0.323,0,0.38,0.096,0.095,0.285
					C8.846,6.847,8.788,7.018,8.788,7.435v0.968h3.322c1.348,0,2.468-0.057,3.663-0.17v1.727c-1.119-0.133-2.315-0.171-3.645-0.171
					H8.788V12.029z M12.699,13.376H4.461v2.961h8.238V13.376z M5.751,22.792c0.02-1.195-0.075-2.05-0.398-3.188l1.557-0.171
					c0.189,1.119,0.38,2.106,0.684,3.17L5.751,22.792z M10.174,22.526c-0.228-1.177-0.437-2.088-0.892-3.246l1.537-0.38
					c0.38,1.291,0.702,2.184,1.177,3.379L10.174,22.526z M15.166,22.715c-0.437-1.31-1.024-2.448-1.803-3.587l1.442-0.551
					c0.722,1.177,1.442,2.259,2.24,3.379L15.166,22.715z"/>
				<path fill="#FFFFFF" d="M24.716,22.279c-1.708,0.02-2.715,0.076-3.512,0.19c0.133-0.494,0.189-0.854,0.189-1.993v-2.449
					c0-0.74-0.019-1.442-0.113-1.784c0.588,0.171,1.442,0.209,1.974,0.171c0.285-0.019,0.342,0.19,0.114,0.323
					c-0.304,0.189-0.342,0.266-0.342,0.512v3.702l3.815-0.058v-6.131c-3.436,0-5.827,0.076-7.707,0.209v-1.746
					c1.898,0.133,4.29,0.189,7.707,0.189v-3.113c-2.677,0.02-4.347,0.076-5.865,0.209V8.821c1.537,0.114,3.188,0.171,5.865,0.189
					c0-1.139-0.076-2.543-0.189-2.923c0.645,0.095,1.29,0.133,1.897,0.114c0.399-0.02,0.532,0.151,0.152,0.379
					c-0.19,0.096-0.247,0.438-0.247,1.253V9.01c2.733-0.019,4.479-0.075,6.018-0.189v1.689c-1.538-0.133-3.284-0.189-6.018-0.209
					v3.113c3.36,0,5.809-0.076,7.669-0.189v1.746c-1.86-0.133-4.309-0.209-7.669-0.209v6.112l3.815-0.038v-2.581
					c0-0.969-0.019-1.671-0.095-1.993c0.702,0.075,1.271,0.095,1.879,0.095c0.323,0,0.398,0.095,0.171,0.266
					c-0.266,0.189-0.322,0.437-0.322,0.664v3.892c0,0.987,0.038,1.633,0.151,2.259h-1.784v-1.271L24.716,22.279z"/>
				<path fill="#FFFFFF" d="M47.115,20.172c0,1.139,0.019,1.765,0.151,3.018h-1.993c0.095-1.233,0.114-1.879,0.114-3.018V9.239
					c-2.999,0.019-4.954,0.076-6.682,0.189v-1.86c2.012,0.133,4.403,0.19,8.124,0.19s6.131-0.058,8.124-0.19v1.86
					c-1.936-0.133-4.29-0.189-7.839-0.189V20.172z M52.582,17.837c-1.462-1.879-2.715-3.189-4.65-4.575l1.252-1.177
					c2.525,1.975,3.569,2.962,4.955,4.423L52.582,17.837z"/>
				<path fill="#FFFFFF" d="M58.639,9.277V7.891c0.721,0.057,1.993,0.095,3.283,0.113c0-0.986-0.019-1.366-0.075-1.746
					c0.55,0.076,0.986,0.114,1.651,0.114c0.304,0,0.322,0.113,0.076,0.304c-0.152,0.113-0.247,0.284-0.247,0.475v0.854
					c1.271-0.019,2.562-0.057,3.208-0.113v1.386c-0.665-0.058-1.937-0.096-3.208-0.114v1.386h4.271
					c-0.133-2.81-0.151-3.55-0.133-4.518c0.569,0.113,1.271,0.189,1.689,0.209c0.418,0.019,0.475,0.075,0.133,0.437
					c-0.228,0.246-0.304,0.892-0.246,3.872c1.974-0.019,3.872-0.095,5.011-0.171v1.537c-1.139-0.075-2.98-0.151-4.974-0.17
					c0.076,2.259,0.323,3.872,0.798,5.296c0.531-1.253,0.93-2.791,1.082-4.252c0.493,0.208,1.423,0.474,1.708,0.512
					c0.342,0.038,0.342,0.19,0.095,0.456c-0.266,0.304-0.588,0.873-0.816,1.48c-0.417,1.139-0.911,2.24-1.461,3.227
					c1.48,3.057,2.012,2.904,2.277,0.703c0.551,0.588,0.873,0.815,1.348,1.024c-0.854,2.904-1.233,3.095-2.315,2.354
					c-0.702-0.474-1.404-1.348-2.164-2.714c-0.835,1.233-1.955,2.468-3.17,3.379c-0.342-0.361-0.722-0.627-1.462-0.949
					c1.595-0.873,3.095-2.335,4.024-3.683c-0.722-1.746-1.215-4.081-1.366-6.833h-4.727c-2.184,0-4.348,0.075-5.619,0.17v-1.537
					c1.082,0.057,2.79,0.133,4.612,0.171V9.163C60.632,9.181,59.341,9.219,58.639,9.277z M66.288,16.566l0.038,1.177
					c-0.551-0.02-1.215,0-2.771,0.076v1.48c1.215-0.152,2.486-0.38,2.98-0.494c-0.171,0.494-0.285,0.969-0.285,1.386
					c-0.475,0.02-1.328,0.114-2.695,0.323c0,0.854,0.02,1.822,0.076,2.676h-1.538c0.076-0.778,0.114-1.632,0.133-2.486
					c-1.993,0.322-3.359,0.589-4.1,0.797c-0.076-0.531-0.247-1.082-0.493-1.689c1.423-0.019,2.695-0.133,4.593-0.341v-1.595
					c-2.106,0.113-3.074,0.209-3.645,0.342c-0.075-0.513-0.246-0.893-0.588-1.311c0.816-0.303,1.348-0.777,2.239-2.221
					c-0.854,0.02-1.632,0.058-2.106,0.096v-1.424c0.626,0.038,1.689,0.095,2.81,0.113c0.437-0.778,0.664-1.29,0.778-1.651
					c0.569,0.247,1.139,0.437,1.519,0.551c0.246,0.057,0.266,0.171,0.037,0.266c-0.266,0.095-0.474,0.323-0.854,0.854
					c1.575,0,3.341-0.058,4.157-0.133v1.424c-0.969-0.076-3.019-0.134-4.974-0.134l-1.613,2.278l2.239-0.095
					c0-1.025-0.019-1.386-0.075-1.671c0.455,0.095,0.949,0.133,1.442,0.133c0.284,0,0.322,0.076,0.114,0.342
					c-0.114,0.152-0.152,0.418-0.152,1.12C65.149,16.679,65.757,16.641,66.288,16.566z M71.565,9.599
					c-0.323-0.722-0.816-1.386-1.386-2.012l1.215-0.74c0.398,0.588,1.006,1.366,1.519,1.955L71.565,9.599z"/>
				<path fill="#FFFFFF" d="M2.676,41.898c-0.266,1.082-0.417,2.012-0.607,3.17c-0.645-0.455-1.29-0.873-1.879-1.215
					c0.418-0.74,0.607-1.178,1.139-2.658c0.438-1.234,0.722-2.182,0.874-3.208c0.304,0.398,0.74,0.702,1.29,0.93
					C3.246,39.602,2.999,40.512,2.676,41.898z M3.208,36.451c-0.702-0.607-1.898-1.386-2.695-1.728l0.721-1.291
					c0.816,0.418,1.937,1.025,2.715,1.442L3.208,36.451z M2.866,31.799c-0.551-0.683-1.442-1.404-2.278-1.859l0.969-1.12
					c0.607,0.417,1.689,1.215,2.372,1.728L2.866,31.799z M9.339,39.259c0.342,0.209,1.329,0.569,1.5,0.588
					c0.189,0.02,0.171,0.189-0.02,0.285c-0.171,0.076-0.398,0.379-1.082,1.557c0.778-0.113,1.442-0.266,1.937-0.398
					c-0.189,0.531-0.285,0.893-0.323,1.291c-3.188,0.398-5.979,0.891-7.231,1.252c-0.02-0.531-0.095-1.082-0.247-1.537
					c1.367-0.057,3.094-0.229,4.632-0.418C8.884,40.969,9.188,40.057,9.339,39.259z M11.161,32.996v1.31
					c-0.778-0.095-1.804-0.113-3.208-0.113c-1.424,0-2.448,0.019-3.208,0.113v-1.31c0.646,0.076,1.462,0.114,2.544,0.114v-1.633
					c-1.271,0.019-2.184,0.076-2.942,0.133v-1.367c0.778,0.058,1.671,0.114,2.942,0.134c-0.02-1.063-0.057-1.633-0.133-1.975
					c0.55,0.076,1.101,0.095,1.708,0.095c0.285,0,0.304,0.19,0.095,0.323c-0.151,0.095-0.322,0.342-0.322,0.588v0.969
					c1.348-0.02,2.277-0.076,3.056-0.134v1.367c-0.778-0.057-1.708-0.114-3.056-0.133v1.633
					C9.699,33.11,10.516,33.072,11.161,32.996z M11.104,35.331c-0.076,0.417-0.095,1.253-0.095,1.86
					c0,0.759,0.019,1.404,0.095,1.955c-0.798-0.076-1.633-0.114-3.151-0.114c-1.499,0-2.373,0.038-3.17,0.114
					c0.076-0.551,0.095-1.215,0.095-1.955c0-0.627-0.038-1.424-0.095-1.86c0.816,0.095,1.671,0.133,3.17,0.133
					C9.472,35.463,10.288,35.425,11.104,35.331z M5.941,41.727c-0.133-0.645-0.266-1.1-0.589-1.783l1.462-0.342
					c0.151,0.588,0.284,1.082,0.493,1.746L5.941,41.727z M6.131,37.988h3.683v-1.5H6.131V37.988z M17.046,39.525
					c-0.133,0.037-0.494,0.418-0.911,1.195c-0.854,1.576-2.601,3.359-4.897,4.898c-0.304-0.285-0.987-0.723-1.575-0.969
					c3.018-1.443,4.916-3.379,5.94-6.264c0.38,0.304,1.082,0.627,1.519,0.74C17.444,39.221,17.482,39.393,17.046,39.525z
					 M15.679,30.509c-0.721,1.461-1.708,2.979-3.018,4.423c-0.437-0.304-0.816-0.494-1.386-0.665
					c1.822-1.595,3.075-3.683,3.397-5.562c0.437,0.209,1.253,0.456,1.613,0.551c0.304,0.095,0.285,0.304,0,0.455
					C16.097,29.806,15.869,30.11,15.679,30.509z M16.894,34.836c-0.228,0.114-0.569,0.456-0.778,0.778
					c-0.854,1.253-2.372,3.151-3.397,4.157c-0.304-0.283-0.873-0.55-1.424-0.72c1.538-1.102,3.284-3.437,4.176-5.297
					c0.437,0.38,0.949,0.665,1.443,0.722C17.179,34.514,17.179,34.704,16.894,34.836z"/>
				<path fill="#FFFFFF" d="M20.122,33.47c0.911,0.398,1.746,0.873,2.448,1.31l-0.721,1.462c-0.646-0.532-1.709-1.063-2.524-1.367
					L20.122,33.47z M22.666,38.386c-0.209,0.722-0.398,1.614-0.646,3.018c-0.19,1.082-0.36,2.469-0.513,3.607
					c-0.664-0.457-1.31-0.799-1.937-0.988c0.361-0.91,0.722-2.088,1.025-3.283c0.342-1.405,0.493-2.145,0.664-3.189
					C21.66,37.969,22.172,38.273,22.666,38.386z M21.147,28.876c0.854,0.551,1.632,1.101,2.315,1.575l-0.987,1.405
					c-0.569-0.627-1.404-1.291-2.277-1.747L21.147,28.876z M27.107,34.438c0.702-0.019,1.215-0.057,1.671-0.133v1.462
					c-0.456-0.076-0.969-0.114-1.689-0.114c-0.02,1.196-0.038,2.297-0.058,3.17c0.816-0.019,1.386-0.076,1.898-0.151
					c0,0.075,0,1.538,0,1.538c-0.531-0.076-1.12-0.113-1.974-0.133c-0.229,2.467-1.025,3.967-2.866,5.543
					c-0.418-0.475-0.931-0.836-1.5-1.006c2.031-1.348,2.733-2.355,2.961-4.537c-1.006,0.02-1.67,0.057-2.239,0.133v-1.538
					c0.607,0.095,1.271,0.133,2.315,0.151c0.019-0.93,0.057-2.012,0.057-3.188c-1.062,0-1.746,0.038-2.297,0.133v-1.462
					c0.569,0.095,1.234,0.152,2.316,0.152c0-0.987,0-2.013-0.02-3.019c-0.398,0.095-0.835,0.171-1.291,0.266
					c-0.113-0.437-0.303-0.835-0.607-1.271c1.367-0.133,3.266-0.627,4.594-1.442c0.209,0.512,0.494,1.044,0.684,1.31
					s0.114,0.342-0.189,0.304c-0.133-0.02-0.931,0.209-1.784,0.455C27.107,32.199,27.107,33.356,27.107,34.438z M29.537,30.813
					v-1.576c0.74,0.114,1.613,0.152,2.999,0.152s2.259-0.038,2.961-0.152v1.576c-0.588-0.076-1.31-0.114-2.354-0.133v2.315
					c0.968-0.019,1.671-0.057,2.24-0.152v1.462c-0.569-0.076-1.272-0.113-2.24-0.113v2.183c0.968-0.02,1.651-0.058,2.221-0.152v1.5
					c-0.569-0.076-1.253-0.114-2.221-0.133v2.145c1.31-0.02,2.126-0.057,2.886-0.152v1.557c-0.76-0.076-1.576-0.113-2.886-0.133
					v0.777c0,1.082,0.058,2.412,0.171,3.531h-1.633c0.114-1.139,0.171-2.449,0.171-3.531v-0.777c-1.29,0.02-2.106,0.057-2.847,0.133
					v-1.557c0.759,0.096,1.575,0.133,2.847,0.152v-2.145c-1.006,0-1.708,0.038-2.259,0.133v-1.5c0.57,0.095,1.253,0.133,2.259,0.152
					v-2.202c-1.006,0-1.708,0.038-2.277,0.133v-1.462c0.569,0.096,1.271,0.134,2.277,0.152V30.68
					C30.847,30.699,30.126,30.737,29.537,30.813z"/>
				<path fill="#FFFFFF" d="M40.889,41.328c-0.626,0.969-0.892,1.387-1.442,2.412c-0.456-0.361-0.893-0.533-1.538-0.607
					c1.158-1.121,1.898-2.164,2.393-3.627c0.531,0.248,1.119,0.494,1.29,0.531c0.418,0.096,0.418,0.172,0.038,0.381
					C41.478,40.512,41.136,40.949,40.889,41.328z M47.305,34.476v1.519c-0.873-0.114-1.917-0.171-3.436-0.189v1.897
					c1.462-0.019,2.277-0.075,3.188-0.171v1.576c-0.892-0.133-1.727-0.171-3.188-0.171v4.29c0,1.387-0.209,1.633-2.677,2.031
					c-0.019-0.531-0.171-1.158-0.664-1.803c1.728,0.303,1.937,0.227,1.937-1.463v-3.075c-1.671,0.02-2.677,0.076-3.645,0.19v-1.576
					c0.968,0.114,1.974,0.171,3.645,0.171v-1.897c-1.747,0.019-3.037,0.075-3.986,0.189v-1.519c1.139,0.133,2.771,0.189,5.011,0.171
					c0.418-0.816,0.854-1.728,1.177-2.657c0.569,0.38,1.025,0.569,1.48,0.683c0.209,0.058,0.266,0.19-0.037,0.323
					c-0.209,0.095-0.532,0.475-1.481,1.633C45.729,34.609,46.583,34.552,47.305,34.476z M42.18,28.667l1.708-0.342
					c0.152,0.665,0.266,1.177,0.475,1.993c1.177-0.038,2.05-0.095,2.791-0.189v1.613c-0.949-0.133-2.146-0.209-3.93-0.209
					s-3.151,0.076-4.101,0.209v-1.613c0.874,0.113,2.069,0.171,3.626,0.189C42.578,29.75,42.389,29.18,42.18,28.667z M40.908,34.419
					c-0.209-0.873-0.418-1.386-0.798-1.898l1.424-0.551c0.228,0.607,0.475,1.14,0.893,1.898L40.908,34.419z M45.786,42.904
					c-0.475-1.082-0.911-1.746-1.575-2.449l1.12-0.76c0.683,0.816,1.119,1.406,1.765,2.26L45.786,42.904z M52.278,34.571
					c1.348,0,2.012-0.038,2.809-0.228v1.784c-0.664-0.151-1.101-0.209-2.012-0.247v6.702c0,1.139,0.038,2.012,0.152,3.018h-1.842
					c0.114-1.062,0.152-1.879,0.152-3.018V35.88h-1.728c-0.076,4.614-0.702,7.157-2.278,9.53c-0.475-0.381-0.759-0.514-1.728-0.779
					c1.766-1.803,2.393-3.928,2.544-9.604c0.057-2.24-0.038-4.233-0.133-5.221c1.651,0.096,4.119-0.455,5.656-1.081
					c0.209,0.474,0.703,1.252,0.969,1.499c0.38,0.36,0.266,0.456-0.209,0.36c-0.398-0.075-0.722-0.037-2.411,0.171
					c-1.404,0.171-1.594,0.19-2.41,0.229v3.587H52.278z"/>
				<path fill="#FFFFFF" d="M59.815,33.907v9.054c0,0.969,0.019,1.5,0.095,2.201h-1.728c0.133-0.721,0.19-1.215,0.19-2.201v-9.092
					c0-1.062-0.038-1.595-0.114-1.937c0.493,0.133,1.215,0.19,1.595,0.19c0.379,0,0.437,0.095,0.228,0.38
					C59.93,32.692,59.815,33.356,59.815,33.907z M61.41,31.799c-0.418-0.93-1.063-1.841-1.689-2.505l1.348-0.798
					c0.455,0.836,0.986,1.538,1.728,2.335L61.41,31.799z M62.321,33.698c-0.437,0-0.854,0.038-1.405,0.114v-1.5
					c0.854,0.133,2.202,0.247,4.821,0.247c2.373,0,3.873-0.076,4.556-0.228v1.499c-0.493-0.057-0.93-0.113-1.348-0.133v6.625
					c0.684-0.057,1.462-0.17,1.784-0.227l0.02,1.289c-0.228-0.018-0.722-0.018-1.804,0.039c0,1.025,0.038,1.992,0.096,2.732h-1.538
					c0.038-0.551,0.038-1.707,0.038-2.656l-4.879,0.283c-0.341,0.02-1.328,0.135-2.088,0.285l0.02-1.441
					c0.588,0.018,1.158,0.018,1.728,0V33.698z M63.669,35.198h3.872v-1.519h-3.872V35.198z M63.669,37.779h3.872V36.28h-3.872
					V37.779z M63.669,40.568l3.872-0.17V38.88h-3.872V40.568z M73.141,31.439v11.75c0,1.557-0.285,1.992-2.81,2.277
					c-0.075-0.607-0.266-1.119-0.702-1.803c1.708,0.133,2.05-0.172,2.05-0.723V30.623h-3.056c-2.601,0-3.701,0.058-4.783,0.171
					v-1.575c1.101,0.151,2.201,0.209,4.745,0.209c1.613,0,3.474-0.095,4.632-0.171C73.159,29.997,73.141,30.642,73.141,31.439z"/>
				<path fill="#FFFFFF" d="M3.379,58.84c-0.323-0.379-0.816-0.721-1.424-0.91c1.803-1.025,3.359-2.145,4.309-4.119
					c0.607,0.246,0.949,0.361,1.462,0.436c0.398,0.059,0.36,0.266,0.038,0.381c-0.152,0.057-0.304,0.17-0.722,0.627h2.449
					c1.688,0,3.625-0.02,4.441-0.059c-0.949,1.729-2.315,3.02-3.892,3.969c1.937,0.873,4.233,1.348,6.947,1.365
					c-0.36,0.514-0.626,1.234-0.721,1.879c-0.873-0.17-1.709-0.34-2.468-0.549c-0.038,0.342-0.038,0.758-0.038,1.441v2.203
					c0,0.873,0.057,1.404,0.171,2.049h-1.708v-1.1H5.447v1.195H3.683c0.133-0.893,0.208-1.576,0.208-2.449v-1.898
					c0-0.531-0.037-1.025-0.057-1.385c-0.797,0.266-1.575,0.492-2.354,0.701c-0.304-0.512-0.646-1.023-1.044-1.518
					c2.544-0.305,5.182-1.082,7.023-1.898c-0.722-0.475-1.386-0.986-1.993-1.518l0.93-0.875c0.74,0.646,1.538,1.234,2.392,1.729
					c0.949-0.551,1.766-1.254,2.525-2.068H5.96C5.182,57.283,4.29,58.1,3.379,58.84z M7.688,50.412l2.012-0.152
					c0.152,0.666,0.285,1.254,0.399,1.898c3.587,0,5.03-0.037,6.226-0.113v3.398h-1.519v-2.031H2.79v2.031H1.253v-3.398
					c1.29,0.076,2.847,0.113,7.023,0.113C8.143,51.59,7.915,50.926,7.688,50.412z M4.214,61.801c0.854,0.039,2.24,0.059,4.594,0.059
					c2.81,0,4.024-0.02,4.802-0.059c-1.917-0.512-3.549-1.156-4.935-1.896C7.023,60.758,5.6,61.346,4.214,61.801z M12.225,65.238
					v-2.164H5.447v2.164H12.225z"/>
				<path fill="#FFFFFF" d="M24.052,60.512c-0.133,2.809-1.158,5.504-2.677,7.289c-0.513-0.398-1.234-0.723-1.917-0.932
					c2.106-1.955,2.979-4.023,2.979-8.066v-3.91c0-0.684-0.019-1.062-0.113-1.48c1.177,0.057,2.106,0.076,6.378,0.076
					c4.271,0,5.276-0.02,6.358-0.076c-0.095,0.342-0.151,0.721-0.151,1.48v4.613c0,0.797,0.019,1.574,0.133,2.467h-1.804v-1.461
					H24.052z M33.238,59.088v-4.176H24.07v4.176H33.238z M27.942,53.051c-0.246-0.873-0.55-1.537-0.968-2.277l1.804-0.588
					c0.341,0.74,0.645,1.424,1.062,2.238L27.942,53.051z"/>
				<path fill="#FFFFFF" d="M41.439,55.576c-1.31,0-2.297,0.037-3.037,0.133v-1.424c0.74,0.076,1.746,0.113,3.075,0.113
					c1.31,0,2.183-0.037,2.866-0.113v1.424C43.622,55.613,42.768,55.576,41.439,55.576z M42.407,56.924
					c0.569,0.209,1.102,0.303,1.575,0.303c0.152,0,0.209,0.057,0.02,0.248c-0.095,0.094-0.797,2.922-1.537,6.148
					c0.664-0.189,1.31-0.416,1.936-0.682c-0.171,0.568-0.209,1.156-0.151,1.613c-1.671,0.322-4.044,1.119-5.448,1.783
					c-0.057-0.531-0.209-1.385-0.36-1.973c1.006-0.115,1.936-0.268,2.828-0.457C41.762,61.992,42.331,58.385,42.407,56.924z
					 M39.522,62.182c0.057-1.102-0.229-3.777-0.589-4.48l1.367-0.303c0.228,1.291,0.55,3.416,0.683,4.574L39.522,62.182z
					 M40.87,54.057c-0.038-0.797-0.342-1.916-0.702-2.656l1.746-0.381c0.076,0.684,0.417,1.918,0.702,2.678L40.87,54.057z
					 M44.932,58.232v-1.498c1.178,0.113,2.753,0.15,5.012,0.15c2.277,0,3.872-0.037,5.068-0.15v1.498
					c-1.14-0.113-2.62-0.17-4.708-0.17c-0.209,0.627-0.38,1.215-0.513,1.916c1.766,0,3.284-0.057,4.841-0.17
					c-0.057,0.455-0.095,1.271-0.095,1.652v4.498c0,1.025-0.229,1.291-2.354,1.746c-0.038-0.551-0.209-1.139-0.551-1.67
					c1.328,0.037,1.519-0.076,1.519-0.59v-4.441h-1.633v2.734c0,0.645,0.02,1.385,0.076,1.975h-1.348
					c0.076-0.646,0.095-1.33,0.095-1.975v-2.734h-1.366v2.811c0,0.645,0.019,1.424,0.075,1.973h-1.366
					c0.057-0.531,0.095-1.328,0.095-1.973v-2.811h-1.348v6.34H44.97c0.095-0.607,0.133-1.195,0.133-1.879v-4.004
					c0-0.59-0.057-1.197-0.133-1.633c1.044,0.094,2.24,0.133,3.569,0.15c0.151-0.74,0.246-1.328,0.341-1.916
					C47.172,58.082,45.9,58.139,44.932,58.232z M48.994,52.121c0-0.76-0.057-1.52-0.114-1.861c0.494,0.096,1.082,0.135,1.614,0.115
					c0.266-0.02,0.304,0.057,0.095,0.285c-0.133,0.15-0.209,0.568-0.209,1.082v2.77h2.335v-2.125c0-0.551-0.038-0.949-0.095-1.215
					c0.455,0.057,1.101,0.096,1.423,0.096c0.229,0,0.285,0.094,0.076,0.379c-0.113,0.152-0.113,0.74-0.113,4.023
					c-1.025-0.057-2.316-0.094-4.366-0.094c-1.975,0-3.208,0.037-4.081,0.094c0.076-0.359,0.113-1.062,0.113-1.594v-1.67
					c0-0.514-0.057-1.006-0.113-1.178c0.342,0.057,1.139,0.076,1.442,0.039c0.285-0.039,0.304,0.094,0.095,0.322
					c-0.095,0.133-0.171,0.797-0.171,2.922h2.069V52.121z"/>
			</g>
		</g>
	</g>
</g>
<g>
	<line fill="none" stroke="#FFFFFF" stroke-width="3" stroke-miterlimit="10" x1="59.353" y1="59.873" x2="90.353" y2="59.873"/>
	<polyline fill="none" stroke="#FFFFFF" stroke-width="3" stroke-miterlimit="10" points="80.544,70.401 90.61,60.334 
		80.618,50.342 	"/>
</g>
<g>
	<path fill="none" stroke="#FFFFFF" stroke-miterlimit="10" d="M170.853,59.669c0,8.949-7.255,16.204-16.204,16.204h-39.592
		c-8.949,0-16.204-7.255-16.204-16.204V17.077c0-8.949,7.255-16.204,16.204-16.204h39.592c8.949,0,16.204,7.255,16.204,16.204
		V59.669z"/>
	<g>
		<path fill-rule="evenodd" clip-rule="evenodd" fill="#FFFFFF" d="M160.375,40.953c0.011-0.003,0.021-0.005,0.032-0.009
			c0.059,0.09,0.117,0.177,0.173,0.267c0.4,0.671,0.747,1.37,1.079,2.076c0.492,1.043,1.836,1.779,2.979,1.596
			c0.552-0.088,0.919-0.397,1.074-0.942c0.176-0.617,0.188-1.237,0.014-1.854c-0.146-0.516-0.441-0.893-0.984-1.033
			c-0.428-0.112-0.803-0.318-1.14-0.604c-0.085-0.071-0.178-0.138-0.272-0.201c-0.348-0.245-0.729-0.392-1.159-0.364
			c-0.234,0.017-0.286,0.09-0.217,0.313c0.11,0.354,0.052,0.555-0.461,0.602c-0.412,0.039-0.729-0.197-0.931-0.65
			c-0.032-0.071-0.046-0.169-0.127-0.194c-0.153-0.049-0.149-0.163-0.153-0.286c-0.021-0.703,0.09-1.396,0.155-2.092
			c0.021-0.213,0.107-0.36,0.33-0.415c0.144-0.035,0.279-0.096,0.415-0.15c0.541-0.216,1.114-0.371,1.499-0.87
			c0.242-0.31,0.498-0.61,0.698-0.95c0.127-0.212,0.238-0.432,0.281-0.681c0.062-0.348-0.141-0.645-0.488-0.701
			c-0.243-0.036-0.476,0.033-0.705,0.104c-0.274,0.084-0.546,0.181-0.82,0.257c-0.193,0.053-0.284-0.035-0.23-0.218
			c0.092-0.315,0.213-0.602,0.549-0.769c0.449-0.22,0.884-0.485,1.228-0.853c0.489-0.521,0.656-1.195,0.758-1.879
			c0.039-0.246-0.077-0.367-0.316-0.468c-0.318-0.137-0.632-0.287-0.95-0.422c-0.233-0.1-0.466-0.234-0.726-0.186
			c-0.282,0.055-0.575,0.152-0.772,0.356c-0.264,0.277-0.592,0.273-0.915,0.328c-0.148,0.023-0.273-0.039-0.32-0.183
			c-0.091-0.272-0.032-0.529,0.161-0.745c0.155-0.171,0.348-0.1,0.521-0.037c0.289,0.105,0.552,0.061,0.804-0.096
			c0.333-0.203,0.528-0.509,0.598-0.885c0.106-0.577,0.075-1.154-0.066-1.727c-0.092-0.368-0.214-0.447-0.589-0.392
			c-0.375,0.055-0.752,0.1-1.125,0.174c-0.396,0.077-0.729-0.191-0.871-0.439c-0.064-0.111-0.098-0.241-0.022-0.362
			c0.071-0.111,0.195-0.096,0.31-0.089c0.126,0.007,0.252,0.033,0.378,0.026c0.276-0.014,0.528-0.09,0.684-0.347
			c0.274-0.453,0.497-0.927,0.583-1.457c0.064-0.379-0.044-0.665-0.386-0.883c-0.418-0.261-0.877-0.423-1.31-0.644
			c-0.144-0.07-0.275-0.074-0.422-0.026c-0.46,0.15-0.886,0.376-1.313,0.594c-0.653,0.331-1.285,0.702-2.005,0.888
			c-0.517,0.134-0.986,0.396-1.475,0.608c-0.065,0.03-0.125,0.077-0.177,0.13c-0.157,0.154-0.347,0.31-0.266,0.561
			c0.078,0.238,0.314,0.267,0.523,0.308c0.407,0.078,0.811-0.008,1.215-0.025c0.327-0.016,0.652-0.057,0.976,0.018
			c0.171,0.039,0.25,0.14,0.238,0.314c-0.029,0.366-0.144,0.703-0.322,1.021c-0.25,0.453-0.621,0.736-1.125,0.854
			c-0.22,0.053-0.432,0.133-0.633,0.242c-0.283,0.153-0.357,0.298-0.312,0.62c0.048,0.337,0.162,0.659,0.254,0.986
			c0.113,0.404,0.323,0.58,0.89,0.512c0.312-0.035,0.616-0.112,0.918-0.194c0.147-0.039,0.234,0.004,0.26,0.157
			c0.042,0.247,0.091,0.498,0.053,0.751c-0.043,0.28-0.075,0.312-0.354,0.327c-0.328,0.02-0.653,0.022-0.979,0.051
			c-0.371,0.031-0.745,0.044-1.104,0.163c-0.141,0.047-0.225,0.126-0.258,0.272c-0.056,0.268-0.123,0.533-0.188,0.799
			c-0.248,1.039,0.171,1.707,1.004,2.435c0.191,0.167,0.325,0.14,0.507-0.04c0.156-0.157,0.306-0.318,0.449-0.484
			c0.115-0.132,0.246-0.245,0.387-0.345c0.123-0.087,0.267-0.11,0.4-0.051s0.108,0.201,0.114,0.318
			c0.012,0.255-0.02,0.508-0.052,0.757c-0.021,0.177-0.091,0.327-0.237,0.446c-0.953,0.774-1.819,1.645-2.753,2.442
			c-0.32,0.275-0.358,0.572-0.172,0.953c0.199,0.406,0.45,0.773,0.763,1.097c0.611,0.632,1.312,0.649,1.958,0.053
			c0.039-0.036,0.074-0.075,0.116-0.11c0.168-0.148,0.326-0.312,0.53-0.421c0.104-0.06,0.217-0.155,0.331-0.093
			c0.128,0.066,0.069,0.217,0.062,0.329c-0.059,0.811-0.027,1.626-0.054,2.438c-0.037,1.072-0.006,2.148-0.016,3.222
			c-0.008,0.871,0.092,1.729,0.272,2.58c0.294,1.376,0.545,2.758,0.574,4.169c0.011,0.44,0.05,0.881,0.135,1.313
			c0.071,0.356,0.124,0.397,0.481,0.382c0.494-0.017,0.979-0.116,1.46-0.227c0.556-0.126,0.583-0.154,0.57-0.721
			c-0.017-0.898-0.119-1.794-0.123-2.694c0-0.484-0.002-0.973-0.017-1.457c-0.026-1.028-0.074-2.053-0.091-3.078
			c-0.016-0.981-0.016-1.96-0.127-2.937C160.439,41.775,160.412,41.364,160.375,40.953z"/>
		<path fill-rule="evenodd" clip-rule="evenodd" fill="#FFFFFF" d="M149.513,38.171c0.057,0.054,0.032,0.117,0.031,0.173
			c-0.007,0.796-0.137,1.577-0.295,2.355c-0.043,0.199-0.18,0.267-0.356,0.292c-0.146,0.021-0.293,0.033-0.435,0.066
			c-0.13,0.028-0.186,0.099-0.084,0.229c0.698,0.895,1.028,1.946,1.272,3.034c0.091,0.392,0.24,0.547,0.645,0.615
			c0.38,0.066,0.535-0.003,0.728-0.337c0.125-0.223,0.22-0.455,0.264-0.708c0.087-0.475,0.107-0.953,0.173-1.43
			c0.084-0.615,0.212-1.224,0.245-1.843c0.053-1.013,0.204-2.015,0.321-3.021c0.073-0.642,0.219-1.278,0.198-1.926
			c-0.013-0.479,0.091-0.858,0.476-1.179c0.301-0.255,0.478-0.607,0.462-1.023c-0.011-0.372,0.046-0.731,0.111-1.094
			c0.062-0.334,0.139-0.665,0.194-1c0.071-0.434-0.071-0.567-0.507-0.504c-0.118,0.018-0.237,0.037-0.356,0.037
			c-0.258,0.005-0.331-0.054-0.382-0.311c-0.068-0.341-0.007-0.677,0.07-1.008c0.062-0.269,0.126-0.317,0.402-0.311
			c0.218,0.005,0.434,0,0.605-0.15c0.17-0.148,0.328-0.314,0.481-0.479c0.093-0.1,0.156-0.224,0.166-0.358
			c0.026-0.348,0.124-0.683,0.183-1.023c0.03-0.166,0.036-0.332,0.026-0.499c-0.019-0.327-0.144-0.475-0.456-0.569
			c-0.146-0.042-0.303-0.064-0.428-0.16c-0.15-0.115-0.324-0.145-0.506-0.174c-0.433-0.068-0.865-0.02-1.295,0.013
			c-0.377,0.025-0.733,0.111-1.012,0.408c-0.151,0.157-0.346,0.273-0.515,0.413c-0.41,0.336-0.886,0.479-1.41,0.479
			c-0.2-0.002-0.399,0.002-0.598,0.041c-0.234,0.053-0.318,0.151-0.307,0.391c0.012,0.319,0.092,0.633,0.133,0.949
			c0.022,0.181,0.113,0.247,0.278,0.276c0.368,0.068,0.736,0.109,1.111,0.119c0.286,0.004,0.4,0.103,0.418,0.374
			c0.034,0.562-0.303,1.119-0.803,1.247c-0.194,0.05-0.389,0.1-0.577,0.17c-0.248,0.089-0.314,0.194-0.277,0.456
			c0.035,0.25,0.081,0.5,0.146,0.745c0.086,0.33,0.252,0.616,0.561,0.796c0.173,0.102,0.337,0.217,0.502,0.328
			c0.468,0.316,0.514,0.552,0.19,0.964c-0.015,0.017-0.021,0.035-0.032,0.051c-0.344,0.486-0.685,0.992-1.169,1.335
			c-0.48,0.337-0.597,0.766-0.508,1.285c0.103,0.596,0.239,1.188,0.41,1.771c0.052,0.175,0.156,0.279,0.334,0.297
			c0.391,0.039,0.722-0.08,0.978-0.388C149.383,38.316,149.407,38.209,149.513,38.171z"/>
		<path fill-rule="evenodd" clip-rule="evenodd" fill="#FFFFFF" d="M141.019,48.062c0,0.277-0.008,0.646,0.002,1.011
			c0.013,0.431,0.251,0.623,0.68,0.571c0.074-0.01,0.146-0.021,0.219-0.023c0.611-0.008,1.104-0.25,1.506-0.706
			c0.356-0.408,0.69-0.831,0.969-1.297c0.176-0.29,0.37-0.589,0.41-0.927c0.066-0.538,0.298-0.995,0.602-1.422
			c0.669-0.938,1.24-1.926,1.628-3.017c0.295-0.83,0.605-1.654,0.77-2.521c0.046-0.248,0.076-0.502,0.028-0.756
			c-0.046-0.24-0.188-0.302-0.386-0.16c-0.18,0.131-0.318,0.304-0.437,0.491c-0.354,0.558-0.697,1.123-1.053,1.678
			c-0.672,1.04-1.413,2.023-2.402,2.79c-0.376,0.293-0.621,0.236-0.766-0.213c-0.147-0.455-0.322-0.9-0.334-1.395
			c-0.036-1.365-0.107-2.733,0.342-4.057c0.023-0.068,0.033-0.142,0.044-0.215c0.094-0.739-0.002-1.463-0.188-2.178
			c-0.043-0.161-0.113-0.307-0.257-0.418c-0.367-0.279-0.683-0.615-0.983-0.965c-0.428-0.498-0.748-1.07-1.124-1.605
			c-0.118-0.168-0.239-0.34-0.373-0.495c-0.192-0.224-0.331-0.2-0.466,0.066c-0.076,0.151-0.116,0.313-0.15,0.476
			c-0.195,0.925-0.272,1.859-0.28,2.8c-0.003,0.276,0.082,0.511,0.266,0.71c0.331,0.36,0.583,0.763,0.684,1.249
			c0.054,0.255,0.108,0.51,0.163,0.763c0.254,1.194,0.504,2.387,0.763,3.579c0.172,0.8,0.269,1.601,0.25,2.419
			C141.112,45.523,140.998,46.743,141.019,48.062z"/>
		<path fill-rule="evenodd" clip-rule="evenodd" fill="#FFFFFF" d="M107.477,47.694c0.012,0.228,0.034,0.432,0.101,0.63
			c0.189,0.56,0.585,0.884,1.148,1.037c0.547,0.148,0.929-0.089,1.264-0.478c0.034-0.04,0.068-0.081,0.104-0.123
			c0.547-0.66,0.963-1.405,1.369-2.157c0.815-1.5,1.397-3.112,2.207-4.617c0.234-0.437,0.34-0.9,0.303-1.405
			c-0.047-0.625,0.074-1.235,0.219-1.84c0.025-0.102,0.138-0.252,0.018-0.303c-0.108-0.046-0.159,0.131-0.213,0.222
			c-0.771,1.333-1.533,2.672-2.308,4.002c-0.267,0.461-0.542,0.925-0.955,1.276c-0.272,0.234-0.484,0.192-0.681-0.105
			c-0.215-0.325-0.336-0.694-0.498-1.046c-0.139-0.293-0.188-0.608-0.229-0.927c-0.1-0.783-0.067-1.567-0.034-2.354
			c0.024-0.586,0.081-1.171,0.142-1.753c0.033-0.317-0.036-0.594-0.243-0.836c-0.229-0.269-0.523-0.456-0.815-0.643
			c-0.691-0.444-0.989-1.11-1.087-1.891c-0.06-0.473,0.14-0.857,0.464-1.188c0.175-0.175,0.347-0.349,0.49-0.552
			c0.069-0.1,0.133-0.199,0.169-0.316c0.048-0.15,0.012-0.275-0.104-0.379c-0.114-0.105-0.236-0.078-0.353-0.015
			c-0.251,0.138-0.497,0.292-0.775,0.363c-0.486,0.126-0.951,0.037-1.402-0.162c-0.193-0.085-0.268-0.044-0.332,0.162
			c-0.062,0.206-0.034,0.413,0.028,0.61c0.235,0.723,0.312,1.471,0.363,2.224c0.04,0.564,0.153,1.104,0.45,1.602
			c0.216,0.358,0.432,0.72,0.578,1.116c0.259,0.697,0.348,1.428,0.396,2.157c0.073,1.13,0.216,2.251,0.347,3.377
			c0.082,0.694,0.042,1.397,0.012,2.097C107.588,46.226,107.54,46.971,107.477,47.694z"/>
		<path fill-rule="evenodd" clip-rule="evenodd" fill="#FFFFFF" d="M130.973,46.174c0.12-0.021,0.255-0.028,0.384-0.062
			c0.404-0.1,0.656-0.428,0.612-0.844c-0.101-0.957-0.335-1.875-0.784-2.732c-0.221-0.422-0.528-0.743-0.976-0.934
			c-0.274-0.115-0.579-0.222-0.781-0.438c-0.267-0.29-0.586-0.32-0.929-0.287c-0.413,0.04-0.761,0.203-0.943,0.609
			c-0.065,0.143-0.057,0.263,0.058,0.399c0.297,0.352,0.575,0.717,0.789,1.131c0.158,0.304,0.146,0.598-0.007,0.898
			c-0.609,1.206-1.479,2.211-2.458,3.127c-0.325,0.306-0.689,0.545-1.106,0.702c-0.181,0.066-0.345,0.174-0.513,0.272
			c-0.078,0.044-0.174,0.104-0.138,0.216c0.032,0.1,0.133,0.093,0.221,0.105c0.232,0.027,0.465,0.012,0.697-0.002
			c0.979-0.055,1.908-0.276,2.771-0.76c0.697-0.391,1.38-0.814,2.102-1.161C130.28,46.266,130.591,46.089,130.973,46.174z"/>
		<path fill-rule="evenodd" clip-rule="evenodd" fill="#FFFFFF" d="M114.328,29.543c-0.01-0.321-0.209-0.795-0.465-1.255
			c-0.459-0.828-1.226-1.301-2.01-1.749c-0.573-0.326-1.22-0.395-1.861-0.374c-0.634,0.021-1.095,0.383-1.43,0.906
			c-0.149,0.234-0.1,0.311,0.173,0.33c0.625,0.046,1.055,0.439,1.168,1.072c0.065,0.387,0.037,0.456-0.299,0.647
			c-0.104,0.059-0.218,0.101-0.322,0.159c-0.291,0.157-0.614,0.265-0.827,0.547c-0.075,0.104-0.088,0.186,0.003,0.284
			c0.265,0.29,0.554,0.521,0.986,0.455c0.13-0.02,0.265-0.018,0.397-0.029c0.693-0.058,1.381-0.094,2.045,0.199
			c0.278,0.123,0.576,0.205,0.884,0.25C113.646,31.117,114.328,30.582,114.328,29.543z"/>
		<path fill-rule="evenodd" clip-rule="evenodd" fill="#FFFFFF" d="M125.787,40.966c0.511-0.006,0.921-0.119,1.259-0.512
			c0.459-0.533,0.953-1.038,1.484-1.508c0.234-0.204,0.479-0.365,0.795-0.428c0.427-0.084,0.842-0.216,1.211-0.453
			c0.281-0.182,0.502-0.424,0.404-0.87c-0.178-0.814-0.536-1.544-1.035-2.205c-0.314-0.418-0.661-0.81-1.148-1.031
			c-0.492-0.218-0.992-0.3-1.494-0.001c-0.129,0.078-0.17,0.155-0.121,0.308c0.156,0.469,0.273,0.948,0.355,1.437
			c0.047,0.267,0.037,0.523-0.053,0.786c-0.305,0.885-0.701,1.729-1.162,2.54c-0.318,0.559-0.612,1.14-1.15,1.542
			c-0.13,0.094-0.091,0.23,0.081,0.299C125.407,40.948,125.615,40.962,125.787,40.966z"/>
		<path fill-rule="evenodd" clip-rule="evenodd" fill="#FFFFFF" d="M144.36,26.744c-0.228-0.016-0.447,0.01-0.66,0.068
			c-0.509,0.136-1.009,0.297-1.521,0.424c-0.196,0.05-0.235,0.144-0.188,0.312c0.097,0.363,0.34,0.598,0.674,0.745
			c0.19,0.082,0.375,0.176,0.547,0.29c0.319,0.21,0.349,0.462,0.072,0.722c-0.492,0.46-1.057,0.808-1.712,0.997
			c-0.075,0.021-0.174,0.022-0.187,0.121c-0.016,0.109,0.088,0.137,0.162,0.178c0.016,0.011,0.034,0.018,0.053,0.025
			c0.85,0.304,1.722,0.49,2.629,0.398c0.867-0.092,1.729-0.055,2.587,0.091c0.287,0.049,0.501-0.042,0.684-0.232
			c0.377-0.389,0.466-0.913,0.212-1.406c-0.531-1.026-1.346-1.796-2.304-2.419C145.09,26.853,144.747,26.709,144.36,26.744z"/>
		<path fill-rule="evenodd" clip-rule="evenodd" fill="#FFFFFF" d="M129.411,24.818c-0.237-0.018-0.403-0.006-0.566,0.027
			c-0.804,0.155-1.479,0.585-2.15,1.023c-0.07,0.048-0.096,0.108-0.056,0.189c0.198,0.399,0.377,0.812,0.763,1.081
			c0.178,0.122,0.335,0.272,0.359,0.503c0.024,0.236,0.005,0.469-0.117,0.679c-0.162,0.276-0.33,0.547-0.492,0.823
			c-0.166,0.282-0.354,0.552-0.447,0.868c-0.064,0.215,0.021,0.354,0.245,0.379c0.165,0.02,0.331,0.006,0.495-0.021
			c0.934-0.155,1.527-0.716,1.922-1.549c0.324-0.688,0.573-1.406,0.854-2.11c0.155-0.389,0.302-0.786,0.338-1.208
			c0.019-0.235-0.058-0.424-0.228-0.463C130.001,24.969,129.688,24.814,129.411,24.818z"/>
		<path fill-rule="evenodd" clip-rule="evenodd" fill="#FFFFFF" d="M114.455,55.182V55.18c0.119,0,0.239,0.002,0.358,0
			c0.054-0.002,0.108,0,0.143-0.056c0.08-0.127,0.002-0.422-0.137-0.481c-0.082-0.033-0.084-0.095-0.084-0.161
			c-0.002-0.38-0.002-0.761,0-1.14c0-0.059-0.01-0.143,0.062-0.152c0.254-0.036,0.161-0.23,0.176-0.375
			c0.014-0.125-0.049-0.178-0.175-0.176c-0.214,0.005-0.427,0.002-0.64,0.002c-0.108,0-0.238-0.017-0.227,0.146
			c0.011,0.139-0.101,0.339,0.152,0.385c0.082,0.014,0.104,0.062,0.112,0.139c0.036,0.295,0.005,0.332-0.299,0.332
			c-0.061,0-0.12,0.003-0.181,0c-0.093-0.007-0.229,0.029-0.217-0.126c0.009-0.126-0.099-0.299,0.139-0.355
			c0.209-0.051,0.105-0.241,0.119-0.37c0.013-0.126-0.077-0.154-0.183-0.152c-0.228,0.003-0.454,0-0.681,0.002
			c-0.059,0.001-0.122-0.007-0.161,0.056c-0.081,0.126-0.001,0.42,0.138,0.48c0.08,0.034,0.083,0.093,0.085,0.161
			c0,0.379,0,0.761-0.002,1.14c0,0.059,0.01,0.142-0.062,0.153c-0.255,0.036-0.161,0.229-0.177,0.374
			c-0.012,0.126,0.048,0.179,0.177,0.177c0.232-0.006,0.465-0.002,0.699-0.002c0.054,0,0.107,0.002,0.145-0.049
			c0.096-0.134,0.009-0.426-0.15-0.486c-0.061-0.023-0.081-0.06-0.091-0.118c-0.049-0.294,0-0.349,0.301-0.351
			c0.059,0,0.119-0.002,0.178,0.002c0.096,0.005,0.229-0.028,0.217,0.127c-0.006,0.126,0.101,0.314-0.142,0.347
			c-0.08,0.011-0.107,0.065-0.12,0.14c-0.055,0.322,0,0.389,0.327,0.391C114.322,55.182,114.388,55.182,114.455,55.182z"/>
		<path fill-rule="evenodd" clip-rule="evenodd" fill="#FFFFFF" d="M147.38,52.641c-0.166,0-0.334-0.004-0.499,0
			c-0.087,0.003-0.221-0.028-0.214,0.107c0.011,0.146-0.122,0.351,0.124,0.422c0.094,0.029,0.107,0.09,0.107,0.166
			c0,0.381,0,0.759,0,1.141c0,0.06,0.009,0.142-0.062,0.154c-0.269,0.041-0.16,0.244-0.176,0.392
			c-0.014,0.106,0.043,0.159,0.153,0.157c0.246-0.002,0.492,0,0.74,0c0.046-0.002,0.092-0.006,0.125-0.049
			c0.096-0.134,0.009-0.427-0.15-0.486c-0.061-0.023-0.092-0.057-0.088-0.116c0.003-0.082-0.04-0.199,0.071-0.224
			c0.127-0.027,0.289-0.074,0.377,0.044c0.06,0.08,0.271,0.184,0.032,0.341c-0.115,0.078-0.062,0.267-0.037,0.399
			c0.024,0.13,0.147,0.087,0.233,0.091c0.2,0.005,0.4,0.004,0.601,0c0.076-0.002,0.182,0.018,0.188-0.095
			c0.009-0.141,0.083-0.354-0.056-0.402c-0.207-0.073-0.249-0.241-0.352-0.38c-0.093-0.123-0.104-0.226,0.009-0.365
			c0.199-0.246,0.227-0.54,0.086-0.829c-0.143-0.294-0.383-0.456-0.713-0.467C147.714,52.637,147.547,52.641,147.38,52.641z"/>
		<path fill-rule="evenodd" clip-rule="evenodd" fill="#FFFFFF" d="M133.537,55.182c0.086,0,0.174,0.005,0.261-0.002
			c0.101-0.012,0.264,0.049,0.257-0.128c-0.005-0.146,0.128-0.369-0.162-0.411c-0.101-0.014-0.113-0.104-0.136-0.179
			c-0.126-0.421-0.243-0.846-0.378-1.263c-0.221-0.682-0.026-0.54-0.757-0.562c-0.167-0.005-0.231,0.062-0.276,0.215
			c-0.148,0.525-0.31,1.048-0.468,1.57c-0.022,0.075-0.027,0.191-0.109,0.201c-0.26,0.031-0.192,0.217-0.202,0.374
			c-0.008,0.142,0.06,0.188,0.191,0.185c0.207-0.006,0.414,0.002,0.622-0.002c0.094-0.002,0.229,0.027,0.226-0.122
			c-0.003-0.141,0.103-0.329-0.122-0.409c-0.047-0.018-0.091-0.032-0.08-0.092c0.01-0.06,0.028-0.128,0.103-0.13
			c0.205-0.003,0.413-0.003,0.618,0.002c0.062,0.004,0.082,0.062,0.095,0.117c0.012,0.044,0.004,0.083-0.047,0.094
			c-0.274,0.062-0.149,0.279-0.143,0.424c0.009,0.183,0.183,0.099,0.29,0.114C133.389,55.188,133.463,55.182,133.537,55.182z"/>
		<path fill-rule="evenodd" clip-rule="evenodd" fill="#FFFFFF" d="M118.803,55.18v0.002c0.113,0,0.226,0.002,0.34-0.002
			c0.654-0.014,0.545,0.117,0.555-0.577c0.002-0.033-0.002-0.066-0.005-0.1c-0.005-0.043-0.023-0.084-0.067-0.088
			c-0.12-0.009-0.24-0.012-0.359-0.007c-0.099,0.005-0.089,0.102-0.111,0.167c-0.015,0.041-0.05,0.056-0.092,0.065
			c-0.267,0.074-0.364-0.01-0.368-0.281c-0.002-0.18,0.101-0.18,0.232-0.186c0.1-0.006,0.237,0.057,0.278-0.112
			c0.075-0.302-0.003-0.409-0.312-0.419c-0.021,0-0.04-0.002-0.061-0.002c-0.09,0.002-0.144-0.044-0.131-0.133
			c0.013-0.11-0.066-0.252,0.076-0.322c0.142-0.073,0.328,0.004,0.397,0.148c0.021,0.049,0.052,0.07,0.103,0.082
			c0.323,0.073,0.421-0.003,0.421-0.331c0-0.086-0.005-0.174,0-0.259c0.009-0.141-0.054-0.189-0.189-0.188
			c-0.468,0.003-0.932,0.002-1.399,0.002c-0.088,0-0.196-0.004-0.185,0.12c0.014,0.138-0.104,0.327,0.1,0.4
			c0.117,0.042,0.136,0.103,0.136,0.204c-0.001,0.361-0.002,0.722,0.001,1.08c0.001,0.111-0.025,0.171-0.147,0.217
			c-0.184,0.072-0.078,0.255-0.09,0.388c-0.014,0.122,0.087,0.13,0.178,0.13C118.337,55.18,118.569,55.18,118.803,55.18z"/>
		<path fill-rule="evenodd" clip-rule="evenodd" fill="#FFFFFF" d="M142.827,52.641c-0.234,0-0.466-0.002-0.699,0
			c-0.064,0.001-0.137-0.013-0.177,0.061c-0.077,0.137,0.001,0.409,0.146,0.478c0.079,0.037,0.078,0.101,0.078,0.167
			c0.001,0.371,0,0.746,0.001,1.12c0,0.091-0.018,0.153-0.127,0.188c-0.209,0.07-0.098,0.257-0.11,0.396s0.104,0.13,0.197,0.13
			c0.34,0.002,0.679,0.002,1.021,0.002c0.611,0,0.631-0.025,0.555-0.638c-0.002-0.021-0.003-0.041-0.008-0.059
			c-0.008-0.035-0.027-0.068-0.063-0.07c-0.118-0.007-0.238-0.012-0.356-0.007c-0.101,0.005-0.092,0.099-0.113,0.165
			c-0.016,0.041-0.049,0.058-0.091,0.067c-0.268,0.075-0.366-0.009-0.37-0.28c-0.002-0.179,0.098-0.181,0.23-0.187
			c0.102-0.006,0.237,0.057,0.279-0.11c0.078-0.298-0.004-0.411-0.309-0.421c-0.021,0-0.04-0.002-0.062-0.002
			c-0.088,0.002-0.143-0.04-0.133-0.133c0.015-0.11-0.065-0.25,0.075-0.322c0.139-0.073,0.33,0.004,0.398,0.146
			c0.022,0.05,0.052,0.072,0.103,0.083c0.32,0.074,0.42-0.002,0.422-0.328c0-0.094-0.004-0.188-0.002-0.28
			c0.005-0.119-0.048-0.17-0.166-0.166C143.308,52.642,143.066,52.641,142.827,52.641z"/>
		<path fill-rule="evenodd" clip-rule="evenodd" fill="#FFFFFF" d="M127.367,52.641c-0.167,0-0.334-0.004-0.5,0
			c-0.088,0.003-0.222-0.028-0.213,0.109c0.01,0.146-0.122,0.349,0.124,0.422c0.081,0.022,0.106,0.07,0.106,0.145
			c0,0.393,0.001,0.785,0,1.177c0,0.055,0.001,0.128-0.062,0.138c-0.236,0.029-0.166,0.205-0.18,0.349
			c-0.011,0.145,0.046,0.207,0.194,0.202c0.207-0.008,0.414,0,0.621-0.002c0.105,0,0.239,0.02,0.229-0.144
			c-0.011-0.139,0.103-0.341-0.148-0.388c-0.14-0.027-0.11-0.128-0.112-0.218c-0.005-0.102,0.054-0.14,0.148-0.14
			c0.142-0.004,0.28,0.002,0.419-0.027c0.427-0.096,0.705-0.465,0.664-0.893c-0.038-0.414-0.379-0.724-0.811-0.73
			C127.687,52.637,127.526,52.641,127.367,52.641z"/>
		<path fill-rule="evenodd" clip-rule="evenodd" fill="#FFFFFF" d="M137.75,52.641c-0.188,0-0.375-0.002-0.561,0
			c-0.058,0.001-0.121-0.007-0.16,0.058c-0.079,0.128,0,0.418,0.14,0.479c0.08,0.036,0.083,0.097,0.083,0.163
			c0,0.379,0.002,0.759,0,1.14c0,0.053,0.009,0.132-0.047,0.14c-0.266,0.045-0.183,0.246-0.193,0.405
			c-0.007,0.109,0.048,0.157,0.157,0.155c0.221-0.002,0.439,0,0.659,0c0.108,0,0.236,0.014,0.224-0.147
			c-0.01-0.14,0.102-0.341-0.151-0.384c-0.141-0.027-0.104-0.134-0.107-0.222c-0.006-0.104,0.06-0.136,0.152-0.136
			c0.153,0,0.307,0,0.456-0.039c0.4-0.101,0.663-0.475,0.623-0.885c-0.039-0.407-0.377-0.717-0.795-0.727
			C138.068,52.637,137.909,52.641,137.75,52.641z"/>
		<path fill-rule="evenodd" clip-rule="evenodd" fill="#FFFFFF" d="M108.774,52.641c-0.16,0-0.319-0.004-0.479,0
			c-0.639,0.014-0.534-0.114-0.544,0.57c-0.001,0.09-0.013,0.216,0.125,0.201c0.139-0.017,0.336,0.114,0.405-0.123
			c0.022-0.076,0.055-0.121,0.139-0.11c0.09,0.015,0.09,0.085,0.09,0.153c0,0.387,0,0.773,0,1.16c0,0.054,0.002,0.131-0.059,0.135
			c-0.277,0.02-0.206,0.22-0.212,0.383c-0.005,0.114,0.045,0.172,0.167,0.172c0.239-0.006,0.479-0.002,0.719-0.002
			c0.054-0.002,0.107-0.002,0.141-0.056c0.083-0.13,0.004-0.419-0.135-0.483c-0.059-0.026-0.084-0.063-0.084-0.122
			c0-0.406-0.002-0.813,0-1.222c0-0.053,0.018-0.105,0.086-0.114c0.067-0.004,0.099,0.035,0.105,0.097
			c0.014,0.107,0.076,0.136,0.18,0.141c0.384,0.02,0.386,0.02,0.385-0.374c0-0.072-0.002-0.146,0-0.218
			c0.008-0.136-0.052-0.191-0.188-0.189C109.335,52.644,109.056,52.641,108.774,52.641z"/>
		<path fill-rule="evenodd" clip-rule="evenodd" fill="#FFFFFF" d="M160.375,40.953c0.037,0.411,0.064,0.822,0.109,1.23
			c0.111,0.977,0.111,1.955,0.127,2.937c0.017,1.025,0.064,2.05,0.091,3.078c0.015,0.484,0.017,0.973,0.017,1.457
			c0.004,0.9,0.106,1.796,0.123,2.694c0.013,0.566-0.015,0.595-0.57,0.721c-0.481,0.11-0.966,0.21-1.46,0.227
			c-0.357,0.016-0.41-0.025-0.481-0.382c-0.085-0.433-0.124-0.873-0.135-1.313c-0.029-1.411-0.28-2.793-0.574-4.169
			c-0.181-0.851-0.28-1.709-0.272-2.58c0.01-1.073-0.021-2.149,0.016-3.222c0.026-0.812-0.005-1.628,0.054-2.438
			c0.007-0.112,0.065-0.263-0.062-0.329c-0.114-0.062-0.227,0.033-0.331,0.093c-0.204,0.108-0.362,0.272-0.53,0.421
			c-0.042,0.035-0.077,0.074-0.116,0.11c-0.646,0.597-1.347,0.579-1.958-0.053c-0.312-0.323-0.563-0.69-0.763-1.097
			c-0.187-0.381-0.148-0.678,0.172-0.953c0.934-0.798,1.8-1.668,2.753-2.442c0.146-0.119,0.216-0.27,0.237-0.446
			c0.032-0.249,0.063-0.502,0.052-0.757c-0.006-0.117,0.02-0.259-0.114-0.318s-0.277-0.036-0.4,0.051
			c-0.141,0.1-0.271,0.213-0.387,0.345c-0.144,0.166-0.293,0.327-0.449,0.484c-0.182,0.18-0.315,0.207-0.507,0.04
			c-0.833-0.728-1.252-1.396-1.004-2.435c0.065-0.266,0.133-0.531,0.188-0.799c0.033-0.146,0.117-0.226,0.258-0.272
			c0.359-0.119,0.733-0.132,1.104-0.163c0.326-0.028,0.651-0.031,0.979-0.051c0.279-0.016,0.312-0.047,0.354-0.327
			c0.038-0.253-0.011-0.504-0.053-0.751c-0.025-0.153-0.112-0.196-0.26-0.157c-0.302,0.082-0.606,0.159-0.918,0.194
			c-0.566,0.068-0.776-0.107-0.89-0.512c-0.092-0.327-0.206-0.649-0.254-0.986c-0.045-0.322,0.029-0.467,0.312-0.62
			c0.201-0.109,0.413-0.189,0.633-0.242c0.504-0.117,0.875-0.4,1.125-0.854c0.179-0.318,0.293-0.655,0.322-1.021
			c0.012-0.175-0.067-0.275-0.238-0.314c-0.323-0.074-0.648-0.033-0.976-0.018c-0.404,0.018-0.808,0.104-1.215,0.025
			c-0.209-0.041-0.445-0.069-0.523-0.308c-0.081-0.251,0.108-0.406,0.266-0.561c0.052-0.053,0.111-0.1,0.177-0.13
			c0.488-0.212,0.958-0.475,1.475-0.608c0.72-0.186,1.352-0.557,2.005-0.888c0.428-0.218,0.854-0.443,1.313-0.594
			c0.146-0.048,0.278-0.044,0.422,0.026c0.433,0.221,0.892,0.383,1.31,0.644c0.342,0.218,0.45,0.504,0.386,0.883
			c-0.086,0.53-0.309,1.004-0.583,1.457c-0.155,0.257-0.407,0.333-0.684,0.347c-0.126,0.007-0.252-0.02-0.378-0.026
			c-0.114-0.007-0.238-0.022-0.31,0.089c-0.075,0.121-0.042,0.251,0.022,0.362c0.142,0.248,0.476,0.517,0.871,0.439
			c0.373-0.074,0.75-0.119,1.125-0.174c0.375-0.056,0.497,0.023,0.589,0.392c0.142,0.572,0.173,1.149,0.066,1.727
			c-0.069,0.376-0.265,0.682-0.598,0.885c-0.252,0.156-0.515,0.201-0.804,0.096c-0.173-0.062-0.365-0.134-0.521,0.037
			c-0.193,0.216-0.252,0.473-0.161,0.745c0.047,0.144,0.172,0.206,0.32,0.183c0.323-0.055,0.651-0.051,0.915-0.328
			c0.197-0.204,0.49-0.302,0.772-0.356c0.26-0.049,0.492,0.086,0.726,0.186c0.318,0.135,0.632,0.285,0.95,0.422
			c0.239,0.101,0.355,0.222,0.316,0.468c-0.102,0.684-0.269,1.357-0.758,1.879c-0.344,0.367-0.778,0.633-1.228,0.853
			c-0.336,0.167-0.457,0.453-0.549,0.769c-0.054,0.183,0.037,0.271,0.23,0.218c0.274-0.076,0.546-0.173,0.82-0.257
			c0.229-0.07,0.462-0.14,0.705-0.104c0.348,0.057,0.55,0.354,0.488,0.701c-0.043,0.249-0.154,0.469-0.281,0.681
			c-0.2,0.34-0.456,0.641-0.698,0.95c-0.385,0.499-0.958,0.654-1.499,0.87c-0.136,0.055-0.271,0.115-0.415,0.15
			c-0.223,0.055-0.309,0.202-0.33,0.415c-0.065,0.695-0.176,1.389-0.155,2.092c0.004,0.123,0,0.237,0.153,0.286
			c0.081,0.025,0.095,0.123,0.127,0.194c0.202,0.453,0.519,0.689,0.931,0.65c0.513-0.047,0.571-0.248,0.461-0.602
			c-0.069-0.224-0.018-0.297,0.217-0.313c0.43-0.027,0.812,0.119,1.159,0.364c0.095,0.063,0.188,0.13,0.272,0.201
			c0.337,0.285,0.712,0.491,1.14,0.604c0.543,0.141,0.839,0.518,0.984,1.033c0.175,0.617,0.162,1.237-0.014,1.854
			c-0.155,0.545-0.522,0.854-1.074,0.942c-1.143,0.184-2.486-0.553-2.979-1.596c-0.332-0.706-0.679-1.405-1.079-2.076
			c-0.056-0.09-0.114-0.177-0.173-0.267C160.396,40.948,160.386,40.95,160.375,40.953z"/>
		<path fill-rule="evenodd" clip-rule="evenodd" fill="#FFFFFF" d="M149.513,38.171c-0.105,0.038-0.13,0.146-0.191,0.219
			c-0.256,0.308-0.587,0.427-0.978,0.388c-0.178-0.018-0.282-0.122-0.334-0.297c-0.171-0.584-0.308-1.176-0.41-1.771
			c-0.089-0.52,0.027-0.948,0.508-1.285c0.484-0.343,0.825-0.849,1.169-1.335c0.012-0.016,0.018-0.034,0.032-0.051
			c0.323-0.412,0.277-0.647-0.19-0.964c-0.165-0.111-0.329-0.227-0.502-0.328c-0.309-0.18-0.475-0.466-0.561-0.796
			c-0.064-0.245-0.11-0.495-0.146-0.745c-0.037-0.262,0.029-0.367,0.277-0.456c0.188-0.07,0.383-0.12,0.577-0.17
			c0.5-0.128,0.837-0.686,0.803-1.247c-0.018-0.271-0.132-0.37-0.418-0.374c-0.375-0.01-0.743-0.051-1.111-0.119
			c-0.165-0.029-0.256-0.096-0.278-0.276c-0.041-0.316-0.121-0.63-0.133-0.949c-0.012-0.239,0.072-0.338,0.307-0.391
			c0.198-0.039,0.397-0.043,0.598-0.041c0.524,0,1-0.144,1.41-0.479c0.169-0.14,0.363-0.256,0.515-0.413
			c0.278-0.297,0.635-0.383,1.012-0.408c0.43-0.032,0.862-0.081,1.295-0.013c0.182,0.029,0.355,0.059,0.506,0.174
			c0.125,0.096,0.281,0.118,0.428,0.16c0.312,0.095,0.438,0.242,0.456,0.569c0.01,0.167,0.004,0.333-0.026,0.499
			c-0.059,0.341-0.156,0.676-0.183,1.023c-0.01,0.135-0.073,0.259-0.166,0.358c-0.153,0.164-0.312,0.33-0.481,0.479
			c-0.172,0.15-0.388,0.155-0.605,0.15c-0.276-0.007-0.341,0.042-0.402,0.311c-0.077,0.331-0.139,0.667-0.07,1.008
			c0.051,0.257,0.124,0.315,0.382,0.311c0.119,0,0.238-0.02,0.356-0.037c0.436-0.063,0.578,0.07,0.507,0.504
			c-0.056,0.335-0.133,0.666-0.194,1c-0.065,0.362-0.122,0.722-0.111,1.094c0.016,0.416-0.161,0.769-0.462,1.023
			c-0.385,0.32-0.488,0.7-0.476,1.179c0.021,0.647-0.125,1.284-0.198,1.926c-0.117,1.006-0.269,2.008-0.321,3.021
			c-0.033,0.619-0.161,1.228-0.245,1.843c-0.065,0.477-0.086,0.955-0.173,1.43c-0.044,0.253-0.139,0.485-0.264,0.708
			c-0.192,0.334-0.348,0.403-0.728,0.337c-0.404-0.068-0.554-0.224-0.645-0.615c-0.244-1.088-0.574-2.14-1.272-3.034
			c-0.102-0.131-0.046-0.201,0.084-0.229c0.142-0.033,0.289-0.045,0.435-0.066c0.177-0.025,0.313-0.093,0.356-0.292
			c0.158-0.778,0.288-1.56,0.295-2.355C149.545,38.288,149.569,38.225,149.513,38.171z"/>
		<path fill-rule="evenodd" clip-rule="evenodd" fill="#FFFFFF" d="M141.019,48.062c-0.021-1.318,0.094-2.538,0.124-3.767
			c0.019-0.818-0.078-1.619-0.25-2.419c-0.259-1.192-0.509-2.385-0.763-3.579c-0.055-0.253-0.109-0.508-0.163-0.763
			c-0.101-0.486-0.353-0.889-0.684-1.249c-0.184-0.199-0.269-0.434-0.266-0.71c0.008-0.94,0.085-1.875,0.28-2.8
			c0.034-0.162,0.074-0.324,0.15-0.476c0.135-0.267,0.273-0.29,0.466-0.066c0.134,0.155,0.255,0.327,0.373,0.495
			c0.376,0.535,0.696,1.107,1.124,1.605c0.301,0.35,0.616,0.686,0.983,0.965c0.144,0.111,0.214,0.257,0.257,0.418
			c0.187,0.715,0.282,1.438,0.188,2.178c-0.011,0.073-0.021,0.146-0.044,0.215c-0.449,1.323-0.378,2.691-0.342,4.057
			c0.012,0.494,0.187,0.939,0.334,1.395c0.145,0.449,0.39,0.506,0.766,0.213c0.989-0.767,1.73-1.75,2.402-2.79
			c0.355-0.555,0.699-1.12,1.053-1.678c0.118-0.188,0.257-0.36,0.437-0.491c0.197-0.142,0.34-0.08,0.386,0.16
			c0.048,0.254,0.018,0.508-0.028,0.756c-0.164,0.867-0.475,1.691-0.77,2.521c-0.388,1.091-0.959,2.078-1.628,3.017
			c-0.304,0.427-0.535,0.884-0.602,1.422c-0.04,0.338-0.234,0.637-0.41,0.927c-0.278,0.466-0.612,0.889-0.969,1.297
			c-0.402,0.456-0.895,0.698-1.506,0.706c-0.072,0.002-0.145,0.014-0.219,0.023c-0.429,0.052-0.667-0.141-0.68-0.571
			C141.011,48.707,141.019,48.339,141.019,48.062z"/>
		<path fill-rule="evenodd" clip-rule="evenodd" fill="#FFFFFF" d="M107.477,47.694c0.063-0.724,0.111-1.469,0.142-2.214
			c0.03-0.699,0.07-1.402-0.012-2.097c-0.131-1.126-0.273-2.247-0.347-3.377c-0.048-0.729-0.137-1.46-0.396-2.157
			c-0.146-0.396-0.362-0.758-0.578-1.116c-0.297-0.497-0.41-1.037-0.45-1.602c-0.052-0.753-0.128-1.501-0.363-2.224
			c-0.062-0.197-0.091-0.404-0.028-0.61c0.064-0.206,0.139-0.247,0.332-0.162c0.451,0.199,0.916,0.288,1.402,0.162
			c0.278-0.071,0.524-0.226,0.775-0.363c0.116-0.063,0.238-0.091,0.353,0.015c0.115,0.104,0.151,0.229,0.104,0.379
			c-0.036,0.117-0.1,0.217-0.169,0.316c-0.144,0.203-0.315,0.377-0.49,0.552c-0.324,0.331-0.523,0.716-0.464,1.188
			c0.098,0.78,0.396,1.446,1.087,1.891c0.292,0.187,0.587,0.374,0.815,0.643c0.207,0.242,0.276,0.519,0.243,0.836
			c-0.061,0.582-0.117,1.167-0.142,1.753c-0.033,0.786-0.065,1.57,0.034,2.354c0.041,0.318,0.09,0.634,0.229,0.927
			c0.162,0.352,0.283,0.721,0.498,1.046c0.196,0.298,0.408,0.34,0.681,0.105c0.413-0.352,0.688-0.815,0.955-1.276
			c0.774-1.33,1.537-2.669,2.308-4.002c0.054-0.091,0.104-0.268,0.213-0.222c0.12,0.051,0.008,0.201-0.018,0.303
			c-0.145,0.604-0.266,1.215-0.219,1.84c0.037,0.505-0.068,0.969-0.303,1.405c-0.81,1.505-1.392,3.117-2.207,4.617
			c-0.406,0.752-0.822,1.497-1.369,2.157c-0.035,0.042-0.069,0.083-0.104,0.123c-0.335,0.389-0.717,0.626-1.264,0.478
			c-0.563-0.153-0.959-0.478-1.148-1.037C107.511,48.126,107.488,47.922,107.477,47.694z"/>
		<path fill-rule="evenodd" clip-rule="evenodd" fill="#FFFFFF" d="M130.973,46.174c-0.382-0.085-0.692,0.092-1.001,0.24
			c-0.722,0.347-1.404,0.771-2.102,1.161c-0.863,0.483-1.793,0.705-2.771,0.76c-0.232,0.014-0.465,0.029-0.697,0.002
			c-0.088-0.013-0.188-0.006-0.221-0.105c-0.036-0.112,0.06-0.172,0.138-0.216c0.168-0.099,0.332-0.206,0.513-0.272
			c0.417-0.157,0.781-0.396,1.106-0.702c0.979-0.916,1.849-1.921,2.458-3.127c0.153-0.301,0.165-0.595,0.007-0.898
			c-0.214-0.414-0.492-0.779-0.789-1.131c-0.114-0.137-0.123-0.257-0.058-0.399c0.183-0.406,0.53-0.569,0.943-0.609
			c0.343-0.033,0.662-0.003,0.929,0.287c0.202,0.217,0.507,0.323,0.781,0.438c0.447,0.19,0.755,0.512,0.976,0.934
			c0.449,0.857,0.684,1.775,0.784,2.732c0.044,0.416-0.208,0.744-0.612,0.844C131.228,46.146,131.093,46.153,130.973,46.174z"/>
		<path fill-rule="evenodd" clip-rule="evenodd" fill="#FFFFFF" d="M114.328,29.543c0,1.039-0.683,1.574-1.558,1.443
			c-0.308-0.045-0.605-0.127-0.884-0.25c-0.664-0.293-1.352-0.257-2.045-0.199c-0.133,0.012-0.268,0.01-0.397,0.029
			c-0.433,0.065-0.722-0.165-0.986-0.455c-0.091-0.099-0.078-0.181-0.003-0.284c0.213-0.282,0.536-0.39,0.827-0.547
			c0.104-0.059,0.218-0.101,0.322-0.159c0.336-0.191,0.364-0.261,0.299-0.647c-0.113-0.633-0.543-1.026-1.168-1.072
			c-0.272-0.02-0.322-0.096-0.173-0.33c0.335-0.523,0.796-0.886,1.43-0.906c0.642-0.021,1.288,0.048,1.861,0.374
			c0.784,0.448,1.551,0.921,2.01,1.749C114.119,28.748,114.318,29.222,114.328,29.543z"/>
		<path fill-rule="evenodd" clip-rule="evenodd" fill="#FFFFFF" d="M125.787,40.966c-0.172-0.004-0.38-0.018-0.574-0.097
			c-0.172-0.068-0.211-0.205-0.081-0.299c0.538-0.402,0.832-0.983,1.15-1.542c0.461-0.812,0.857-1.655,1.162-2.54
			c0.09-0.263,0.1-0.52,0.053-0.786c-0.082-0.488-0.199-0.968-0.355-1.437c-0.049-0.152-0.008-0.229,0.121-0.308
			c0.502-0.299,1.002-0.217,1.494,0.001c0.487,0.222,0.834,0.613,1.148,1.031c0.499,0.661,0.857,1.391,1.035,2.205
			c0.098,0.446-0.123,0.688-0.404,0.87c-0.369,0.237-0.784,0.369-1.211,0.453c-0.315,0.062-0.561,0.224-0.795,0.428
			c-0.531,0.47-1.025,0.975-1.484,1.508C126.708,40.847,126.298,40.96,125.787,40.966z"/>
		<path fill-rule="evenodd" clip-rule="evenodd" fill="#FFFFFF" d="M144.36,26.744c0.387-0.035,0.729,0.108,1.048,0.314
			c0.958,0.623,1.772,1.393,2.304,2.419c0.254,0.493,0.165,1.018-0.212,1.406c-0.183,0.19-0.396,0.281-0.684,0.232
			c-0.857-0.146-1.72-0.183-2.587-0.091c-0.907,0.092-1.779-0.095-2.629-0.398c-0.019-0.008-0.037-0.015-0.053-0.025
			c-0.074-0.041-0.178-0.068-0.162-0.178c0.013-0.099,0.111-0.101,0.187-0.121c0.655-0.189,1.22-0.537,1.712-0.997
			c0.276-0.26,0.247-0.512-0.072-0.722c-0.172-0.114-0.356-0.208-0.547-0.29c-0.334-0.147-0.577-0.382-0.674-0.745
			c-0.047-0.169-0.008-0.263,0.188-0.312c0.512-0.127,1.012-0.288,1.521-0.424C143.913,26.754,144.133,26.729,144.36,26.744z"/>
		<path fill-rule="evenodd" clip-rule="evenodd" fill="#FFFFFF" d="M129.411,24.818c0.277-0.004,0.59,0.15,0.92,0.222
			c0.17,0.039,0.246,0.228,0.228,0.463c-0.036,0.422-0.183,0.819-0.338,1.208c-0.281,0.704-0.53,1.422-0.854,2.11
			c-0.395,0.833-0.988,1.394-1.922,1.549c-0.164,0.027-0.33,0.041-0.495,0.021c-0.224-0.025-0.31-0.164-0.245-0.379
			c0.093-0.316,0.281-0.586,0.447-0.868c0.162-0.276,0.33-0.547,0.492-0.823c0.122-0.21,0.142-0.442,0.117-0.679
			c-0.024-0.23-0.182-0.381-0.359-0.503c-0.386-0.27-0.564-0.682-0.763-1.081c-0.04-0.081-0.015-0.142,0.056-0.189
			c0.671-0.438,1.347-0.868,2.15-1.023C129.008,24.812,129.174,24.801,129.411,24.818z"/>
		<path fill-rule="evenodd" clip-rule="evenodd" fill="#FFFFFF" d="M114.455,55.182c-0.067,0-0.133,0-0.199,0
			c-0.327-0.002-0.382-0.068-0.327-0.391c0.013-0.074,0.04-0.129,0.12-0.14c0.242-0.032,0.136-0.221,0.142-0.347
			c0.012-0.155-0.121-0.122-0.217-0.127c-0.059-0.004-0.119-0.002-0.178-0.002c-0.301,0.002-0.35,0.057-0.301,0.351
			c0.01,0.059,0.03,0.095,0.091,0.118c0.159,0.061,0.246,0.353,0.15,0.486c-0.037,0.051-0.091,0.049-0.145,0.049
			c-0.234,0-0.467-0.004-0.699,0.002c-0.129,0.002-0.188-0.051-0.177-0.177c0.016-0.146-0.078-0.338,0.177-0.374
			c0.072-0.012,0.062-0.095,0.062-0.153c0.002-0.379,0.002-0.761,0.002-1.14c-0.002-0.068-0.005-0.127-0.085-0.161
			c-0.139-0.061-0.219-0.354-0.138-0.48c0.039-0.062,0.103-0.055,0.161-0.056c0.227-0.002,0.453,0.001,0.681-0.002
			c0.105-0.002,0.195,0.026,0.183,0.152c-0.014,0.129,0.09,0.319-0.119,0.37c-0.237,0.057-0.13,0.229-0.139,0.355
			c-0.012,0.155,0.124,0.119,0.217,0.126c0.061,0.003,0.12,0,0.181,0c0.304,0,0.335-0.037,0.299-0.332
			c-0.008-0.076-0.03-0.125-0.112-0.139c-0.253-0.046-0.142-0.246-0.152-0.385c-0.012-0.163,0.118-0.146,0.227-0.146
			c0.213,0,0.426,0.003,0.64-0.002c0.126-0.002,0.188,0.051,0.175,0.176c-0.015,0.145,0.078,0.339-0.176,0.375
			c-0.072,0.01-0.062,0.094-0.062,0.152c-0.002,0.379-0.002,0.76,0,1.14c0,0.066,0.002,0.128,0.084,0.161
			c0.139,0.06,0.217,0.354,0.137,0.481c-0.034,0.056-0.089,0.054-0.143,0.056c-0.119,0.002-0.239,0-0.358,0V55.182z"/>
		<path fill-rule="evenodd" clip-rule="evenodd" fill="#FFFFFF" d="M147.38,52.641c0.167,0,0.334-0.004,0.501,0.001
			c0.33,0.011,0.57,0.173,0.713,0.467c0.141,0.289,0.113,0.583-0.086,0.829c-0.113,0.14-0.102,0.242-0.009,0.365
			c0.103,0.139,0.145,0.307,0.352,0.38c0.139,0.048,0.064,0.262,0.056,0.402c-0.007,0.112-0.112,0.093-0.188,0.095
			c-0.2,0.004-0.4,0.005-0.601,0c-0.086-0.004-0.209,0.039-0.233-0.091c-0.025-0.133-0.078-0.321,0.037-0.399
			c0.238-0.157,0.027-0.261-0.032-0.341c-0.088-0.118-0.25-0.071-0.377-0.044c-0.111,0.024-0.068,0.142-0.071,0.224
			c-0.004,0.06,0.027,0.093,0.088,0.116c0.159,0.06,0.246,0.353,0.15,0.486c-0.033,0.043-0.079,0.047-0.125,0.049
			c-0.248,0-0.494-0.002-0.74,0c-0.11,0.002-0.167-0.051-0.153-0.157c0.016-0.147-0.093-0.351,0.176-0.392
			c0.071-0.013,0.062-0.095,0.062-0.154c0-0.382,0-0.76,0-1.141c0-0.076-0.014-0.137-0.107-0.166
			c-0.246-0.071-0.113-0.275-0.124-0.422c-0.007-0.136,0.127-0.104,0.214-0.107C147.046,52.637,147.214,52.641,147.38,52.641z
			 M147.723,53.731c0.259-0.003,0.389-0.081,0.408-0.245c0.017-0.137-0.048-0.25-0.17-0.285c-0.163-0.047-0.337-0.068-0.501,0.02
			c-0.005,0.002-0.008,0.01-0.008,0.01c-0.022,0.152-0.048,0.306,0.009,0.439C147.507,53.779,147.64,53.714,147.723,53.731z"/>
		<path fill-rule="evenodd" clip-rule="evenodd" fill="#FFFFFF" d="M133.537,55.182c-0.074,0-0.148,0.007-0.218-0.004
			c-0.107-0.016-0.281,0.068-0.29-0.114c-0.007-0.145-0.132-0.361,0.143-0.424c0.051-0.011,0.059-0.05,0.047-0.094
			c-0.013-0.056-0.032-0.113-0.095-0.117c-0.205-0.005-0.413-0.005-0.618-0.002c-0.074,0.002-0.093,0.07-0.103,0.13
			c-0.011,0.06,0.033,0.074,0.08,0.092c0.225,0.08,0.119,0.269,0.122,0.409c0.004,0.149-0.132,0.12-0.226,0.122
			c-0.208,0.004-0.415-0.004-0.622,0.002c-0.132,0.003-0.199-0.043-0.191-0.185c0.01-0.157-0.058-0.343,0.202-0.374
			c0.082-0.01,0.087-0.126,0.109-0.201c0.158-0.522,0.319-1.045,0.468-1.57c0.045-0.153,0.109-0.22,0.276-0.215
			c0.73,0.022,0.536-0.119,0.757,0.562c0.135,0.417,0.252,0.842,0.378,1.263c0.022,0.074,0.035,0.165,0.136,0.179
			c0.29,0.042,0.157,0.265,0.162,0.411c0.007,0.177-0.156,0.116-0.257,0.128C133.711,55.187,133.623,55.182,133.537,55.182z
			 M132.837,53.266c-0.017,0-0.032-0.002-0.049-0.004c-0.048,0.158-0.096,0.315-0.144,0.475c-0.017,0.055-0.025,0.113,0.041,0.135
			c0.091,0.026,0.188,0.031,0.274-0.007c0.055-0.022,0.033-0.079,0.02-0.124C132.934,53.583,132.885,53.425,132.837,53.266z"/>
		<path fill-rule="evenodd" clip-rule="evenodd" fill="#FFFFFF" d="M118.803,55.18c-0.233,0-0.466,0-0.7,0
			c-0.091,0-0.191-0.008-0.178-0.13c0.012-0.133-0.094-0.315,0.09-0.388c0.122-0.046,0.148-0.105,0.147-0.217
			c-0.003-0.358-0.002-0.719-0.001-1.08c0-0.102-0.019-0.162-0.136-0.204c-0.203-0.073-0.086-0.263-0.1-0.4
			c-0.012-0.124,0.097-0.12,0.185-0.12c0.468,0,0.932,0.001,1.399-0.002c0.136-0.002,0.198,0.047,0.189,0.188
			c-0.005,0.085,0,0.173,0,0.259c0,0.328-0.098,0.404-0.421,0.331c-0.051-0.012-0.082-0.033-0.103-0.082
			c-0.069-0.145-0.256-0.222-0.397-0.148c-0.143,0.07-0.063,0.212-0.076,0.322c-0.013,0.089,0.041,0.135,0.131,0.133
			c0.021,0,0.039,0.002,0.061,0.002c0.309,0.01,0.387,0.117,0.312,0.419c-0.041,0.169-0.179,0.106-0.278,0.112
			c-0.132,0.006-0.234,0.006-0.232,0.186c0.004,0.271,0.102,0.355,0.368,0.281c0.042-0.01,0.077-0.024,0.092-0.065
			c0.022-0.065,0.013-0.162,0.111-0.167c0.119-0.005,0.239-0.002,0.359,0.007c0.044,0.004,0.062,0.045,0.067,0.088
			c0.003,0.033,0.007,0.066,0.005,0.1c-0.01,0.694,0.1,0.563-0.555,0.577c-0.114,0.004-0.227,0.002-0.34,0.002V55.18z"/>
		<path fill-rule="evenodd" clip-rule="evenodd" fill="#FFFFFF" d="M142.827,52.641c0.239,0,0.48,0.001,0.72,0
			c0.118-0.004,0.171,0.047,0.166,0.166c-0.002,0.092,0.002,0.187,0.002,0.28c-0.002,0.326-0.102,0.402-0.422,0.328
			c-0.051-0.011-0.08-0.033-0.103-0.083c-0.068-0.143-0.26-0.22-0.398-0.146c-0.141,0.072-0.061,0.212-0.075,0.322
			c-0.01,0.093,0.045,0.135,0.133,0.133c0.021,0,0.04,0.002,0.062,0.002c0.305,0.01,0.387,0.123,0.309,0.421
			c-0.042,0.167-0.178,0.104-0.279,0.11c-0.133,0.006-0.232,0.008-0.23,0.187c0.004,0.271,0.103,0.355,0.37,0.28
			c0.042-0.01,0.075-0.026,0.091-0.067c0.021-0.066,0.013-0.16,0.113-0.165c0.118-0.005,0.238,0,0.356,0.007
			c0.036,0.002,0.056,0.035,0.063,0.07c0.005,0.018,0.006,0.038,0.008,0.059c0.076,0.612,0.057,0.638-0.555,0.638
			c-0.342,0-0.681,0-1.021-0.002c-0.094,0-0.21,0.009-0.197-0.13s-0.099-0.325,0.11-0.396c0.109-0.035,0.127-0.098,0.127-0.188
			c-0.001-0.374,0-0.749-0.001-1.12c0-0.066,0.001-0.13-0.078-0.167c-0.146-0.068-0.224-0.341-0.146-0.478
			c0.04-0.073,0.112-0.06,0.177-0.061C142.361,52.639,142.593,52.641,142.827,52.641z"/>
		<path fill-rule="evenodd" clip-rule="evenodd" fill="#FFFFFF" d="M127.367,52.641c0.159,0,0.319-0.004,0.479,0
			c0.432,0.007,0.772,0.316,0.811,0.73c0.041,0.428-0.237,0.797-0.664,0.893c-0.139,0.029-0.277,0.023-0.419,0.027
			c-0.095,0-0.153,0.038-0.148,0.14c0.002,0.09-0.027,0.19,0.112,0.218c0.251,0.047,0.138,0.249,0.148,0.388
			c0.011,0.163-0.123,0.144-0.229,0.144c-0.207,0.002-0.414-0.006-0.621,0.002c-0.148,0.005-0.205-0.058-0.194-0.202
			c0.014-0.144-0.057-0.319,0.18-0.349c0.063-0.01,0.062-0.083,0.062-0.138c0.001-0.392,0-0.784,0-1.177
			c0-0.074-0.025-0.122-0.106-0.145c-0.246-0.073-0.114-0.276-0.124-0.422c-0.009-0.138,0.125-0.106,0.213-0.109
			C127.033,52.637,127.2,52.641,127.367,52.641z M127.684,53.731c0.024,0,0.038-0.002,0.051,0c0.174,0.011,0.322-0.028,0.378-0.219
			c0.035-0.122-0.025-0.22-0.123-0.292c-0.078-0.06-0.466-0.069-0.524-0.021c-0.009,0.01-0.022,0.019-0.023,0.031
			c-0.029,0.146-0.044,0.294,0.003,0.433C127.482,53.773,127.608,53.714,127.684,53.731z"/>
		<path fill-rule="evenodd" clip-rule="evenodd" fill="#FFFFFF" d="M137.75,52.641c0.159,0,0.318-0.004,0.479,0
			c0.418,0.01,0.756,0.319,0.795,0.727c0.04,0.41-0.223,0.784-0.623,0.885c-0.149,0.039-0.303,0.039-0.456,0.039
			c-0.093,0-0.158,0.031-0.152,0.136c0.004,0.088-0.033,0.194,0.107,0.222c0.253,0.043,0.142,0.244,0.151,0.384
			c0.013,0.161-0.115,0.147-0.224,0.147c-0.22,0-0.438-0.002-0.659,0c-0.109,0.002-0.164-0.046-0.157-0.155
			c0.011-0.159-0.072-0.36,0.193-0.405c0.056-0.008,0.047-0.087,0.047-0.14c0.002-0.381,0-0.761,0-1.14
			c0-0.066-0.003-0.127-0.083-0.163c-0.14-0.061-0.219-0.351-0.14-0.479c0.039-0.064,0.103-0.057,0.16-0.058
			C137.375,52.639,137.562,52.641,137.75,52.641z M138.13,53.172c-0.339-0.002-0.339-0.002-0.339,0.284
			c0,0.048,0.001,0.094,0.002,0.139c0,0.081,0.036,0.13,0.118,0.132c0.119,0.002,0.24,0.008,0.357-0.01
			c0.133-0.021,0.209-0.122,0.216-0.251c0.008-0.142-0.071-0.241-0.209-0.28C138.213,53.168,138.145,53.174,138.13,53.172z"/>
		<path fill-rule="evenodd" clip-rule="evenodd" fill="#FFFFFF" d="M108.774,52.641c0.281,0,0.561,0.003,0.842-0.002
			c0.136-0.002,0.195,0.054,0.188,0.189c-0.002,0.072,0,0.146,0,0.218c0.001,0.394-0.001,0.394-0.385,0.374
			c-0.104-0.005-0.166-0.033-0.18-0.141c-0.007-0.062-0.038-0.101-0.105-0.097c-0.068,0.009-0.086,0.062-0.086,0.114
			c-0.002,0.408,0,0.815,0,1.222c0,0.059,0.025,0.096,0.084,0.122c0.139,0.064,0.218,0.354,0.135,0.483
			c-0.033,0.054-0.087,0.054-0.141,0.056c-0.239,0-0.479-0.004-0.719,0.002c-0.122,0-0.172-0.058-0.167-0.172
			c0.006-0.163-0.065-0.363,0.212-0.383c0.061-0.004,0.059-0.081,0.059-0.135c0-0.387,0-0.773,0-1.16c0-0.068,0-0.139-0.09-0.153
			c-0.084-0.011-0.116,0.034-0.139,0.11c-0.069,0.237-0.267,0.106-0.405,0.123c-0.138,0.015-0.126-0.111-0.125-0.201
			c0.01-0.685-0.095-0.557,0.544-0.57C108.455,52.637,108.614,52.641,108.774,52.641z"/>
		<path fill-rule="evenodd" clip-rule="evenodd" fill="#FFFFFF" d="M147.723,53.731c-0.083-0.018-0.216,0.048-0.262-0.062
			c-0.057-0.134-0.031-0.287-0.009-0.432c0,0,0.003-0.016,0.008-0.018c0.164-0.088,0.338-0.066,0.501-0.02
			c0.122,0.035,0.187,0.148,0.17,0.285C148.111,53.65,147.981,53.729,147.723,53.731z"/>
		<path fill-rule="evenodd" clip-rule="evenodd" fill="#FFFFFF" d="M132.837,53.266c0.048,0.159,0.097,0.317,0.143,0.475
			c0.014,0.045,0.035,0.102-0.02,0.124c-0.087,0.038-0.184,0.033-0.274,0.007c-0.066-0.021-0.058-0.08-0.041-0.135
			c0.048-0.159,0.096-0.316,0.144-0.475C132.805,53.264,132.82,53.266,132.837,53.266z"/>
		<path fill-rule="evenodd" clip-rule="evenodd" fill="#FFFFFF" d="M127.684,53.731c-0.075-0.018-0.201,0.042-0.239-0.068
			c-0.047-0.139-0.032-0.286-0.003-0.433c0.001-0.013,0.015-0.021,0.023-0.031c0.059-0.048,0.446-0.038,0.524,0.021
			c0.098,0.072,0.158,0.17,0.123,0.292c-0.056,0.19-0.204,0.229-0.378,0.219C127.722,53.729,127.708,53.731,127.684,53.731z"/>
		<path fill-rule="evenodd" clip-rule="evenodd" fill="#FFFFFF" d="M138.13,53.172c0.015,0.002,0.083-0.004,0.146,0.014
			c0.138,0.039,0.217,0.139,0.209,0.28c-0.007,0.129-0.083,0.23-0.216,0.251c-0.117,0.018-0.238,0.012-0.357,0.01
			c-0.082-0.002-0.118-0.051-0.118-0.132c-0.001-0.045-0.002-0.091-0.002-0.139C137.791,53.17,137.791,53.17,138.13,53.172z"/>
		<path fill-rule="evenodd" clip-rule="evenodd" fill="#FFFFFF" d="M123.499,43.45c-0.87-0.308-1.758-0.575-2.68-0.175
			c-0.092,0.042-0.144,0.011-0.151-0.084c-0.01-0.104,0.001-0.212,0.106-0.261c0.333-0.157,0.575-0.429,0.846-0.664
			c0.307-0.266,0.581-0.585,0.944-0.765c0.448-0.223,0.565-0.579,0.53-1.021c-0.039-0.491-0.138-0.978-0.124-1.474
			c0.005-0.169-0.096-0.251-0.267-0.255c-0.262-0.011-0.518,0.004-0.766,0.111c-0.159,0.066-0.326,0.111-0.496,0.148
			c-0.172,0.04-0.212-0.068-0.241-0.189c-0.032-0.134-0.055-0.294,0.119-0.33c0.218-0.043,0.316-0.191,0.382-0.37
			c0.189-0.512,0.276-1.043,0.222-1.588c-0.018-0.194-0.075-0.383-0.273-0.483c-0.061-0.029-0.072-0.09-0.088-0.15
			c-0.136-0.471-0.039-0.648,0.425-0.79c0.024-0.008,0.051-0.018,0.075-0.022c0.183-0.026,0.276-0.147,0.334-0.309
			c0.069-0.187,0.077-0.379,0.025-0.567c-0.052-0.187-0.146-0.364-0.175-0.553c-0.057-0.369-0.311-0.483-0.621-0.55
			c-0.489-0.105-0.979-0.064-1.472-0.011c-0.523,0.057-0.976,0.258-1.366,0.602c-0.296,0.261-0.592,0.52-0.887,0.78
			c-0.515,0.455-1.078,0.833-1.735,1.046c-0.324,0.107-0.473-0.005-0.466-0.346c0.004-0.216,0.055-0.424,0.096-0.634
			c0.057-0.276,0.215-0.447,0.479-0.537c0.215-0.072,0.431-0.141,0.621-0.269c0.525-0.343,1.063-0.659,1.617-0.953
			c0.812-0.433,1.532-1.017,2.334-1.469c0.736-0.417,1.449-0.878,2.271-1.125c0.107-0.031,0.187-0.101,0.249-0.19
			c0.227-0.32,0.379-0.675,0.445-1.062c0.069-0.414-0.177-0.849-0.556-1.013c-0.135-0.056-0.269-0.075-0.408-0.019
			c-0.346,0.142-0.703,0.249-1.062,0.346c-0.411,0.11-0.794,0.274-1.145,0.514c-0.183,0.125-0.368,0.24-0.552,0.362
			c-0.094,0.064-0.151,0.035-0.169-0.072c-0.011-0.071-0.018-0.145-0.02-0.218c-0.021-0.507,0.023-1.012,0.064-1.519
			c0.014-0.152,0.088-0.195,0.232-0.204c0.591-0.035,1.183-0.073,1.766-0.191c0.833-0.165,1.782-0.824,1.5-2.126
			c-0.108-0.496-0.297-0.648-0.809-0.596c-0.578,0.061-1.154,0.117-1.732,0.171c-0.281,0.026-0.347-0.035-0.395-0.32
			c-0.066-0.396-0.01-0.786,0.037-1.173c0.047-0.391,0.154-0.771,0.231-1.156c0.105-0.534-0.024-1.007-0.391-1.407
			c-0.21-0.231-0.376-0.233-0.602-0.026c-0.123,0.111-0.236,0.233-0.343,0.362c-0.289,0.349-0.599,0.663-1.056,0.788
			c-0.109,0.027-0.205,0.095-0.288,0.173c-0.065,0.062-0.135,0.146-0.1,0.228c0.134,0.305,0.094,0.665,0.312,0.941
			c0.115,0.146,0.156,0.319,0.149,0.508c-0.015,0.402-0.134,0.788-0.214,1.177c-0.035,0.169-0.179,0.28-0.324,0.368
			c-0.178,0.104-0.365,0.299-0.573,0.338c-0.401,0.072-0.808,0.195-1.155,0.195c-0.179,0-0.299,0-0.42,0
			c-0.486,0-0.477-0.164-0.264,0.322c0.263,0.601,0.709,1.038,0.958,1.646c0.081,0.202,0.225,0.199,0.476,0.129
			c0.334-0.096,0.669-0.194,1.021-0.181c0.377,0.014,0.524,0.16,0.536,0.538c0.022,0.539,0.036,1.075,0.082,1.612
			c0.029,0.347-0.021,0.628-0.347,0.816c-0.097,0.057-0.175,0.144-0.259,0.22c-0.677,0.632-1.48,1.09-2.238,1.607
			c-0.484,0.334-0.993,0.642-1.551,0.82c-0.794,0.258-1.624,0.311-2.453,0.277c-0.433-0.02-0.866-0.035-1.299-0.02
			c-0.318,0.013-0.641,0.016-0.95,0.114c-0.103,0.033-0.22,0.075-0.148,0.222c0.26,0.54,0.487,1.1,0.891,1.557
			c0.244,0.272,0.528,0.44,0.915,0.391c0.93-0.119,1.832-0.343,2.708-0.676c0.263-0.101,0.495-0.262,0.755-0.367
			c0.074-0.031,0.161-0.068,0.156,0.078c-0.035,0.833-0.068,1.665-0.101,2.497c-0.007,0.141-0.055,0.269-0.16,0.354
			c-0.204,0.172-0.226,0.37-0.147,0.611c0.308,0.944,0.588,1.897,0.828,2.863c0.146,0.599,0.337,1.19,0.375,1.814
			c0.021,0.347,0.079,0.688,0.209,1.016c0.056,0.145,0.151,0.228,0.289,0.282c0.366,0.138,0.721,0.042,1.013-0.271
			c0.226-0.247,0.453-0.49,0.684-0.731c0.038-0.04,0.084-0.104,0.148-0.073c0.064,0.033,0.036,0.108,0.031,0.164
			c-0.033,0.37-0.08,0.742-0.102,1.113c-0.013,0.178-0.07,0.239-0.252,0.249c-0.578,0.031-1.159,0.025-1.729,0.14
			c-0.16,0.031-0.312,0.076-0.45,0.159c-0.557,0.331-1.016,0.772-1.47,1.228c-0.313,0.315-0.41,0.672-0.273,1.096
			c0.047,0.146,0.076,0.297,0.118,0.443c0.132,0.469,0.289,0.929,0.39,1.406c0.141,0.679,0.777,1.084,1.401,1.061
			c0.496-0.02,1-0.018,1.495-0.088c0.542-0.079,0.975-0.3,1.205-0.83c0.071-0.167,0.188-0.311,0.32-0.434
			c0.605-0.566,1.252-1.084,1.961-1.512c0.552-0.333,1.187-0.502,1.747-0.826c0.083-0.049,0.181-0.043,0.273-0.016
			c0.124,0.033,0.235,0.006,0.343-0.062c0.3-0.19,0.506-0.462,0.609-0.792c0.107-0.338,0.232-0.669,0.342-1.002
			C124.025,43.897,123.929,43.604,123.499,43.45z M118.911,36.515c-0.586,0.377-0.965,0.898-1.146,1.009
			c-0.265,0.273-0.521,0.553-0.807,0.805c-0.065,0.058-0.14,0.15-0.242,0.098c-0.094-0.049-0.051-0.156-0.059-0.237
			c-0.005-0.333,0.077-0.638,0.33-0.869c0.186-0.169,0.491-0.541,0.858-0.976c0.256-0.303,0.613-0.355,0.981-0.363
			c0.117,0,0.195,0.083,0.211,0.204C119.055,36.317,119.045,36.451,118.911,36.515z"/>
	</g>
</g>
</svg>
