<?xml version="1.0" encoding="utf-8"?>
<!-- Generator: Adobe Illustrator 16.0.0, SVG Export Plug-In . SVG Version: 6.00 Build 0)  -->
<!DOCTYPE svg PUBLIC "-//W3C//DTD SVG 1.1//EN" "http://www.w3.org/Graphics/SVG/1.1/DTD/svg11.dtd">
<svg version="1.1" id="paper-logo" xmlns="http://www.w3.org/2000/svg" xmlns:xlink="http://www.w3.org/1999/xlink" x="0px" y="0px"
	 width="50.004px" height="29px" viewBox="0 0 50.004 29" enable-background="new 0 0 50.004 29" xml:space="preserve">
<path fill="#FFFFFF" d="M45.471,17.225c0.024,0.34,0.051,0.68,0.09,1.02c0.09,0.805,0.09,1.615,0.104,2.428
	c0.01,0.852,0.051,1.697,0.072,2.547c0.016,0.404,0.018,0.811,0.019,1.207c0.001,0.742,0.086,1.486,0.104,2.23
	c0.008,0.469-0.014,0.49-0.477,0.598c-0.396,0.09-0.798,0.172-1.208,0.188c-0.294,0.013-0.338-0.021-0.396-0.313
	c-0.072-0.354-0.104-0.724-0.11-1.086c-0.028-1.17-0.235-2.313-0.476-3.453c-0.15-0.698-0.232-1.409-0.228-2.131
	c0.011-0.892-0.021-1.776,0.013-2.666c0.023-0.672-0.002-1.344,0.043-2.019c0.008-0.088,0.057-0.217-0.051-0.272
	c-0.097-0.049-0.188,0.031-0.275,0.08c-0.166,0.086-0.299,0.229-0.438,0.351c-0.03,0.028-0.063,0.063-0.096,0.092
	c-0.535,0.496-1.113,0.479-1.617-0.043c-0.258-0.269-0.47-0.568-0.631-0.906c-0.155-0.316-0.123-0.562,0.144-0.792
	c0.771-0.658,1.487-1.38,2.273-2.021c0.121-0.097,0.179-0.223,0.193-0.368c0.026-0.208,0.054-0.416,0.043-0.627
	c-0.004-0.098,0.019-0.214-0.094-0.264c-0.113-0.049-0.229-0.027-0.332,0.042c-0.117,0.082-0.227,0.175-0.316,0.283
	c-0.122,0.137-0.245,0.272-0.375,0.402c-0.15,0.149-0.262,0.171-0.418,0.031c-0.688-0.6-1.034-1.153-0.83-2.012
	c0.053-0.22,0.107-0.44,0.152-0.66c0.027-0.124,0.1-0.188,0.215-0.227c0.299-0.099,0.604-0.109,0.914-0.135
	c0.271-0.027,0.539-0.028,0.811-0.044c0.23-0.011,0.259-0.037,0.296-0.268c0.032-0.211-0.01-0.416-0.044-0.625
	c-0.021-0.126-0.091-0.161-0.214-0.13c-0.251,0.068-0.503,0.134-0.765,0.162c-0.467,0.057-0.64-0.089-0.732-0.422
	c-0.077-0.271-0.17-0.538-0.208-0.814c-0.038-0.265,0.021-0.389,0.257-0.516c0.165-0.089,0.344-0.157,0.521-0.2
	c0.418-0.095,0.728-0.329,0.933-0.704c0.146-0.264,0.243-0.542,0.265-0.844c0.01-0.146-0.058-0.23-0.192-0.26
	C42.139,4,41.87,4.033,41.598,4.044c-0.334,0.017-0.668,0.083-1.006,0.021c-0.173-0.031-0.365-0.058-0.432-0.251
	c-0.067-0.208,0.088-0.339,0.219-0.468c0.042-0.04,0.092-0.081,0.146-0.103c0.404-0.176,0.793-0.393,1.223-0.503
	c0.594-0.154,1.117-0.463,1.656-0.739c0.354-0.179,0.707-0.364,1.088-0.488c0.121-0.039,0.229-0.036,0.349,0.024
	c0.359,0.179,0.74,0.315,1.083,0.532c0.285,0.179,0.373,0.415,0.321,0.731c-0.073,0.437-0.257,0.829-0.483,1.205
	c-0.125,0.21-0.337,0.273-0.563,0.283c-0.104,0.008-0.21-0.015-0.313-0.019c-0.094-0.007-0.197-0.021-0.256,0.07
	C44.566,4.44,44.596,4.546,44.65,4.64c0.117,0.207,0.394,0.426,0.722,0.363c0.308-0.061,0.619-0.095,0.931-0.142
	c0.307-0.045,0.409,0.021,0.485,0.325c0.118,0.472,0.144,0.951,0.058,1.428c-0.058,0.307-0.22,0.565-0.494,0.732
	c-0.209,0.126-0.427,0.164-0.666,0.08c-0.142-0.052-0.302-0.111-0.43,0.029c-0.16,0.178-0.208,0.389-0.135,0.617
	c0.037,0.118,0.143,0.171,0.266,0.149c0.266-0.044,0.539-0.042,0.756-0.271c0.162-0.17,0.405-0.252,0.64-0.297
	c0.217-0.039,0.407,0.075,0.603,0.153c0.264,0.113,0.521,0.238,0.786,0.349c0.192,0.084,0.294,0.187,0.263,0.388
	c-0.082,0.567-0.226,1.125-0.629,1.556c-0.285,0.305-0.644,0.524-1.017,0.706c-0.277,0.138-0.374,0.373-0.452,0.636
	c-0.046,0.15,0.025,0.223,0.188,0.179c0.229-0.06,0.453-0.14,0.681-0.212c0.192-0.056,0.383-0.115,0.586-0.083
	c0.288,0.046,0.455,0.292,0.401,0.579c-0.034,0.205-0.127,0.389-0.229,0.564c-0.167,0.279-0.377,0.529-0.578,0.79
	c-0.313,0.409-0.791,0.537-1.237,0.717c-0.109,0.045-0.226,0.096-0.344,0.125c-0.189,0.047-0.261,0.166-0.279,0.348
	c-0.057,0.573-0.144,1.146-0.129,1.728c0.004,0.104,0,0.193,0.129,0.238c0.067,0.02,0.082,0.1,0.104,0.16
	c0.167,0.373,0.431,0.568,0.771,0.535c0.424-0.035,0.474-0.203,0.383-0.498c-0.057-0.187-0.014-0.244,0.182-0.258
	c0.354-0.021,0.671,0.1,0.959,0.303c0.081,0.053,0.152,0.104,0.225,0.168c0.278,0.236,0.592,0.408,0.943,0.5
	c0.449,0.117,0.691,0.426,0.813,0.854c0.146,0.514,0.138,1.023-0.012,1.535c-0.13,0.449-0.432,0.703-0.889,0.779
	c-0.945,0.148-2.059-0.459-2.464-1.322c-0.274-0.582-0.562-1.16-0.894-1.715c-0.043-0.076-0.097-0.145-0.146-0.221
	C45.482,17.218,45.477,17.221,45.471,17.225"/>
<path fill="#FFFFFF" d="M36.479,14.925c-0.086,0.025-0.106,0.115-0.158,0.179c-0.211,0.256-0.484,0.354-0.809,0.319
	c-0.146-0.016-0.232-0.103-0.277-0.246c-0.141-0.481-0.254-0.972-0.338-1.466c-0.073-0.43,0.021-0.783,0.416-1.063
	c0.402-0.283,0.688-0.7,0.971-1.103c0.009-0.013,0.017-0.028,0.023-0.042c0.271-0.344,0.23-0.535-0.154-0.798
	c-0.137-0.09-0.271-0.189-0.416-0.271c-0.256-0.151-0.391-0.386-0.467-0.659c-0.053-0.199-0.088-0.409-0.119-0.615
	c-0.026-0.215,0.025-0.305,0.232-0.377c0.154-0.057,0.315-0.101,0.473-0.139c0.416-0.107,0.695-0.567,0.666-1.031
	c-0.016-0.224-0.105-0.305-0.344-0.309c-0.312-0.009-0.615-0.041-0.92-0.099c-0.137-0.024-0.213-0.08-0.232-0.23
	c-0.03-0.261-0.098-0.519-0.107-0.785c-0.009-0.197,0.063-0.279,0.255-0.321c0.162-0.035,0.329-0.037,0.493-0.037
	c0.438,0,0.827-0.115,1.167-0.395c0.142-0.115,0.304-0.21,0.424-0.341c0.229-0.247,0.525-0.316,0.841-0.338
	c0.353-0.028,0.713-0.067,1.067-0.008c0.147,0.023,0.294,0.045,0.419,0.139c0.104,0.081,0.23,0.096,0.354,0.131
	c0.26,0.081,0.359,0.202,0.379,0.474c0.01,0.138,0.002,0.277-0.021,0.412c-0.05,0.282-0.131,0.559-0.148,0.845
	c-0.01,0.112-0.063,0.215-0.141,0.3c-0.128,0.136-0.256,0.274-0.398,0.396c-0.141,0.124-0.317,0.127-0.502,0.124
	c-0.228-0.004-0.278,0.036-0.332,0.257c-0.063,0.273-0.112,0.549-0.06,0.834c0.042,0.211,0.103,0.261,0.317,0.257
	c0.097-0.001,0.195-0.018,0.294-0.032c0.36-0.053,0.479,0.059,0.419,0.417c-0.047,0.28-0.107,0.553-0.159,0.83
	c-0.054,0.298-0.103,0.596-0.094,0.905c0.015,0.343-0.132,0.637-0.382,0.847c-0.317,0.268-0.403,0.579-0.396,0.975
	c0.019,0.535-0.104,1.064-0.165,1.596c-0.095,0.832-0.221,1.662-0.267,2.498c-0.026,0.512-0.136,1.02-0.201,1.527
	c-0.056,0.393-0.069,0.787-0.146,1.18c-0.033,0.211-0.109,0.406-0.219,0.588c-0.156,0.273-0.287,0.334-0.601,0.279
	c-0.334-0.062-0.46-0.188-0.532-0.514c-0.201-0.898-0.475-1.769-1.055-2.513c-0.081-0.104-0.038-0.164,0.072-0.188
	c0.116-0.026,0.238-0.037,0.355-0.057c0.146-0.02,0.264-0.078,0.294-0.244c0.138-0.645,0.242-1.285,0.247-1.945
	C36.507,15.018,36.525,14.966,36.479,14.925"/>
<path fill="#FFFFFF" d="M29.455,23.104c-0.02-1.092,0.078-2.1,0.102-3.117c0.019-0.678-0.063-1.338-0.205-2
	c-0.213-0.985-0.42-1.975-0.631-2.961c-0.044-0.207-0.092-0.417-0.137-0.63c-0.083-0.399-0.293-0.733-0.564-1.032
	c-0.151-0.166-0.223-0.357-0.222-0.586c0.009-0.78,0.072-1.554,0.231-2.316c0.029-0.138,0.063-0.27,0.125-0.396
	c0.113-0.219,0.227-0.241,0.388-0.054c0.108,0.13,0.21,0.268,0.308,0.409c0.311,0.443,0.577,0.917,0.93,1.328
	c0.248,0.29,0.512,0.567,0.813,0.798c0.118,0.09,0.178,0.213,0.213,0.348c0.152,0.59,0.233,1.188,0.155,1.801
	c-0.008,0.063-0.017,0.123-0.036,0.179c-0.373,1.097-0.311,2.226-0.283,3.356c0.012,0.406,0.154,0.775,0.276,1.152
	c0.12,0.373,0.323,0.418,0.634,0.176c0.818-0.635,1.434-1.447,1.989-2.309c0.295-0.461,0.575-0.926,0.868-1.389
	c0.098-0.154,0.213-0.301,0.359-0.406c0.164-0.117,0.278-0.068,0.317,0.135c0.038,0.209,0.019,0.418-0.022,0.623
	c-0.139,0.717-0.394,1.4-0.636,2.088c-0.321,0.904-0.794,1.721-1.347,2.498c-0.251,0.352-0.443,0.73-0.497,1.176
	c-0.033,0.279-0.194,0.527-0.34,0.767c-0.229,0.385-0.509,0.733-0.806,1.071c-0.332,0.379-0.738,0.578-1.239,0.584
	c-0.063,0-0.12,0.011-0.185,0.021c-0.354,0.043-0.552-0.115-0.563-0.472C29.445,23.636,29.455,23.333,29.455,23.104"/>
<path fill="#FFFFFF" d="M1.707,22.8c0.053-0.598,0.093-1.213,0.117-1.832c0.025-0.577,0.057-1.155-0.009-1.731
	c-0.109-0.93-0.227-1.855-0.286-2.791c-0.038-0.604-0.113-1.209-0.328-1.784C1.079,14.333,0.9,14.03,0.723,13.735
	c-0.246-0.41-0.338-0.856-0.37-1.324c-0.045-0.623-0.109-1.242-0.302-1.84c-0.053-0.164-0.076-0.335-0.023-0.506
	c0.051-0.17,0.113-0.203,0.274-0.134c0.372,0.164,0.756,0.238,1.161,0.134c0.23-0.059,0.435-0.187,0.64-0.301
	C2.201,9.711,2.299,9.69,2.396,9.776c0.095,0.086,0.126,0.19,0.084,0.314c-0.028,0.095-0.081,0.18-0.139,0.26
	c-0.118,0.167-0.262,0.312-0.407,0.459c-0.266,0.271-0.432,0.589-0.384,0.98c0.081,0.643,0.327,1.198,0.901,1.564
	c0.239,0.156,0.484,0.31,0.673,0.533c0.169,0.197,0.228,0.427,0.202,0.691c-0.05,0.478-0.096,0.964-0.116,1.45
	c-0.028,0.646-0.055,1.298,0.027,1.945c0.034,0.267,0.076,0.523,0.19,0.769c0.133,0.293,0.234,0.596,0.411,0.862
	c0.163,0.248,0.336,0.279,0.564,0.09c0.342-0.293,0.569-0.68,0.789-1.061c0.639-1.102,1.27-2.209,1.911-3.311
	c0.041-0.074,0.083-0.223,0.173-0.187c0.099,0.041,0.006,0.169-0.013,0.253c-0.122,0.5-0.221,1.008-0.184,1.521
	c0.031,0.418-0.057,0.801-0.249,1.161c-0.671,1.246-1.151,2.58-1.826,3.822c-0.335,0.617-0.68,1.234-1.133,1.781
	c-0.028,0.033-0.058,0.068-0.087,0.102c-0.275,0.32-0.591,0.521-1.042,0.396c-0.467-0.127-0.794-0.396-0.951-0.854
	C1.734,23.159,1.716,22.989,1.707,22.8"/>
<path fill="#FFFFFF" d="M21.144,21.544c-0.316-0.071-0.572,0.076-0.828,0.197c-0.596,0.286-1.162,0.635-1.737,0.961
	c-0.713,0.399-1.484,0.584-2.293,0.629c-0.192,0.012-0.385,0.024-0.577,0c-0.072-0.008-0.156-0.004-0.183-0.082
	c-0.029-0.092,0.049-0.144,0.113-0.181c0.137-0.082,0.275-0.17,0.424-0.225c0.346-0.133,0.646-0.33,0.916-0.582
	c0.812-0.758,1.529-1.59,2.034-2.59c0.126-0.248,0.135-0.492,0.004-0.742c-0.177-0.34-0.407-0.645-0.654-0.934
	c-0.094-0.113-0.1-0.215-0.047-0.332c0.151-0.336,0.438-0.469,0.779-0.504c0.286-0.027,0.547-0.004,0.77,0.236
	c0.166,0.182,0.417,0.268,0.646,0.362c0.371,0.154,0.625,0.423,0.808,0.771c0.371,0.71,0.565,1.472,0.649,2.265
	c0.035,0.342-0.171,0.615-0.506,0.699C21.353,21.52,21.244,21.525,21.144,21.544"/>
<path fill="#FFFFFF" d="M7.374,7.78c0,0.863-0.565,1.309-1.289,1.198c-0.254-0.039-0.5-0.106-0.729-0.206
	C4.808,8.526,4.238,8.558,3.664,8.607c-0.109,0.011-0.22,0.009-0.329,0.025C2.978,8.685,2.739,8.493,2.519,8.254
	c-0.073-0.081-0.063-0.146,0-0.235c0.175-0.233,0.442-0.322,0.683-0.453C3.288,7.52,3.383,7.483,3.468,7.432
	c0.278-0.156,0.303-0.215,0.247-0.533C3.624,6.376,3.268,6.047,2.751,6.012C2.526,5.994,2.483,5.931,2.608,5.74
	C2.883,5.309,3.267,5.005,3.79,4.99C4.321,4.973,4.855,5.03,5.329,5.3c0.648,0.367,1.285,0.757,1.663,1.444
	C7.201,7.127,7.366,7.518,7.374,7.78"/>
<path fill="#FFFFFF" d="M16.851,17.234c-0.14-0.004-0.312-0.018-0.473-0.084c-0.143-0.057-0.175-0.168-0.068-0.246
	c0.446-0.329,0.687-0.813,0.951-1.272c0.383-0.676,0.71-1.371,0.962-2.103c0.076-0.213,0.081-0.428,0.043-0.646
	c-0.069-0.407-0.167-0.802-0.294-1.188c-0.041-0.126-0.006-0.192,0.101-0.255c0.414-0.246,0.829-0.179,1.234,0.002
	c0.404,0.18,0.691,0.506,0.952,0.852c0.413,0.544,0.709,1.148,0.854,1.825c0.081,0.365-0.104,0.569-0.335,0.719
	c-0.303,0.195-0.65,0.305-1,0.375c-0.264,0.049-0.467,0.186-0.659,0.354c-0.438,0.39-0.848,0.808-1.23,1.25
	C17.614,17.136,17.276,17.229,16.851,17.234"/>
<path fill="#FFFFFF" d="M32.223,5.471c0.316-0.031,0.604,0.085,0.863,0.256c0.793,0.516,1.465,1.152,1.902,2.003
	c0.214,0.408,0.139,0.842-0.176,1.165c-0.149,0.153-0.33,0.229-0.563,0.192c-0.708-0.121-1.422-0.149-2.141-0.076
	c-0.752,0.076-1.473-0.08-2.174-0.331c-0.018-0.005-0.031-0.012-0.047-0.022c-0.061-0.033-0.144-0.055-0.135-0.146
	c0.014-0.081,0.094-0.081,0.155-0.099c0.542-0.156,1.009-0.444,1.416-0.827c0.229-0.211,0.202-0.42-0.062-0.595
	c-0.142-0.093-0.293-0.172-0.451-0.242c-0.276-0.122-0.479-0.314-0.56-0.613c-0.037-0.141-0.006-0.22,0.155-0.26
	c0.423-0.103,0.837-0.235,1.26-0.35C31.85,5.478,32.025,5.455,32.223,5.471"/>
<path fill="#FFFFFF" d="M19.85,3.874C20.081,3.87,20.339,4,20.615,4.058c0.14,0.031,0.203,0.189,0.188,0.382
	c-0.03,0.352-0.15,0.677-0.28,0.999c-0.232,0.584-0.438,1.179-0.707,1.748C19.489,7.873,19,8.339,18.228,8.468
	c-0.139,0.023-0.273,0.032-0.412,0.019c-0.185-0.023-0.257-0.138-0.203-0.312c0.08-0.263,0.234-0.485,0.37-0.718
	c0.135-0.228,0.272-0.453,0.409-0.684c0.101-0.174,0.115-0.364,0.096-0.56c-0.021-0.192-0.149-0.315-0.297-0.418
	C17.873,5.572,17.725,5.23,17.559,4.9c-0.031-0.065-0.011-0.117,0.049-0.154c0.554-0.364,1.114-0.72,1.78-0.851
	C19.517,3.87,19.656,3.861,19.85,3.874"/>
<path fill="#FFFFFF" d="M7.479,28.995H7.314c-0.27-0.002-0.315-0.058-0.27-0.324c0.01-0.062,0.031-0.104,0.098-0.112
	c0.201-0.023,0.112-0.187,0.12-0.285c0.008-0.133-0.103-0.104-0.181-0.105c-0.049-0.004-0.096-0.002-0.146-0.002
	c-0.25,0.002-0.288,0.047-0.248,0.289c0.008,0.049,0.027,0.08,0.073,0.098c0.134,0.049,0.204,0.293,0.126,0.402
	c-0.032,0.039-0.078,0.039-0.118,0.039c-0.195,0-0.387-0.004-0.579,0c-0.107,0.004-0.156-0.039-0.146-0.145
	c0.013-0.119-0.064-0.279,0.146-0.312c0.059-0.006,0.054-0.076,0.054-0.123c0-0.313,0-0.631,0-0.947
	c0-0.055-0.002-0.104-0.069-0.131c-0.116-0.051-0.181-0.293-0.114-0.397c0.032-0.051,0.083-0.045,0.132-0.045
	c0.189-0.004,0.375,0,0.562-0.004c0.088,0,0.162,0.021,0.15,0.125c-0.01,0.108,0.077,0.268-0.098,0.311
	c-0.196,0.047-0.108,0.188-0.116,0.291c-0.009,0.131,0.104,0.1,0.18,0.104c0.05,0.004,0.098,0.002,0.148,0.002
	c0.253-0.002,0.276-0.024,0.249-0.271c-0.006-0.063-0.027-0.104-0.092-0.113c-0.211-0.037-0.117-0.205-0.126-0.319
	c-0.009-0.134,0.099-0.121,0.187-0.121c0.176,0,0.353,0.004,0.529-0.002c0.106,0,0.155,0.045,0.144,0.146
	c-0.014,0.121,0.065,0.278-0.144,0.31c-0.059,0.01-0.054,0.075-0.054,0.125c0,0.313,0,0.631,0,0.944
	c0,0.058,0.003,0.103,0.069,0.136c0.113,0.047,0.179,0.295,0.112,0.397c-0.027,0.043-0.073,0.043-0.116,0.043
	C7.678,28.995,7.578,28.993,7.479,28.995L7.479,28.995z"/>
<path fill="#FFFFFF" d="M11.077,28.993h-0.578c-0.076,0-0.158-0.007-0.148-0.107c0.011-0.104-0.077-0.262,0.075-0.315
	c0.099-0.037,0.124-0.09,0.122-0.187c-0.001-0.297-0.001-0.592,0-0.891c0-0.086-0.017-0.138-0.112-0.17
	c-0.169-0.062-0.073-0.216-0.083-0.33c-0.01-0.104,0.081-0.101,0.152-0.101c0.385-0.002,0.772,0,1.158-0.004
	c0.111,0,0.166,0.039,0.157,0.156c-0.004,0.07-0.001,0.141-0.001,0.215c0,0.27-0.08,0.334-0.347,0.27
	c-0.04-0.008-0.066-0.024-0.083-0.065c-0.058-0.121-0.212-0.182-0.329-0.123c-0.118,0.063-0.053,0.177-0.063,0.271
	c-0.008,0.072,0.035,0.104,0.11,0.104c0.018,0,0.031,0,0.05,0.002c0.254,0.013,0.321,0.104,0.257,0.354
	c-0.032,0.139-0.146,0.088-0.231,0.092c-0.109,0.004-0.192,0.004-0.19,0.15c0.002,0.225,0.082,0.293,0.305,0.231
	c0.033-0.012,0.063-0.021,0.076-0.057c0.019-0.056,0.01-0.136,0.092-0.138c0.098-0.006,0.198-0.002,0.296,0.006
	c0.036,0,0.052,0.035,0.055,0.072c0.004,0.027,0.005,0.055,0.005,0.082c-0.009,0.576,0.081,0.467-0.46,0.479
	C11.264,28.995,11.169,28.995,11.077,28.993L11.077,28.993z"/>
<path fill="#FFFFFF" d="M30.949,26.893c0.195,0.002,0.396,0.002,0.596,0c0.1-0.002,0.143,0.039,0.139,0.139
	c-0.002,0.078,0,0.154,0,0.232c0,0.268-0.082,0.336-0.35,0.268c-0.043-0.008-0.068-0.025-0.084-0.066
	c-0.059-0.117-0.216-0.182-0.331-0.121c-0.114,0.063-0.049,0.178-0.062,0.271c-0.01,0.074,0.035,0.104,0.111,0.104
	c0.016,0,0.031,0,0.049,0.002c0.254,0.01,0.32,0.105,0.258,0.354c-0.034,0.141-0.148,0.088-0.233,0.09
	c-0.108,0.004-0.19,0.008-0.19,0.149c0.004,0.229,0.084,0.3,0.307,0.234c0.033-0.014,0.063-0.023,0.076-0.059
	c0.02-0.055,0.012-0.135,0.094-0.137c0.1-0.004,0.195,0.002,0.297,0.008c0.027,0,0.045,0.027,0.055,0.057
	c0.004,0.016,0.004,0.031,0.004,0.047c0.063,0.51,0.049,0.529-0.459,0.529c-0.281,0-0.563,0-0.845-0.002
	c-0.077,0-0.173,0.008-0.162-0.109c0.013-0.107-0.081-0.266,0.091-0.324c0.09-0.024,0.104-0.078,0.104-0.154c0-0.311,0-0.616,0-0.93
	c0-0.055,0-0.104-0.063-0.137c-0.123-0.057-0.188-0.281-0.123-0.395c0.033-0.062,0.094-0.051,0.146-0.051
	C30.564,26.891,30.758,26.893,30.949,26.893"/>
<path fill="#FFFFFF" d="M2.781,26.893c0.229,0,0.462,0.004,0.694-0.002c0.113-0.002,0.162,0.047,0.157,0.155
	c-0.002,0.063,0,0.123,0,0.185c0,0.324-0.001,0.324-0.32,0.309c-0.083-0.008-0.136-0.029-0.148-0.121
	c-0.005-0.045-0.032-0.082-0.087-0.078c-0.056,0.006-0.07,0.049-0.07,0.098c-0.001,0.336-0.001,0.677,0,1.011
	c0,0.049,0.019,0.081,0.068,0.104c0.116,0.054,0.18,0.294,0.113,0.396c-0.027,0.047-0.072,0.047-0.116,0.047
	c-0.197,0-0.396-0.002-0.595,0.002c-0.102,0-0.139-0.047-0.138-0.142c0.005-0.139-0.055-0.305,0.176-0.315
	c0.05-0.002,0.049-0.067,0.049-0.11c0.001-0.316,0.001-0.64,0-0.962c0-0.055,0.001-0.114-0.077-0.125
	c-0.067-0.01-0.094,0.027-0.115,0.089c-0.055,0.194-0.22,0.088-0.334,0.1c-0.114,0.016-0.105-0.088-0.104-0.166
	c0.006-0.566-0.078-0.461,0.448-0.471C2.515,26.891,2.648,26.893,2.781,26.893"/>
<path fill="#FFFFFF" d="M14.96,19.288c-0.719-0.25-1.452-0.474-2.215-0.142c-0.079,0.031-0.121,0.008-0.127-0.071
	c-0.007-0.082,0.001-0.177,0.087-0.214c0.276-0.133,0.477-0.354,0.7-0.551c0.253-0.219,0.481-0.483,0.784-0.635
	c0.37-0.182,0.466-0.475,0.437-0.842c-0.031-0.41-0.113-0.813-0.103-1.221c0.002-0.141-0.08-0.205-0.221-0.213
	c-0.217-0.008-0.429,0.008-0.631,0.09c-0.134,0.057-0.271,0.096-0.413,0.127c-0.143,0.033-0.174-0.059-0.199-0.154
	c-0.027-0.111-0.045-0.248,0.097-0.273c0.183-0.035,0.262-0.16,0.316-0.307c0.158-0.423,0.229-0.865,0.185-1.316
	c-0.013-0.16-0.061-0.316-0.224-0.396c-0.052-0.027-0.059-0.08-0.072-0.127c-0.112-0.388-0.032-0.536,0.351-0.652
	c0.023-0.007,0.041-0.017,0.063-0.021c0.15-0.024,0.23-0.122,0.276-0.253c0.058-0.156,0.064-0.312,0.022-0.472
	c-0.043-0.153-0.121-0.3-0.144-0.457c-0.048-0.306-0.257-0.404-0.515-0.456c-0.405-0.085-0.809-0.051-1.216-0.01
	c-0.435,0.046-0.807,0.213-1.132,0.5c-0.244,0.214-0.49,0.429-0.732,0.644c-0.425,0.376-0.892,0.688-1.437,0.867
	c-0.266,0.086-0.39-0.006-0.385-0.289c0.003-0.178,0.046-0.35,0.081-0.522c0.046-0.229,0.177-0.371,0.395-0.443
	c0.177-0.061,0.357-0.119,0.515-0.224c0.435-0.283,0.88-0.545,1.337-0.789c0.672-0.359,1.267-0.842,1.931-1.219
	c0.609-0.341,1.199-0.725,1.88-0.927c0.089-0.028,0.153-0.082,0.206-0.158c0.188-0.264,0.315-0.557,0.369-0.876
	c0.057-0.345-0.145-0.703-0.46-0.836c-0.11-0.05-0.222-0.065-0.336-0.018c-0.287,0.115-0.581,0.204-0.88,0.285
	c-0.338,0.09-0.657,0.229-0.947,0.423c-0.15,0.104-0.305,0.201-0.456,0.303c-0.08,0.051-0.125,0.027-0.139-0.06
	c-0.01-0.061-0.014-0.122-0.017-0.182c-0.018-0.419,0.021-0.838,0.055-1.255c0.009-0.129,0.071-0.165,0.19-0.17
	c0.489-0.03,0.98-0.061,1.462-0.157c0.686-0.138,1.474-0.685,1.24-1.759c-0.09-0.413-0.247-0.539-0.672-0.494
	c-0.474,0.048-0.953,0.093-1.431,0.138c-0.233,0.022-0.287-0.028-0.326-0.265c-0.056-0.325-0.008-0.65,0.029-0.969
	c0.037-0.323,0.128-0.639,0.191-0.958c0.087-0.441-0.021-0.833-0.324-1.165c-0.171-0.193-0.308-0.194-0.495-0.023
	c-0.102,0.094-0.195,0.195-0.283,0.303c-0.237,0.287-0.495,0.546-0.872,0.649c-0.09,0.024-0.171,0.08-0.239,0.143
	c-0.055,0.049-0.112,0.118-0.082,0.19c0.11,0.25,0.078,0.55,0.258,0.777c0.096,0.123,0.13,0.264,0.125,0.417
	c-0.013,0.336-0.11,0.651-0.177,0.976c-0.027,0.14-0.147,0.233-0.267,0.304c-0.147,0.086-0.304,0.132-0.475,0.163
	C9.565,4.108,9.229,4.09,8.94,4.09H8.595c-0.403,0-0.393-0.018-0.22,0.384c0.219,0.498,0.587,0.92,0.792,1.422
	C9.236,6.062,9.355,6.09,9.561,6.034c0.276-0.081,0.554-0.145,0.844-0.138c0.31,0.015,0.433,0.14,0.445,0.456
	c0.017,0.446,0.027,0.895,0.065,1.337c0.026,0.288-0.019,0.523-0.287,0.677c-0.081,0.047-0.145,0.121-0.214,0.185
	C9.853,9.075,9.189,9.453,8.562,9.882c-0.399,0.274-0.822,0.528-1.284,0.68c-0.655,0.211-1.343,0.256-2.029,0.226
	c-0.36-0.016-0.716-0.027-1.074-0.016c-0.262,0.01-0.531,0.013-0.786,0.095c-0.086,0.027-0.181,0.062-0.123,0.184
	c0.216,0.448,0.403,0.91,0.738,1.29c0.202,0.224,0.438,0.36,0.755,0.323C5.53,12.564,6.274,12.38,7,12.103
	c0.218-0.083,0.41-0.216,0.626-0.304c0.062-0.026,0.133-0.058,0.127,0.065c-0.027,0.688-0.057,1.378-0.082,2.067
	c-0.004,0.117-0.046,0.219-0.131,0.291c-0.168,0.142-0.188,0.306-0.123,0.509c0.254,0.78,0.487,1.567,0.685,2.365
	c0.122,0.497,0.279,0.985,0.311,1.506c0.018,0.287,0.065,0.567,0.173,0.842c0.045,0.119,0.125,0.188,0.238,0.229
	c0.305,0.115,0.598,0.037,0.838-0.225c0.188-0.203,0.375-0.404,0.565-0.604c0.031-0.031,0.071-0.084,0.124-0.061
	c0.053,0.029,0.027,0.09,0.025,0.139c-0.027,0.305-0.066,0.613-0.083,0.92c-0.007,0.146-0.056,0.195-0.207,0.205
	c-0.478,0.027-0.96,0.021-1.432,0.115c-0.129,0.029-0.255,0.063-0.371,0.135c-0.459,0.273-0.84,0.639-1.214,1.016
	c-0.259,0.263-0.339,0.558-0.226,0.91c0.037,0.118,0.063,0.245,0.098,0.364c0.11,0.388,0.24,0.769,0.321,1.166
	c0.117,0.56,0.645,0.896,1.16,0.875c0.411-0.019,0.826-0.017,1.236-0.073c0.447-0.063,0.808-0.248,0.997-0.688
	c0.06-0.142,0.156-0.257,0.265-0.359c0.501-0.467,1.037-0.896,1.623-1.252c0.455-0.272,0.981-0.412,1.445-0.682
	c0.069-0.039,0.149-0.035,0.225-0.021c0.104,0.029,0.196,0.01,0.283-0.047c0.248-0.158,0.419-0.385,0.505-0.656
	c0.087-0.276,0.191-0.553,0.283-0.83C15.396,19.659,15.316,19.413,14.96,19.288 M11.165,13.55l-0.947,0.836
	c-0.221,0.225-0.432,0.458-0.668,0.664c-0.054,0.048-0.114,0.125-0.2,0.082c-0.077-0.039-0.042-0.129-0.049-0.193
	c-0.002-0.275,0.076-0.515,0.271-0.722c0.245-0.261,0.475-0.535,0.712-0.808c0.216-0.246,0.507-0.293,0.812-0.299
	c0.096-0.002,0.159,0.065,0.173,0.166C11.285,13.388,11.277,13.5,11.165,13.55"/>
<path fill="#FFFFFF" d="M35.936,28.583c-0.174-0.063-0.207-0.201-0.293-0.313c-0.076-0.104-0.086-0.188,0.008-0.305
	c0.166-0.203,0.188-0.443,0.072-0.686c-0.117-0.244-0.316-0.377-0.594-0.387c-0.137-0.004-0.271,0-0.413,0
	c-0.138,0-0.272-0.004-0.411,0c-0.07,0.004-0.184-0.023-0.177,0.088c0.009,0.123-0.104,0.291,0.104,0.352
	c0.076,0.023,0.086,0.07,0.086,0.135c0,0.314,0,0.633,0,0.947c0,0.045,0.007,0.117-0.053,0.125
	c-0.222,0.033-0.135,0.203-0.146,0.326c-0.013,0.088,0.032,0.133,0.125,0.131c0.206-0.002,0.407,0,0.612,0
	c0.039,0,0.076-0.004,0.104-0.039c0.081-0.109,0.011-0.354-0.124-0.404c-0.05-0.02-0.074-0.047-0.072-0.098
	c0.002-0.066-0.031-0.162,0.062-0.182c0.104-0.027,0.239-0.06,0.31,0.033c0.051,0.065,0.225,0.151,0.028,0.282
	c-0.095,0.063-0.05,0.222-0.03,0.332c0.021,0.104,0.123,0.07,0.194,0.072c0.166,0.006,0.332,0.004,0.499,0
	c0.063,0,0.146,0.019,0.152-0.078C35.984,28.798,36.048,28.622,35.936,28.583 M34.999,27.796c-0.065-0.017-0.179,0.039-0.216-0.051
	c-0.049-0.111-0.028-0.24-0.012-0.356c0-0.005,0.004-0.013,0.008-0.017c0.137-0.07,0.277-0.054,0.412-0.017
	c0.104,0.027,0.154,0.121,0.143,0.234C35.32,27.729,35.214,27.792,34.999,27.796"/>
<path fill="#FFFFFF" d="M27.807,27.493c-0.031-0.336-0.313-0.593-0.658-0.601c-0.133-0.004-0.266-0.002-0.397-0.002
	c-0.153,0-0.308-0.002-0.462,0.002c-0.049,0-0.102-0.006-0.133,0.047c-0.066,0.105-0.023,0.347,0.093,0.396
	c0.065,0.027,0.049,0.078,0.049,0.133v0.945c0,0.041,0.026,0.105-0.021,0.117c-0.221,0.035-0.139,0.201-0.146,0.334
	c-0.007,0.088,0.042,0.131,0.135,0.129c0.185,0,0.366,0,0.547,0.002c0.09,0,0.197,0.01,0.189-0.123
	c-0.011-0.117,0.083-0.283-0.126-0.32c-0.114-0.021-0.086-0.109-0.089-0.182c-0.002-0.086,0.052-0.113,0.129-0.113
	c0.126,0,0.253,0,0.376-0.031C27.62,28.143,27.838,27.833,27.807,27.493 M27.18,27.784c-0.099,0.014-0.197,0.008-0.298,0.008
	c-0.065-0.002-0.097-0.043-0.097-0.104c-0.002-0.041-0.002-0.076-0.002-0.115c0-0.236,0-0.236,0.279-0.234
	c0.013,0.002,0.067-0.002,0.119,0.012c0.113,0.031,0.18,0.113,0.174,0.23C27.354,27.684,27.289,27.768,27.18,27.784"/>
<path fill="#FFFFFF" d="M19.227,27.493c-0.033-0.336-0.313-0.593-0.658-0.601c-0.134-0.004-0.265-0.002-0.396-0.002
	c-0.156,0-0.31-0.002-0.464,0.002c-0.049,0-0.102-0.006-0.132,0.047c-0.066,0.105,0,0.347,0.114,0.396
	c0.067,0.027,0.068,0.078,0.068,0.133c0,0.316,0,0.631,0,0.945c0,0.041,0.006,0.105-0.04,0.117c-0.22,0.035-0.149,0.201-0.158,0.334
	c-0.006,0.088,0.04,0.131,0.13,0.129c0.181,0,0.363,0,0.547,0.002c0.086,0,0.194,0.01,0.185-0.123
	c-0.009-0.117,0.083-0.283-0.126-0.32c-0.116-0.021-0.087-0.109-0.09-0.182c-0.003-0.086,0.051-0.113,0.128-0.113
	c0.126,0,0.251,0,0.376-0.031C19.042,28.143,19.26,27.833,19.227,27.493 M18.602,27.784c-0.097,0.014-0.197,0.008-0.295,0.008
	c-0.067-0.002-0.098-0.043-0.098-0.104c0-0.041-0.001-0.076-0.001-0.115c0-0.236,0-0.236,0.28-0.234
	c0.013,0.002,0.07-0.002,0.122,0.012c0.112,0.031,0.178,0.113,0.172,0.23C18.775,27.684,18.714,27.768,18.602,27.784"/>
<path fill="#FFFFFF" d="M23.559,28.548c-0.083-0.014-0.094-0.086-0.112-0.146c-0.105-0.352-0.201-0.7-0.313-1.047
	c-0.183-0.563-0.021-0.442-0.625-0.467c-0.139-0.004-0.194,0.057-0.229,0.182c-0.124,0.435-0.257,0.865-0.388,1.3
	c-0.018,0.062-0.022,0.157-0.089,0.166c-0.216,0.024-0.161,0.185-0.167,0.312c-0.008,0.116,0.05,0.153,0.159,0.151
	c0.17-0.008,0.341,0,0.512-0.004c0.081-0.002,0.193,0.021,0.188-0.104c-0.002-0.111,0.085-0.27-0.1-0.338
	c-0.039-0.018-0.077-0.025-0.068-0.078c0.009-0.051,0.026-0.104,0.085-0.104c0.169-0.004,0.34-0.004,0.511,0.004
	c0.052,0,0.071,0.049,0.081,0.092c0.008,0.037,0.001,0.07-0.039,0.082c-0.228,0.051-0.124,0.23-0.118,0.352
	c0.006,0.148,0.153,0.082,0.239,0.095c0.059,0.008,0.122,0.002,0.183,0.002c0.071,0,0.143,0.006,0.216-0.002
	c0.083-0.009,0.22,0.043,0.213-0.104C23.687,28.77,23.798,28.583,23.559,28.548 M22.787,27.907c-0.073,0.03-0.151,0.026-0.225,0.004
	c-0.057-0.019-0.049-0.068-0.036-0.111c0.04-0.131,0.081-0.258,0.12-0.393c0.014,0,0.028,0.004,0.04,0.004
	c0.04,0.133,0.08,0.262,0.12,0.394C22.815,27.839,22.833,27.886,22.787,27.907"/>
</svg>
