<?xml version="1.0" encoding="utf-8"?>
<!-- Generator: Adobe Illustrator 16.0.0, SVG Export Plug-In . SVG Version: 6.00 Build 0)  -->
<!DOCTYPE svg PUBLIC "-//W3C//DTD SVG 1.1//EN" "http://www.w3.org/Graphics/SVG/1.1/DTD/svg11.dtd">
<svg version="1.1" id="图层_1" xmlns="http://www.w3.org/2000/svg" xmlns:xlink="http://www.w3.org/1999/xlink" x="0px" y="0px"
	 width="25px" height="25px" viewBox="0 0 25 25" enable-background="new 0 0 25 25" xml:space="preserve">
<polygon fill="#FFFFFF" points="3.582,11.235 3.533,11.092 3.494,10.903 3.471,10.799 3.471,10.668 3.471,10.515 3.471,10.368 
	3.517,10.205 3.56,10.025 3.621,9.839 3.704,9.633 3.82,9.417 3.975,9.195 3.975,9.05 3.987,8.908 4.009,8.712 4.085,8.5 
	4.141,8.264 4.188,8.159 4.246,8.057 4.314,7.944 4.402,7.865 4.402,7.712 4.402,7.541 4.402,7.329 4.442,7.057 4.485,6.737 
	4.57,6.353 4.686,5.959 4.765,5.739 4.854,5.498 4.944,5.278 5.054,5.042 5.167,4.78 5.29,4.533 5.44,4.273 5.618,4.014 
	5.703,3.867 5.791,3.746 5.986,3.471 6.186,3.198 6.414,2.91 6.658,2.637 6.921,2.368 7.195,2.085 7.529,1.79 7.744,1.604 8,1.408 
	8.262,1.237 8.549,1.066 8.821,0.92 9.124,0.793 9.453,0.646 9.774,0.542 10.104,0.435 10.449,0.32 10.8,0.244 11.166,0.175 
	11.541,0.118 11.904,0.07 12.274,0.02 12.666,0 13.039,0 13.422,0 13.816,0 14.203,0.044 14.593,0.093 14.986,0.132 15.355,0.219 
	15.738,0.298 16.099,0.391 16.504,0.496 16.855,0.622 17.214,0.767 17.588,0.92 17.928,1.088 18.247,1.272 18.589,1.478 
	18.857,1.665 18.979,1.774 19.131,1.848 19.383,2.068 19.606,2.275 19.82,2.493 20.029,2.73 20.205,2.959 20.414,3.198 
	20.559,3.445 20.703,3.677 20.859,3.94 20.986,4.167 21.201,4.655 21.314,4.908 21.396,5.146 21.48,5.397 21.559,5.63 21.611,5.839 
	21.678,6.079 21.794,6.509 21.869,6.883 21.922,7.248 21.963,7.541 22.031,7.988 22.046,8.057 22.109,8.144 22.238,8.371 
	22.331,8.525 22.416,8.688 22.52,8.865 22.617,9.072 22.673,9.281 22.744,9.521 22.793,9.758 22.812,9.883 22.833,10.025 
	22.833,10.151 22.812,10.277 22.812,10.429 22.771,10.586 22.707,10.884 22.624,11.03 22.568,11.195 22.568,11.235 22.598,11.288 
	22.673,11.409 23.008,11.904 23.281,12.274 23.413,12.526 23.592,12.797 23.74,13.092 23.916,13.409 24.082,13.768 24.288,14.169 
	24.397,14.424 24.502,14.665 24.583,14.919 24.668,15.146 24.736,15.389 24.803,15.609 24.893,16.049 24.955,16.512 25,16.911 
	25,17.132 25,17.304 25,17.475 24.968,17.68 24.925,18.021 24.863,18.331 24.766,18.613 24.736,18.731 24.668,18.867 24.617,18.965 
	24.551,19.082 24.473,19.15 24.397,19.255 24.324,19.332 24.245,19.395 24.154,19.438 24.064,19.479 24.001,19.499 23.936,19.499 
	23.887,19.499 23.824,19.479 23.691,19.425 23.629,19.377 23.574,19.332 23.502,19.277 23.438,19.206 23.33,19.082 23.188,18.906 
	23.086,18.731 22.988,18.587 22.876,18.418 22.731,18.122 22.568,17.813 22.549,17.802 22.52,17.802 22.451,17.852 22.416,17.93 
	22.354,18.033 22.238,18.331 22.08,18.76 21.865,19.277 21.702,19.533 21.533,19.793 21.33,20.095 21.12,20.392 21.006,20.523 
	20.88,20.671 20.566,20.957 20.598,20.987 20.645,21.036 20.791,21.12 21.426,21.412 21.702,21.572 21.963,21.72 22.227,21.899 
	22.451,22.092 22.568,22.184 22.656,22.275 22.744,22.396 22.812,22.52 22.85,22.617 22.896,22.751 22.917,22.861 22.939,22.988 
	22.917,23.069 22.917,23.154 22.896,23.246 22.85,23.331 22.833,23.389 22.793,23.47 22.673,23.623 22.568,23.746 22.481,23.844 
	22.416,23.901 22.238,24.029 22.046,24.131 21.836,24.234 21.611,24.336 21.357,24.433 21.23,24.479 21.104,24.514 20.811,24.57 
	20.506,24.642 20.205,24.703 19.881,24.756 19.539,24.766 19.188,24.811 18.833,24.811 18.474,24.811 18.101,24.811 17.71,24.795 
	17.344,24.756 16.953,24.703 16.562,24.666 16.156,24.605 15.757,24.514 15.365,24.433 14.986,24.326 14.593,24.187 14.203,24.074 
	13.997,24.014 13.816,23.942 13.702,23.901 13.582,23.877 13.445,23.877 13.265,23.877 12.896,23.852 12.713,23.844 12.47,23.806 
	12.311,23.942 12.09,24.074 11.812,24.21 11.492,24.385 11.299,24.479 11.099,24.551 10.652,24.729 10.411,24.795 10.153,24.854 
	9.8,24.919 9.575,24.942 9.348,24.959 9.102,24.991 8.821,25 8.549,25 8.262,25 7.659,25 7.002,24.991 6.371,24.919 6.05,24.88 
	5.737,24.833 5.44,24.795 5.13,24.729 4.854,24.642 4.57,24.57 4.314,24.479 4.085,24.385 3.854,24.276 3.666,24.163 3.471,24.029 
	3.402,23.965 3.318,23.877 3.255,23.806 3.194,23.73 3.145,23.648 3.096,23.563 3.032,23.389 3.008,23.301 2.986,23.203 
	2.986,23.105 3.008,23.007 3.008,22.898 3.032,22.793 3.032,22.728 3.032,22.587 3.048,22.478 3.096,22.354 3.145,22.232 
	3.215,22.073 3.271,22.012 3.318,21.941 3.435,21.8 3.533,21.723 3.621,21.674 3.704,21.604 3.836,21.572 3.948,21.501 
	4.085,21.438 4.229,21.394 4.379,21.345 4.557,21.31 4.721,21.288 4.919,21.265 5.13,21.248 5.189,21.23 5.205,21.23 5.229,21.201 
	5.229,21.182 5.189,21.134 5.077,21.085 4.79,20.84 4.601,20.693 4.379,20.498 4.155,20.288 3.926,20.014 3.666,19.717 3.56,19.541 
	3.433,19.377 3.318,19.18 3.215,18.965 3.077,18.76 2.986,18.522 2.881,18.293 2.774,18.033 2.7,17.783 2.622,17.475 2.598,17.466 
	2.58,17.466 2.567,17.441 2.54,17.441 2.493,17.466 2.475,17.475 2.438,17.525 2.429,17.594 2.407,17.646 2.364,17.734 
	2.234,17.969 2.165,18.101 2.062,18.229 1.95,18.367 1.822,18.522 1.692,18.662 1.537,18.807 1.39,18.931 1.231,19.028 
	1.061,19.143 0.894,19.206 0.692,19.255 0.497,19.277 0.484,19.277 0.457,19.277 0.408,19.255 0.375,19.18 0.316,19.143 
	0.247,18.965 0.195,18.867 0.151,18.731 0.103,18.587 0.085,18.441 0.026,18.122 0,17.93 0,17.734 0,17.304 0.026,16.846 
	0.062,16.607 0.103,16.362 0.151,16.099 0.222,15.853 0.306,15.574 0.389,15.293 0.497,15.015 0.607,14.741 0.752,14.461 
	0.894,14.169 1.061,13.896 1.25,13.594 1.46,13.325 1.665,13.019 1.839,12.812 2.062,12.57 2.299,12.333 2.407,12.215 2.54,12.087 
	2.73,11.921 2.929,11.751 3.255,11.472 3.494,11.299 "/>
</svg>
