<?xml version="1.0" encoding="utf-8"?>
<!-- Generator: Adobe Illustrator 16.0.0, SVG Export Plug-In . SVG Version: 6.00 Build 0)  -->
<!DOCTYPE svg PUBLIC "-//W3C//DTD SVG 1.1//EN" "http://www.w3.org/Graphics/SVG/1.1/DTD/svg11.dtd">
<svg version="1.1" id="图层_1" xmlns="http://www.w3.org/2000/svg" xmlns:xlink="http://www.w3.org/1999/xlink" x="0px" y="0px"
	 width="60px" height="60px" viewBox="31.125 31.125 60 60" enable-background="new 31.125 31.125 60 60" xml:space="preserve">
<circle fill="#FC8F00" stroke="#A54300" stroke-width="5" stroke-miterlimit="10" cx="61.126" cy="61.125" r="27.246"/>
<g>
	<g>
		<g>
			<g>
				<g>
					<path fill="#FFFFFF" d="M68.328,62.092c-1.164-0.227-0.602-0.852-0.602-0.852s1.146-1.877-0.221-3.244
						c-1.693-1.693-5.806,0.217-5.806,0.217c-1.565,0.486-1.15-0.225-0.932-1.431c0-1.422-0.483-3.831-4.665-2.409
						c-4.181,1.433-7.766,6.439-7.766,6.439c-2.495,3.334-2.167,5.901-2.167,5.901c0.625,5.683,6.659,7.24,11.351,7.61
						c4.94,0.387,11.604-1.703,13.628-5.995C73.167,64.026,69.493,62.326,68.328,62.092z M57.888,72.724
						c-4.901,0.228-8.863-2.231-8.863-5.502c0-3.276,3.962-5.905,8.863-6.129c4.909-0.227,8.878,1.796,8.878,5.063
						C66.767,69.428,62.797,72.495,57.888,72.724z"/>
				</g>
			</g>
			<g>
				<g>
					<path fill="#FFFFFF" d="M56.91,63.248c-4.926,0.575-4.361,5.199-4.361,5.199s-0.049,1.461,1.323,2.208
						c2.887,1.561,5.854,0.614,7.357-1.325C62.732,67.393,61.851,62.678,56.91,63.248z M55.668,69.73
						c-0.918,0.11-1.662-0.419-1.662-1.192c0-0.765,0.659-1.568,1.579-1.666c1.056-0.101,1.75,0.511,1.75,1.281
						C57.334,68.92,56.586,69.625,55.668,69.73z M58.574,67.256c-0.313,0.232-0.692,0.2-0.86-0.078
						c-0.169-0.275-0.105-0.71,0.21-0.941c0.363-0.27,0.744-0.193,0.909,0.08C58.999,66.597,58.879,67.018,58.574,67.256z"/>
				</g>
			</g>
			<g>
				<path fill="#FFFFFF" d="M70.728,60.093c0.399,0,0.735-0.294,0.795-0.679c0.003-0.029,0.011-0.051,0.011-0.084
					c0.604-5.415-4.438-4.483-4.438-4.483c-0.448,0-0.808,0.362-0.808,0.815c0,0.444,0.359,0.806,0.808,0.806
					c3.621-0.798,2.82,2.82,2.82,2.82C69.917,59.733,70.278,60.093,70.728,60.093z"/>
			</g>
			<g>
				<path fill="#FFFFFF" d="M70.144,50.642c-1.744-0.405-3.536-0.054-4.036,0.042c-0.04,0.002-0.078,0.038-0.114,0.044
					c-0.012,0.005-0.027,0.024-0.027,0.024c-0.492,0.139-0.855,0.597-0.855,1.141c0,0.644,0.521,1.175,1.175,1.175
					c0,0,0.633-0.087,1.067-0.253c0.425-0.173,4.032-0.127,5.828,2.882c0.974,2.196,0.426,3.667,0.358,3.9
					c0,0-0.23,0.575-0.23,1.134c0,0.652,0.519,1.055,1.168,1.055c0.545,0,0.996-0.072,1.131-0.986h0.007
					C77.539,54.385,73.261,51.37,70.144,50.642z"/>
			</g>
		</g>
	</g>
</g>
</svg>
