<?xml version="1.0" encoding="utf-8"?>
<!-- Generator: Adobe Illustrator 16.0.0, SVG Export Plug-In . SVG Version: 6.00 Build 0)  -->
<!DOCTYPE svg PUBLIC "-//W3C//DTD SVG 1.1//EN" "http://www.w3.org/Graphics/SVG/1.1/DTD/svg11.dtd">
<svg version="1.1" id="图层_1" xmlns="http://www.w3.org/2000/svg" xmlns:xlink="http://www.w3.org/1999/xlink" x="0px" y="0px"
	 width="60px" height="60px" viewBox="31.125 31.125 60 60" enable-background="new 31.125 31.125 60 60" xml:space="preserve">
<circle fill="#488356" stroke="#33601E" stroke-width="5" stroke-miterlimit="10" cx="61.055" cy="60.994" r="27.299"/>
<g>
	<g>
		<g>
			<g>
				<path fill="#FFFFFF" d="M68.135,56.551c0.391,0,0.772,0.029,1.155,0.072c-1.036-4.832-6.199-8.418-12.094-8.418
					c-6.592,0-11.988,4.489-11.988,10.196c0,3.29,1.796,5.993,4.798,8.091l-1.2,3.609l4.189-2.103
					c1.501,0.295,2.703,0.601,4.201,0.601c0.375,0,0.75-0.019,1.119-0.047c-0.233-0.803-0.369-1.641-0.369-2.509
					C57.946,60.802,62.441,56.551,68.135,56.551z M61.691,53.3c0.901,0,1.499,0.598,1.499,1.5c0,0.897-0.598,1.499-1.499,1.499
					c-0.9,0-1.802-0.602-1.802-1.499C59.89,53.897,60.791,53.3,61.691,53.3z M53.303,56.298c-0.901,0-1.81-0.602-1.81-1.499
					c0-0.902,0.909-1.5,1.81-1.5c0.896,0,1.494,0.598,1.494,1.5C54.796,55.696,54.199,56.298,53.303,56.298z"/>
				<path fill="#FFFFFF" d="M79.077,65.897c0-4.795-4.793-8.704-10.182-8.704c-5.705,0-10.197,3.909-10.197,8.704
					c0,4.801,4.492,8.698,10.197,8.698c1.194,0,2.398-0.302,3.597-0.601l3.287,1.802l-0.901-2.996
					C77.285,70.992,79.077,68.599,79.077,65.897z M65.587,64.394c-0.595,0-1.197-0.59-1.197-1.198c0-0.597,0.602-1.197,1.197-1.197
					c0.909,0,1.503,0.599,1.503,1.197C67.09,63.804,66.496,64.394,65.587,64.394z M72.183,64.394c-0.592,0-1.19-0.59-1.19-1.198
					c0-0.597,0.599-1.197,1.19-1.197c0.898,0,1.499,0.599,1.499,1.197C73.682,63.804,73.081,64.394,72.183,64.394z"/>
			</g>
		</g>
	</g>
</g>
</svg>
