<?xml version="1.0" encoding="utf-8"?>
<!-- Generator: Adobe Illustrator 17.1.0, SVG Export Plug-In . SVG Version: 6.00 Build 0)  -->
<!DOCTYPE svg PUBLIC "-//W3C//DTD SVG 1.1//EN" "http://www.w3.org/Graphics/SVG/1.1/DTD/svg11.dtd">
<svg version="1.1" id="图层_1" xmlns="http://www.w3.org/2000/svg" xmlns:xlink="http://www.w3.org/1999/xlink" x="0px" y="0px"
	 viewBox="0 0 405.1 405.3" enable-background="new 0 0 405.1 405.3" xml:space="preserve">
<g id="XMLID_2_">
	<g>
		<path fill="#7C272D" d="M55.9,104c-6.4,9.5-12,19.7-16.5,30.5L18,125.6c5.1-12.1,11.3-23.7,18.6-34.5L55.9,104z"/>
		<path fill="#7C272D" d="M231.6,56.7c-9.2-1.8-18.7-2.8-28.4-2.8V26c11.6,0,22.9,1.2,33.8,3.4L231.6,56.7z"/>
		<path fill="#7C272D" d="M350,300.5l19.2,12.9c-7.3,10.9-15.6,21.1-24.8,30.4l-16.4-16.4C336.3,319.2,343.6,310.2,350,300.5z"/>
		<path fill="#488356" d="M126.8,17.8l8.8,21.3c-10.8,4.4-21,9.8-30.6,16.2L92.2,36.1C103,28.9,114.6,22.7,126.8,17.8L126.8,17.8z"
			/>
		<path fill="#7C272D" d="M105,55.3c9.6-6.4,19.8-11.8,30.6-16.2l10.7,25.7c-9.1,3.7-17.7,8.3-25.8,13.6L105,55.3z"/>
		<path fill="#7C272D" d="M104.2,349.8L91.4,369l0,0.1c-10.9-7.3-21.1-15.7-30.3-25l16.4-16.4C85.5,336,94.5,343.4,104.2,349.8z"/>
		<path fill="#7C272D" d="M97.7,97c7-6.9,14.6-13.1,22.8-18.5"/>
		<path fill="#7C272D" d="M300.7,55.7c9.6,6.4,18.6,13.8,26.8,21.9l-19.7,19.7c-6.9-6.9-14.4-13.1-22.5-18.5L300.7,55.7z"/>
		<path fill="#7C272D" d="M398.9,241.1c-2.5,13-6.3,25.6-11.2,37.6l-0.4-0.1l-21-8.7c4.4-10.6,7.7-21.7,9.9-33.3L398.9,241.1z"/>
		<path fill="#7C272D" d="M38.9,270c4.4,10.8,9.9,21.1,16.3,30.7l-19,12.7l-0.2,0.1c-7.2-10.9-13.4-22.5-18.4-34.7l0.2-0.1L38.9,270
			z"/>
		<path fill="#7C272D" d="M203.2,351.9c-0.2,0-0.4,0-0.7,0c-9.9,0-19.7-1-29.1-2.8"/>
		<path fill="#488356" d="M77.4,327.8c-8.3-8.3-15.7-17.4-22.2-27.1l23.2-15.5c5.5,8.3,11.7,15.9,18.7,22.9L77.4,327.8z"/>
		<path fill="#7C272D" d="M398.6,163.2c2.5,12.6,3.9,25.7,3.9,39h-23.1c0-11.8-1.2-23.3-3.5-34.5L398.6,163.2z"/>
		<path fill="#165668" d="M237.1,29.4c-10.9-2.2-22.3-3.3-33.8-3.4V2.9c13.1,0,25.9,1.3,38.4,3.8L237.1,29.4z"/>
		<path fill="#C15A19" d="M168.8,29.2c-11.5,2.2-22.6,5.6-33.2,9.9l-8.8-21.3l0-0.1c12-4.9,24.5-8.7,37.5-11.2L168.8,29.2z"/>
		<path fill="#C15A19" d="M120.5,78.5c-8.2,5.4-15.9,11.6-22.8,18.5L78,77.3c8.2-8.2,17.3-15.6,27-22L120.5,78.5z"/>
		<path fill="#7C272D" d="M173.5,349c-9.7-1.9-19.1-4.8-28-8.5"/>
		<path fill="#7C272D" d="M55.2,300.6c6.5,9.8,13.9,18.9,22.2,27.1L61,344.1c-9.3-9.3-17.7-19.6-25.1-30.6l0.2-0.1L55.2,300.6z"/>
		<path fill="#165668" d="M146.3,64.9l-10.7-25.7c10.6-4.3,21.7-7.7,33.2-9.9l5.4,27.3C164.6,58.4,155.2,61.2,146.3,64.9z"/>
		<path fill="#7C272D" d="M366.3,269.9c-4.4,10.8-9.9,21.1-16.3,30.7L326.9,285c5.4-8.1,10-16.8,13.7-25.9L366.3,269.9z"/>
		<path fill="#7C272D" d="M308.4,307.7c-6.8,6.9-14.3,13.1-22.3,18.5"/>
		<path fill="#7C272D" d="M104.2,349.8l15.5-23.2c8.1,5.4,16.7,10.1,25.8,13.9l-10.7,25.7C124,361.8,113.8,356.3,104.2,349.8z"/>
		<path fill="#7C272D" d="M53.6,202.2c0-10,1.1-19.7,3-29.2"/>
		<path fill="#7C272D" d="M260.4,340.2c-8.9,3.8-18.3,6.7-28,8.6"/>
		<path fill="#CD3C46" d="M368.5,91.3c7.3,10.8,13.5,22.3,18.6,34.5l-21.4,8.9c-4.5-10.7-10-20.9-16.5-30.5L368.5,91.3z"/>
		<path fill="#7C272D" d="M120.5,78.5c8.1-5.3,16.7-9.9,25.8-13.6"/>
		<path fill="#7C272D" d="M300.7,55.7c-9.6-6.4-19.8-11.9-30.5-16.3l8.9-21.4c12.2,5,23.7,11.2,34.5,18.5L300.7,55.7z"/>
		<path fill="#7C272D" d="M64.6,259.3c-3.7-8.9-6.5-18.3-8.4-28"/>
		<path fill="#7C272D" d="M78.3,285.2c-5.4-8.1-10-16.7-13.7-25.8"/>
		<path fill="#488356" d="M39.4,134.5c4.5-10.7,10-20.9,16.5-30.5l23.2,15.5c-5.4,8-10.1,16.6-13.9,25.7L39.4,134.5z"/>
		<path fill="#CD3C46" d="M92.2,36.1L105,55.3c-9.7,6.4-18.8,13.8-27,22L61.6,61C71,51.7,81.2,43.4,92.2,36.1z"/>
		<path fill="#C15A19" d="M271,366l-10.7-25.7c9.1-3.8,17.7-8.5,25.7-14l15.5,23.2C292,355.9,281.8,361.5,271,366z"/>
		<path fill="#7C272D" d="M146.3,64.9c8.9-3.6,18.3-6.4,27.9-8.3"/>
		<path fill="#165668" d="M53.6,202.2H25.7c0-11.9,1.2-23.4,3.5-34.6l27.3,5.4C54.7,182.4,53.6,192.2,53.6,202.2z"/>
		<path fill="#7C272D" d="M368.5,91.3l-19.2,12.9c-6.4-9.5-13.7-18.4-21.8-26.5l16.4-16.4C353,70.4,361.3,80.5,368.5,91.3z"/>
		<path fill="#7C272D" d="M174.2,56.6c9.2-1.8,18.6-2.7,28.3-2.7c0.2,0,0.4,0,0.7,0"/>
		<path fill="#165668" d="M29,236.7c2.2,11.5,5.6,22.6,9.9,33.3l-21.2,8.8l-0.2,0.1c-4.9-12-8.7-24.6-11.3-37.6l0.1,0L29,236.7z"/>
		<path fill="#7C272D" d="M203.2,53.9c9.7,0,19.2,1,28.4,2.8"/>
		<path fill="#7C272D" d="M270.2,39.4l-10.7,25.7c-8.9-3.7-18.2-6.5-27.9-8.4l5.4-27.3C248.6,31.6,259.6,35,270.2,39.4z"/>
		<path fill="#7C272D" d="M79.1,119.5L55.9,104c6.5-9.6,13.9-18.5,22.1-26.7L97.7,97C90.8,103.9,84.6,111.4,79.1,119.5z"/>
		<path fill="#7C272D" d="M286.1,326.3c-8,5.5-16.7,10.2-25.7,14"/>
		<path fill="#7C272D" d="M163.6,398.9l4.5-22.5c11.2,2.2,22.7,3.4,34.5,3.4c0.2,0,0.4,0,0.7,0v23.1c-0.2,0-0.4,0-0.7,0
			c-13.4,0-26.4-1.3-39-3.8L163.6,398.9z"/>
		<path fill="#7C272D" d="M340.6,259.2c-3.7,9.1-8.3,17.8-13.7,25.9"/>
		<path fill="#7C272D" d="M145.5,340.5c-9.1-3.8-17.7-8.4-25.8-13.9"/>
		<path fill="#7C272D" d="M119.7,326.7c-8.1-5.5-15.7-11.7-22.6-18.6"/>
		<path fill="#7C272D" d="M326.9,285c-5.4,8.2-11.6,15.8-18.5,22.7"/>
		<path fill="#7C272D" d="M56.3,231.3c-1.8-9.2-2.7-18.7-2.7-28.4c0-0.2,0-0.5,0-0.7"/>
		<path fill="#7C272D" d="M351.6,202.2c0,0.2,0,0.4,0,0.7c0,9.7-0.9,19.1-2.7,28.3"/>
		<path fill="#7C272D" d="M259.5,65.2c9.1,3.7,17.6,8.4,25.7,13.7"/>
		<path fill="#C15A19" d="M163.6,399.1c-13-2.6-25.6-6.4-37.6-11.4l0.1-0.1l8.8-21.3c10.6,4.4,21.7,7.8,33.3,10.1l-4.5,22.5
			L163.6,399.1z"/>
		<path fill="#488356" d="M104.2,349.8c9.6,6.4,19.8,12,30.6,16.4l-8.8,21.3l-0.1,0.1c-12.2-5.1-23.8-11.3-34.6-18.6l0-0.1
			L104.2,349.8z"/>
		<path fill="#C15A19" d="M237.8,376.2l4.5,22.7c-12.6,2.6-25.7,3.9-39.1,4v-23.1C215.1,379.7,226.6,378.5,237.8,376.2z"/>
		<path fill="#7C272D" d="M97.1,308.1c-7-7-13.2-14.7-18.7-22.9"/>
		<path fill="#7C272D" d="M39.4,134.5l25.7,10.7c-3.7,8.9-6.6,18.2-8.6,27.9l-27.3-5.4C31.6,156.1,35,145,39.4,134.5z"/>
		<path fill="#CD3C46" d="M313.6,36.5c10.9,7.3,21,15.6,30.3,24.8l-16.4,16.4c-8.2-8.2-17.1-15.5-26.8-21.9L313.6,36.5z"/>
		<path fill="#CD3C46" d="M173.5,349c9.4,1.9,19.1,2.8,29.1,2.8c0.2,0,0.4,0,0.7,0v27.9c-0.2,0-0.4,0-0.7,0
			c-11.8,0-23.3-1.2-34.5-3.4L173.5,349z"/>
		<path fill="#7C272D" d="M232.4,348.9c-9.4,1.9-19.2,2.9-29.1,3"/>
		<path fill="#7C272D" d="M232.4,348.9c9.7-2,19.1-4.9,28-8.6L271,366c-10.6,4.5-21.7,7.9-33.2,10.2L232.4,348.9z"/>
		<path fill="#488356" d="M237.8,376.2c-11.2,2.3-22.7,3.5-34.6,3.5v-27.9c10,0,19.7-1.1,29.1-3L237.8,376.2z"/>
		<path fill="#CD3C46" d="M237.8,376.2c11.5-2.3,22.6-5.8,33.2-10.2l8.9,21.4v0c-12,5-24.5,8.9-37.6,11.5L237.8,376.2z"/>
		<path fill="#CD3C46" d="M375.9,167.7c2.3,11.1,3.5,22.7,3.5,34.5h-27.9c0-9.9-1.1-19.7-3-29.1L375.9,167.7z"/>
		<path fill="#CD3C46" d="M308.4,307.7c6.9-6.9,13.1-14.5,18.5-22.7l23.2,15.5c-6.4,9.7-13.8,18.7-21.9,26.9L308.4,307.7z"/>
		<path fill="#488356" d="M376.2,236.6c-2.2,11.5-5.6,22.7-9.9,33.3l-25.7-10.7c3.7-8.9,6.5-18.3,8.3-28L376.2,236.6z"/>
		<path fill="#488356" d="M285.2,78.9c-8-5.4-16.6-10-25.7-13.7l10.7-25.7c10.7,4.4,21,9.9,30.5,16.3L285.2,78.9z"/>
		<path fill="#C15A19" d="M237.1,29.4l4.5-22.7c13,2.6,25.5,6.4,37.5,11.3l-8.9,21.4C259.6,35,248.6,31.6,237.1,29.4z"/>
		<path fill="#165668" d="M301.6,349.4l12.8,19.2l0,0c-10.8,7.3-22.4,13.6-34.6,18.7v0L271,366C281.8,361.5,292,355.9,301.6,349.4z"
			/>
		<path fill="#488356" d="M387.7,278.7c-5,12.2-11.2,23.8-18.4,34.7L350,300.5c6.4-9.6,11.8-19.9,16.3-30.7l21,8.7L387.7,278.7z"/>
		<path fill="#7C272D" d="M387.1,125.7c5,11.9,8.9,24.5,11.5,37.5l-22.7,4.5c-2.3-11.5-5.7-22.6-10.2-33.1L387.1,125.7z"/>
		<path fill="#165668" d="M61.6,61L78,77.3c-8.2,8.1-15.6,17.1-22.1,26.7L36.7,91.1C44,80.3,52.4,70.2,61.6,61z"/>
		<path fill="#7C272D" d="M56.3,231.3c1.9,9.7,4.7,19.1,8.4,28L38.9,270c-4.4-10.6-7.7-21.7-9.9-33.3L56.3,231.3z"/>
		<path fill="#488356" d="M301.6,349.4c9.5-6.5,18.4-13.8,26.5-22l16.4,16.4c-9.1,9.2-19.2,17.6-30,24.9l0,0L301.6,349.4z"/>
		<path fill="#7C272D" d="M231.6,56.7c9.7,1.9,19,4.8,27.9,8.4"/>
		<path fill="#488356" d="M174.2,56.6l-5.4-27.3c10.9-2.1,22.2-3.2,33.8-3.2c0.2,0,0.4,0,0.7,0v27.9c-0.2,0-0.4,0-0.7,0
			C192.9,53.9,183.4,54.8,174.2,56.6z"/>
		<path fill="#C15A19" d="M365.8,134.6c4.4,10.6,7.9,21.6,10.2,33.1l-27.3,5.4c-2-9.7-4.8-19-8.6-27.9L365.8,134.6z"/>
		<path fill="#488356" d="M18,125.6l21.4,8.9c-4.4,10.6-7.9,21.6-10.2,33.1l-22.7-4.5C9.2,150.1,13,137.5,18,125.6z"/>
		<path fill="#7C272D" d="M56.6,173c2-9.7,4.9-19,8.6-27.9"/>
		<path fill="#7C272D" d="M53.6,202.9c0,9.7,0.9,19.2,2.7,28.4L29,236.7c-2.1-11-3.2-22.3-3.2-33.9c0-0.2,0-0.4,0-0.7h27.9
			C53.6,202.4,53.6,202.6,53.6,202.9z"/>
		<path fill="#7C272D" d="M308.4,307.7l19.7,19.7c-8.1,8.2-17,15.5-26.5,22l-15.5-23.2C294.1,320.8,301.6,314.6,308.4,307.7z"/>
		<path fill="#7C272D" d="M348.6,173.1c1.9,9.4,2.9,19.1,3,29.1"/>
		<path fill="#7C272D" d="M29.2,167.6c-2.3,11.2-3.5,22.8-3.5,34.6H2.6c0-13.4,1.4-26.5,4-39.1L29.2,167.6z"/>
		<path fill="#7C272D" d="M202.6,26c-11.5,0-22.8,1.1-33.8,3.2l-4.5-22.7c12.4-2.4,25.2-3.7,38.3-3.7c0.2,0,0.4,0,0.7,0V26
			C203,26,202.8,26,202.6,26z"/>
		<path fill="#7C272D" d="M340,145.2c-3.8-9-8.5-17.6-13.9-25.7l23.2-15.5c6.4,9.5,12,19.7,16.5,30.5L340,145.2z"/>
		<path fill="#CD3C46" d="M29,236.7l-22.6,4.5l-0.1,0c-2.4-12.4-3.7-25.2-3.7-38.4c0-0.2,0-0.4,0-0.7h23.1c0,0.2,0,0.4,0,0.7
			C25.7,214.4,26.8,225.8,29,236.7z"/>
		<path fill="#7C272D" d="M379.4,202.9c0,11.5-1.1,22.8-3.2,33.7l-27.3-5.4c1.8-9.2,2.7-18.6,2.7-28.3c0-0.2,0-0.4,0-0.7h27.9
			C379.4,202.4,379.4,202.6,379.4,202.9z"/>
		<path fill="#165668" d="M145.5,340.5c8.9,3.7,18.3,6.6,28,8.5l-5.4,27.3c-11.5-2.3-22.7-5.7-33.3-10.1L145.5,340.5z"/>
		<path fill="#7C272D" d="M65.2,145.1c3.8-9,8.5-17.6,13.9-25.7"/>
		<path fill="#7C272D" d="M348.9,231.2c-1.9,9.7-4.7,19.1-8.3,28"/>
		<path fill="#C15A19" d="M104.2,349.8c-9.7-6.5-18.6-13.9-26.8-22.1l19.7-19.7c6.9,6.9,14.5,13.2,22.6,18.6L104.2,349.8z"/>
		<path fill="#7C272D" d="M38.9,270l25.7-10.7c3.7,9.1,8.3,17.7,13.7,25.8l-23.2,15.5C48.8,291,43.3,280.8,38.9,270z"/>
		<path fill="#C15A19" d="M326.1,119.6c-5.4-8-11.6-15.4-18.4-22.2l19.7-19.7c8.1,8.1,15.4,16.9,21.8,26.5L326.1,119.6z"/>
		<path fill="#7C272D" d="M79.1,119.5c5.5-8.1,11.7-15.6,18.6-22.4"/>
		<path fill="#165668" d="M402.6,202.9c0,13.1-1.3,25.9-3.7,38.2l-22.7-4.5c2.1-10.9,3.2-22.2,3.2-33.7c0-0.2,0-0.4,0-0.7h23.1
			C402.6,202.4,402.6,202.6,402.6,202.9z"/>
	</g>
	<g>
		<path fill="none" stroke="#BA553E" stroke-width="4" stroke-miterlimit="10" d="M402.6,202.2c0,0.2,0,0.4,0,0.7
			c0,13.1-1.3,25.9-3.7,38.2c-2.5,13-6.3,25.6-11.2,37.6c-5,12.2-11.2,23.8-18.4,34.7c-7.3,10.9-15.6,21.1-24.8,30.4
			c-9.1,9.2-19.2,17.6-30,24.9c-10.8,7.3-22.4,13.6-34.6,18.7c-12,5-24.5,8.9-37.6,11.5c-12.6,2.6-25.7,3.9-39.1,4
			c-0.2,0-0.4,0-0.7,0c-13.4,0-26.4-1.3-39-3.8c-13-2.6-25.6-6.4-37.6-11.4c-12.2-5.1-23.8-11.3-34.6-18.6
			c-10.9-7.3-21.1-15.7-30.3-25c-9.3-9.3-17.7-19.6-25.1-30.6c-7.2-10.9-13.4-22.5-18.4-34.7c-4.9-12-8.7-24.6-11.3-37.6
			c-2.4-12.4-3.7-25.2-3.7-38.4c0-0.2,0-0.4,0-0.7c0-13.4,1.4-26.5,4-39.1c2.6-13,6.5-25.5,11.5-37.5c5.1-12.1,11.3-23.7,18.6-34.5
			c7.3-10.9,15.7-21,25-30.2c9.3-9.3,19.5-17.6,30.5-24.9c10.8-7.2,22.4-13.4,34.6-18.4c12-4.9,24.5-8.7,37.5-11.2
			c12.4-2.4,25.2-3.7,38.3-3.7c0.2,0,0.4,0,0.7,0c13.1,0,25.9,1.3,38.4,3.8c13,2.6,25.5,6.4,37.5,11.3c12.2,5,23.7,11.2,34.5,18.5
			c10.9,7.3,21,15.6,30.3,24.8c9.2,9.1,17.5,19.2,24.7,30c7.3,10.8,13.5,22.3,18.6,34.5c5,11.9,8.9,24.5,11.5,37.5
			C401.2,175.8,402.5,188.8,402.6,202.2z"/>
		<path fill="none" stroke="#BA553E" stroke-width="4" stroke-miterlimit="10" d="M379.4,202.2c0,0.2,0,0.4,0,0.7
			c0,11.5-1.1,22.8-3.2,33.7c-2.2,11.5-5.6,22.7-9.9,33.3c-4.4,10.8-9.9,21.1-16.3,30.7c-6.4,9.7-13.8,18.7-21.9,26.9
			c-8.1,8.2-17,15.5-26.5,22c-9.6,6.5-19.8,12-30.6,16.6c-10.6,4.5-21.7,7.9-33.2,10.2c-11.2,2.3-22.7,3.5-34.6,3.5
			c-0.2,0-0.4,0-0.7,0c-11.8,0-23.3-1.2-34.5-3.4c-11.5-2.3-22.7-5.7-33.3-10.1c-10.8-4.5-21-10-30.6-16.4
			c-9.7-6.5-18.6-13.9-26.8-22.1c-8.3-8.3-15.7-17.4-22.2-27.1c-6.4-9.6-11.9-19.9-16.3-30.7c-4.4-10.6-7.7-21.7-9.9-33.3
			c-2.1-11-3.2-22.3-3.2-33.9c0-0.2,0-0.4,0-0.7c0-11.9,1.2-23.4,3.5-34.6c2.3-11.5,5.8-22.6,10.2-33.1c4.5-10.7,10-20.9,16.5-30.5
			c6.5-9.6,13.9-18.5,22.1-26.7c8.2-8.2,17.3-15.6,27-22c9.6-6.4,19.8-11.8,30.6-16.2c10.6-4.3,21.7-7.7,33.2-9.9
			c10.9-2.1,22.2-3.2,33.8-3.2c0.2,0,0.4,0,0.7,0c11.6,0,22.9,1.2,33.8,3.4c11.5,2.3,22.6,5.6,33.1,10c10.7,4.4,21,9.9,30.5,16.3
			c9.6,6.4,18.6,13.8,26.8,21.9c8.1,8.1,15.4,16.9,21.8,26.5c6.4,9.5,12,19.7,16.5,30.5c4.4,10.6,7.9,21.6,10.2,33.1
			C378.2,178.9,379.4,190.4,379.4,202.2z"/>
		<polyline fill="none" stroke="#FFFFFF" stroke-miterlimit="10" points="53.6,202.2 25.7,202.2 2.6,202.2 2.6,202.2 		"/>
		<polyline fill="none" stroke="#FFFFFF" stroke-miterlimit="10" points="402.6,202.2 402.6,202.2 379.4,202.2 351.6,202.2 		"/>
		<line fill="none" stroke="#BA553E" stroke-width="4" stroke-miterlimit="10" x1="29" y1="236.7" x2="6.4" y2="241.2"/>
		<line fill="none" stroke="#FFFFFF" stroke-miterlimit="10" x1="56.3" y1="231.3" x2="6.4" y2="241.2"/>
		<polyline fill="none" stroke="#FFFFFF" stroke-miterlimit="10" points="398.7,163.2 398.6,163.2 375.9,167.7 348.6,173.1 		"/>
		<polyline fill="none" stroke="#FFFFFF" stroke-miterlimit="10" points="348.9,231.2 376.2,236.6 398.9,241.1 		"/>
		<polyline fill="none" stroke="#FFFFFF" stroke-miterlimit="10" points="6.4,163 6.5,163.1 29.2,167.6 56.6,173 		"/>
		<polyline fill="none" stroke="#FFFFFF" stroke-miterlimit="10" points="97.1,308.1 77.4,327.8 61,344.1 61,344.1 		"/>
		<polyline fill="none" stroke="#FFFFFF" stroke-miterlimit="10" points="343.8,61.3 343.8,61.3 327.5,77.7 307.8,97.4 		"/>
		<polyline fill="none" stroke="#FFFFFF" stroke-miterlimit="10" points="308.4,307.7 328.1,327.4 344.5,343.8 344.5,343.8 		"/>
		<polyline fill="none" stroke="#FFFFFF" stroke-miterlimit="10" points="61.6,61 61.6,61 78,77.3 97.7,97 		"/>
		<polyline fill="none" stroke="#FFFFFF" stroke-miterlimit="10" points="203.2,351.9 203.2,379.7 203.2,402.9 203.2,402.9 		"/>
		<polyline fill="none" stroke="#FFFFFF" stroke-miterlimit="10" points="203.2,2.9 203.2,2.9 203.2,26 203.2,53.9 		"/>
		<polyline fill="none" stroke="#FFFFFF" stroke-miterlimit="10" points="145.5,340.5 134.8,366.3 126,387.5 		"/>
		<polyline fill="none" stroke="#FFFFFF" stroke-miterlimit="10" points="279.1,18 279.1,18 270.2,39.4 259.5,65.2 		"/>
		<polyline fill="none" stroke="#FFFFFF" stroke-miterlimit="10" points="340.6,259.2 366.3,269.9 387.3,278.6 		"/>
		<polyline fill="none" stroke="#FFFFFF" stroke-miterlimit="10" points="17.7,125.5 18,125.6 39.4,134.5 65.2,145.1 		"/>
		<polyline fill="none" stroke="#FFFFFF" stroke-miterlimit="10" points="64.6,259.3 38.9,270 17.7,278.7 		"/>
		<polyline fill="none" stroke="#FFFFFF" stroke-miterlimit="10" points="387.3,125.7 387.1,125.7 365.8,134.6 340,145.2 		"/>
		<polyline fill="none" stroke="#FFFFFF" stroke-miterlimit="10" points="260.4,340.2 271,366 279.9,387.4 		"/>
		<polyline fill="none" stroke="#FFFFFF" stroke-miterlimit="10" points="126.8,17.8 135.7,39.1 146.3,64.9 		"/>
		<polyline fill="none" stroke="#FFFFFF" stroke-miterlimit="10" points="119.7,326.7 104.2,349.8 91.4,369 		"/>
		<polyline fill="none" stroke="#FFFFFF" stroke-miterlimit="10" points="313.6,36.4 313.6,36.5 300.7,55.7 285.2,78.9 		"/>
		<polyline fill="none" stroke="#FFFFFF" stroke-miterlimit="10" points="326.9,285 350,300.5 369.3,313.4 		"/>
		<polyline fill="none" stroke="#FFFFFF" stroke-miterlimit="10" points="36.7,91.1 36.7,91.1 55.9,104 79.1,119.5 		"/>
		<polyline fill="none" stroke="#FFFFFF" stroke-miterlimit="10" points="232.4,348.9 237.8,376.2 242.3,398.9 		"/>
		<polyline fill="none" stroke="#FFFFFF" stroke-miterlimit="10" points="164.3,6.5 168.8,29.2 174.2,56.6 		"/>
		<polyline fill="none" stroke="#FFFFFF" stroke-miterlimit="10" points="173.5,349 168.1,376.4 163.6,398.9 		"/>
		<polyline fill="none" stroke="#FFFFFF" stroke-miterlimit="10" points="241.6,6.6 241.6,6.7 237.1,29.4 231.6,56.7 		"/>
		<polyline fill="none" stroke="#FFFFFF" stroke-miterlimit="10" points="78.3,285.2 55.2,300.6 36.2,313.3 		"/>
		<polyline fill="none" stroke="#FFFFFF" stroke-miterlimit="10" points="368.7,91.1 368.5,91.3 349.3,104.1 326.1,119.6 		"/>
		<polyline fill="none" stroke="#FFFFFF" stroke-miterlimit="10" points="286.1,326.3 301.6,349.4 314.4,368.6 		"/>
		<polyline fill="none" stroke="#FFFFFF" stroke-miterlimit="10" points="92.2,36.1 92.2,36.1 105,55.3 120.5,78.5 		"/>
		<path fill="none" stroke="#BA553E" stroke-width="4" stroke-miterlimit="10" d="M351.6,202.2c0,0.2,0,0.4,0,0.7
			c0,9.7-0.9,19.1-2.7,28.3c-1.9,9.7-4.7,19.1-8.3,28c-3.7,9.1-8.3,17.8-13.7,25.9c-5.4,8.2-11.6,15.8-18.5,22.7
			c-6.8,6.9-14.3,13.1-22.3,18.5c-8,5.5-16.7,10.2-25.7,14c-8.9,3.8-18.3,6.7-28,8.6c-9.4,1.9-19.2,2.9-29.1,3c-0.2,0-0.4,0-0.7,0
			c-9.9,0-19.7-1-29.1-2.8c-9.7-1.9-19.1-4.8-28-8.5c-9.1-3.8-17.7-8.4-25.8-13.9c-8.1-5.5-15.7-11.7-22.6-18.6
			c-7-7-13.2-14.7-18.7-22.9c-5.4-8.1-10-16.7-13.7-25.8c-3.7-8.9-6.5-18.3-8.4-28c-1.8-9.2-2.7-18.7-2.7-28.4c0-0.2,0-0.4,0-0.7
			c0-10,1.1-19.7,3-29.2c2-9.7,4.9-19,8.6-27.9c3.8-9,8.5-17.6,13.9-25.7c5.5-8.1,11.7-15.6,18.6-22.4c7-6.9,14.6-13.1,22.8-18.5
			c8.1-5.3,16.7-9.9,25.8-13.6c8.9-3.6,18.3-6.4,27.9-8.3c9.2-1.8,18.6-2.7,28.3-2.7c0.2,0,0.4,0,0.7,0c9.7,0,19.2,1,28.4,2.8
			c9.7,1.9,19,4.8,27.9,8.4c9.1,3.7,17.6,8.4,25.7,13.7c8.1,5.4,15.7,11.6,22.5,18.5c6.8,6.8,13,14.2,18.4,22.2
			c5.4,8,10.1,16.6,13.9,25.7c3.7,8.9,6.6,18.2,8.6,27.9C350.5,182.5,351.5,192.3,351.6,202.2z"/>
	</g>
</g>
<g>
	<path fill="#7C272D" d="M141.6,18.7c-1.4,0.4-1.7,1.4-1.7,1.4c1.4-0.8,1.7-0.2,1.7-0.2l2.6,8.1l1.3-0.4l-2.6-8
		C143,19.5,142.9,18.3,141.6,18.7z"/>
	<path fill="#7C272D" d="M144.9,17.6c-1.4,0.4-2,1.5-2,1.5c1.4-0.8,1.7-0.3,1.7-0.3l2.6,8.1l1.7-0.6l-2.6-8
		C146.5,18.4,146.2,17.2,144.9,17.6z"/>
	<path fill="#7C272D" d="M152.7,25.9c-0.1-0.1-0.2-0.2-0.3-0.2c0.6-2.3,0.7-5.4-0.7-6.8c-0.5-0.5-1-0.9-1.5-0.9l-0.2-0.7
		c0,0-0.1-1.2-1.5-0.8c-1.4,0.4-2.3,1.8-2.3,1.8c1.4-0.8,2-0.5,2-0.5l0.3,0.9c-0.3,0.6-0.6,2-0.1,3.6c0.4,1.3,1.5,2.4,2.5,3.2
		c-0.5,1.8-1.2,3.3-1.2,3.3l1.5-0.4c0.4-0.4,0.7-1.1,1-1.9c1.2,0.7,2.2,1.2,2.2,1.2l0.9-0.3C155.3,27.3,154.8,27.2,152.7,25.9z
		 M149.2,19.1c0.8-0.1,1.4-0.7,2.2,1.8c0.3,1,0.1,2.4-0.2,3.8C148.1,22.2,148.5,19.2,149.2,19.1z"/>
</g>
<g>
	<path fill="#7C272D" d="M395.4,217.6c0-1.5-0.9-2-0.9-2c0.4,1.5-0.2,1.7-0.2,1.7l-8.5,0.3l0.1,1.4l8.4-0.3
		C394.3,218.7,395.4,219,395.4,217.6z"/>
	<path fill="#7C272D" d="M395.6,221.1c0-1.5-0.9-2.3-0.9-2.3c0.4,1.5-0.2,1.7-0.2,1.7l-8.5,0.3l0.1,1.8l8.4-0.3
		C394.4,222.4,395.6,222.4,395.6,221.1z"/>
	<path fill="#7C272D" d="M385.5,226.4c0.1-0.1,0.2-0.2,0.3-0.3c2.1,1.2,5,2.2,6.7,1.2c0.7-0.4,1.1-0.7,1.3-1.2l0.7,0
		c0,0,1.2,0.2,1.1-1.3c0-1.5-1.1-2.7-1.1-2.7c0.4,1.5-0.1,2.1-0.1,2.1l-0.9,0c-0.5-0.4-1.7-1.1-3.4-1.1c-1.4,0.1-2.7,0.7-3.8,1.5
		c-1.6-1-2.8-2-2.8-2l0,1.6c0.3,0.5,0.8,1,1.5,1.5c-1,0.9-1.7,1.8-1.7,1.8l0,1C383.4,228.5,383.6,228.1,385.5,226.4z M393,224.8
		c-0.1,0.8,0.3,1.5-2.3,1.6c-1,0-2.4-0.6-3.6-1.3C390.3,223,393.1,224.2,393,224.8z"/>
</g>
<polygon fill="#7C272D" points="249.9,27 256.9,22.3 258.9,24.9 264.9,19.9 263.7,19.5 267.5,18.7 266,21.2 265.7,20.4 259.1,26.5 
	256.7,24.2 251.2,27.9 "/>
<path fill="#7C272D" d="M227.1,386.2c-0.5-2.4-3.9-2.5-3.9-2.5c2,1,2.3,1.8,2.1,3.1c-0.2,1.3-1.4,2.2-2.1,2.7
	c-0.8-1.1-2-1.7-3.1-1.5c-1.1,0.2-1.9,1.2-2.2,2.5c-0.9-0.2-2.1-0.6-2.7-1.6c-0.7-1.1-0.8-2,0.7-3.7c0,0-3.1,1.4-2.6,3.8
	c0.4,1.9,2.6,2.8,4.5,3.1c0,0.2,0.1,0.5,0.1,0.8c0.5,2.4,2.3,4,4,3.6c1.7-0.4,2.7-2.6,2.3-4.9c0-0.2-0.1-0.4-0.2-0.6
	C225.6,390.1,227.5,388.3,227.1,386.2z"/>
<path fill="#7C272D" d="M193.1,361l-1.6,0.7l-0.6-1.3l-1.3,0.6l0.6,1.3l-3,1.4c-1.1-1.5-3.1-2.1-4.9-1.3c-2,0.9-2.9,3.3-2,5.3
	c0.9,2,3.2,2.8,5.2,1.9c1.8-0.8,2.6-2.8,2.2-4.6l3-1.4l0.7,1.6l1.3-0.6l-0.7-1.6l1.6-0.7L193.1,361z M185.1,368.3
	c-1.1,0.5-2.5,0-3-1.1c-0.5-1.1,0-2.5,1.1-3c1.1-0.5,2.5,0,3,1.1C186.8,366.4,186.2,367.8,185.1,368.3z"/>
<g>
	<path fill="#7C272D" d="M116.2,371.8c-0.4,0.8-1.3,1.1-2,0.7l-2.8-1.3c-0.8-0.4-1.1-1.3-0.7-2l0.3-2.4c0.4-0.8,1.3-1.1,2-0.7l4.2,2
		c0.8,0.4,1.1,1.3,0.7,2L116.2,371.8z"/>
	<path fill="#7C272D" d="M112.8,366.8c0,0,0.9-1.9,1.5-2.1s2.5,0.6,2.7,1.3c0.2,0.7-0.3,2.2-0.3,2.2l-0.3-0.2c0,0,0-1.7,0-1.8
		s-0.5-0.8-1.7-1c-0.6-0.1-1.4,1.7-1.4,1.7L112.8,366.8z"/>
</g>
<g>
	
		<ellipse transform="matrix(-0.8505 -0.5259 0.5259 -0.8505 3.6356 665.4103)" fill="#7C272D" cx="96.4" cy="332.2" rx="3.7" ry="1.1"/>
	<path fill="none" stroke="#7C272D" stroke-miterlimit="10" d="M102.2,331c0,0,1.8,2.1,0.7,3.6c-1.1,1.5-0.9,1.5-0.9,1.5"/>
	<polygon fill="#7C272D" points="92.1,325.1 101,327.1 104.7,333.3 98,330.9 	"/>
	<polygon fill="#7C272D" points="98.3,331.3 94.8,327.9 93.3,330.3 99.6,334.2 100.8,332.2 	"/>
</g>
<g>
	<path fill="#7C272D" d="M280.3,343.8c0.5,0.7,0.5,1.4,0,2.9c0,0,0,0,0,0.1c1.3,0,2,0.2,2.5,0.8c0.9,1.1,0.3,2.8-0.9,3.7
		c-1.3,1-2.5,0.6-3-0.1c-0.5-0.7-0.5-1.2,0.3-3.2c0,0,0-0.1-0.1-0.1c-1-0.1-1.7-0.3-2.1-0.9c-0.4-0.6-0.5-1.3-0.3-2.1
		c0.2-0.6,0.6-1.1,1-1.4C278.6,342.9,279.7,343.1,280.3,343.8z M282.2,348.7c-0.4-0.6-1.1-0.8-2.5-0.8c-0.1,0-0.1,0-0.1,0.1
		c-0.3,0.9-0.5,1.8,0,2.5c0.5,0.7,1.4,0.8,2.2,0.2C282.5,350.2,282.8,349.4,282.2,348.7z M277.6,346.1c0.4,0.6,1.2,0.7,2.2,0.7
		c0,0,0.1,0,0.1-0.1c0.3-1,0.2-1.6-0.2-2.2c-0.5-0.7-1.4-0.8-1.9-0.4C277.1,344.6,277,345.4,277.6,346.1z"/>
</g>
<g>
	<path fill="#7C272D" d="M184.6,38.5c-0.1,0-0.3-0.3-0.3-0.3c0.5-0.7,1.5-1.8,2.9-1.8c1.2,0,2.1,1,2.1,2.2c0,1.4-0.7,2.4-2,3.7
		c-0.9,0.9-1.5,1.4-2.1,2c0,0,0,0.1,0,0.1c0.4,0,2.2,0.1,2.9,0.1c0.3,0,0.6-0.1,1.3-1.2c0.1,0,0.3,0.1,0.4,0.2
		c-0.2,0.5-0.6,1.5-0.9,1.8c-0.1,0.1-0.3,0.2-0.6,0.2c-1,0-2.6,0-3.8,0c-0.3,0-0.8,0-1,0c0,0,0-0.3,0-0.3c1.1-0.9,1.8-1.4,3-2.6
		c1.2-1.3,1.7-2.4,1.7-3.5c0-0.8-0.5-1.6-1.5-1.6C185.9,37.4,185.3,37.8,184.6,38.5z"/>
</g>
<path fill="#7C272D" d="M324.4,58.8c0.6-0.9,0.5-2-0.3-2.8c0.1-0.1,0.3-0.3,0.4-0.4c0.7-1,0.4-2.4-0.6-3.1c-1-0.7-2.4-0.4-3.1,0.6
	c-0.1,0.2-0.2,0.3-0.3,0.5c-0.9-0.4-2.1-0.1-2.6,0.8c-0.7,1-0.4,2.4,0.6,3.1c0.4,0.3,0.8,0.4,1.2,0.4c-0.7,0.6-1.7,1.3-2.5,1.5
	l1.4,1l0,0l1.4,1c-0.1-0.8,0.1-1.9,0.4-2.8c0.2,0.3,0.4,0.6,0.7,0.8C322.3,60.1,323.7,59.8,324.4,58.8z"/>
<g>
	<path fill="#7C272D" d="M97.7,74.5l2.3,6.7l-0.2,0.1l-5.8-4.4c-0.4-0.4-0.8-0.5-1-0.3l-0.2-0.2l2.3-1.6l0.2,0.2
		c-0.5,0.3-0.6,0.6-0.3,0.8c0.1,0.1,0.2,0.3,0.5,0.5c0.1,0.1,0.2,0.1,0.3,0.1l3,2.4l-1.4-3.8c-0.1-0.3-0.2-0.5-0.3-0.7
		c-0.2-0.3-0.5-0.3-0.9,0L96.1,74l4.1-2.8l0.2,0.3c-0.5,0.3-0.6,0.7-0.2,1.1l3.2,4.6c0.3,0.5,0.7,0.6,1.1,0.2l0.2,0.3l-2.4,1.7
		l-0.2-0.3c0.5-0.3,0.5-0.7,0.2-1.1L99,73.4c-0.3-0.5-0.7-0.6-1.1-0.3C97.5,73.5,97.4,73.9,97.7,74.5z"/>
</g>
<g>
	<path fill="#9F272D" stroke="#7C272D" stroke-miterlimit="10" d="M333.4,303.5l-0.1-0.2l-3.6,1.7l-2.9-3.2l-0.1,0.1l-0.3-0.2
		l-2.1,3.6l0.1,0.1l-0.1,0.1l6.2,6.9l0.2-0.2l-2.9-3.3l3.4-1.7l2.9,3.2l0.2-0.2l-2.9-3.2l1.9-3.3l3,3.3l0.2-0.2l-3.1-3.5
		L333.4,303.5z M329.4,305.2l-1.9,3.3l-2.9-3.2l1.9-3.3L329.4,305.2z M328,308.4l1.7-2.9l1.3,1.5L328,308.4z M330,305.3l2.9-1.4
		l-1.6,2.8L330,305.3z"/>
</g>
<g>
	<path fill="#7C272D" d="M333.5,97.8l-4.7,2.1c-0.9-1.3-2.6-1.8-4.1-1.1c-1.7,0.8-2.4,2.8-1.7,4.4c0.8,1.7,2.7,2.4,4.4,1.6
		c1.5-0.7,2.2-2.4,1.9-3.9l4.7-2.1 M327,103.8c-1,0.4-2.1,0-2.5-1s0-2.1,1-2.5c1-0.4,2.1,0,2.5,1S328,103.4,327,103.8z"/>
	<polygon fill="#7C272D" points="330.6,97.1 335,97.9 332.8,101.9 333.1,98.6 	"/>
</g>
<polygon fill="#7C272D" points="15,228.7 10.8,223.1 15,217.5 19.2,223.1 "/>
<g>
	<circle fill="none" stroke="#7C272D" stroke-miterlimit="10" cx="58" cy="128.1" r="4.6"/>
	<circle fill="none" stroke="#7C272D" stroke-miterlimit="10" cx="57.1" cy="129" r="2.3"/>
	<circle fill="none" stroke="#7C272D" stroke-miterlimit="10" cx="64" cy="125" r="1.3"/>
</g>
<path fill="none" stroke="#7C272D" stroke-width="2" stroke-miterlimit="10" d="M370.1,113.8c0,0,2.2-3.4-0.6-4.1
	c-3.1-0.8-3.8,4.4-4.1,6.8c0,0,5.7,2.9,7.6,0.5C374.9,114.6,370.1,113.8,370.1,113.8z"/>
</svg>
