<?xml version="1.0" encoding="utf-8"?>
<!-- Generator: Adobe Illustrator 16.0.0, SVG Export Plug-In . SVG Version: 6.00 Build 0)  -->
<!DOCTYPE svg PUBLIC "-//W3C//DTD SVG 1.1//EN" "http://www.w3.org/Graphics/SVG/1.1/DTD/svg11.dtd">
<svg version="1.1" id="图层_1" xmlns="http://www.w3.org/2000/svg" xmlns:xlink="http://www.w3.org/1999/xlink" x="0px" y="0px"
	 width="51px" height="51px" viewBox="-0.499 -0.5 51 51" enable-background="new -0.499 -0.5 51 51" xml:space="preserve">
<circle fill="#7C272D" cx="25.001" cy="25" r="25"/>
<path fill="#FFFFFF" d="M39.683,27.005c0.006-0.001,0.012-0.003,0.02-0.005c0.033,0.052,0.068,0.104,0.1,0.156
	c0.233,0.389,0.434,0.796,0.627,1.207c0.287,0.605,1.068,1.033,1.732,0.927c0.32-0.051,0.533-0.229,0.624-0.548
	c0.103-0.359,0.11-0.719,0.008-1.078c-0.084-0.3-0.256-0.52-0.571-0.602c-0.25-0.063-0.467-0.185-0.664-0.35
	c-0.05-0.042-0.103-0.081-0.158-0.117c-0.201-0.142-0.424-0.228-0.674-0.211c-0.136,0.01-0.166,0.053-0.125,0.182
	c0.063,0.207,0.03,0.322-0.269,0.351c-0.239,0.022-0.423-0.115-0.541-0.378c-0.019-0.042-0.026-0.1-0.075-0.113
	c-0.088-0.029-0.086-0.095-0.088-0.167c-0.012-0.409,0.053-0.812,0.09-1.216c0.012-0.125,0.062-0.209,0.192-0.241
	c0.083-0.021,0.161-0.056,0.241-0.088c0.314-0.125,0.647-0.216,0.871-0.506c0.142-0.179,0.291-0.354,0.406-0.552
	c0.074-0.123,0.139-0.251,0.164-0.396c0.035-0.202-0.082-0.375-0.283-0.408c-0.143-0.021-0.277,0.02-0.41,0.061
	c-0.16,0.049-0.318,0.104-0.479,0.149c-0.111,0.031-0.165-0.021-0.134-0.126c0.054-0.184,0.124-0.35,0.319-0.447
	c0.262-0.128,0.515-0.282,0.713-0.497c0.285-0.303,0.382-0.694,0.441-1.092c0.022-0.143-0.045-0.213-0.184-0.272
	c-0.186-0.079-0.367-0.167-0.553-0.245c-0.137-0.058-0.271-0.137-0.422-0.108c-0.164,0.032-0.334,0.089-0.449,0.208
	c-0.153,0.161-0.344,0.159-0.532,0.19c-0.086,0.014-0.159-0.022-0.187-0.106c-0.053-0.158-0.02-0.308,0.094-0.433
	c0.09-0.1,0.201-0.058,0.302-0.021c0.168,0.061,0.321,0.035,0.467-0.056c0.194-0.118,0.308-0.296,0.349-0.515
	c0.062-0.335,0.043-0.671-0.039-1.003c-0.053-0.214-0.125-0.26-0.342-0.228c-0.219,0.032-0.438,0.058-0.654,0.101
	c-0.23,0.045-0.424-0.111-0.508-0.256c-0.037-0.064-0.057-0.14-0.013-0.21c0.042-0.065,0.114-0.056,0.181-0.052
	c0.074,0.004,0.146,0.02,0.22,0.016c0.161-0.008,0.308-0.052,0.397-0.202c0.159-0.263,0.289-0.539,0.338-0.847
	c0.039-0.22-0.025-0.387-0.225-0.513c-0.243-0.152-0.509-0.246-0.761-0.374c-0.083-0.041-0.16-0.044-0.246-0.016
	c-0.269,0.088-0.515,0.219-0.763,0.345c-0.381,0.192-0.748,0.409-1.166,0.517c-0.301,0.078-0.574,0.23-0.857,0.354
	c-0.038,0.018-0.073,0.044-0.104,0.075c-0.09,0.089-0.201,0.18-0.153,0.326c0.046,0.139,0.183,0.155,0.305,0.179
	c0.236,0.045,0.472-0.005,0.706-0.015c0.189-0.009,0.379-0.033,0.566,0.01c0.1,0.023,0.146,0.082,0.14,0.183
	c-0.017,0.213-0.084,0.409-0.188,0.594c-0.146,0.264-0.36,0.429-0.653,0.497c-0.128,0.03-0.251,0.077-0.369,0.14
	c-0.165,0.09-0.207,0.174-0.181,0.361c0.027,0.196,0.094,0.383,0.146,0.573c0.066,0.235,0.188,0.337,0.518,0.298
	c0.182-0.021,0.358-0.066,0.535-0.113c0.086-0.023,0.135,0.002,0.15,0.091c0.023,0.145,0.053,0.29,0.03,0.438
	c-0.024,0.163-0.044,0.181-0.206,0.19c-0.19,0.011-0.381,0.013-0.57,0.03c-0.215,0.019-0.434,0.025-0.643,0.095
	c-0.081,0.027-0.131,0.073-0.149,0.158c-0.032,0.156-0.071,0.311-0.108,0.465c-0.146,0.604,0.099,0.993,0.582,1.416
	c0.111,0.097,0.189,0.081,0.295-0.024c0.09-0.091,0.178-0.185,0.262-0.281c0.066-0.077,0.143-0.143,0.225-0.2
	c0.071-0.051,0.155-0.064,0.232-0.029c0.078,0.034,0.062,0.117,0.066,0.185c0.008,0.148-0.011,0.295-0.029,0.44
	c-0.014,0.103-0.053,0.19-0.139,0.259c-0.554,0.451-1.058,0.957-1.601,1.42c-0.187,0.16-0.209,0.333-0.101,0.555
	c0.115,0.236,0.262,0.449,0.443,0.637c0.355,0.367,0.764,0.378,1.139,0.031c0.022-0.021,0.043-0.043,0.066-0.064
	c0.098-0.086,0.189-0.182,0.309-0.244c0.062-0.035,0.125-0.091,0.192-0.055c0.074,0.039,0.041,0.126,0.037,0.191
	c-0.034,0.472-0.017,0.945-0.03,1.418c-0.021,0.623-0.004,1.248-0.01,1.873c-0.005,0.507,0.053,1.006,0.158,1.5
	c0.171,0.799,0.316,1.604,0.334,2.424c0.006,0.256,0.027,0.512,0.078,0.763c0.042,0.208,0.072,0.231,0.279,0.224
	c0.287-0.011,0.569-0.068,0.85-0.133c0.322-0.072,0.339-0.089,0.332-0.418c-0.01-0.521-0.07-1.043-0.072-1.566
	c0-0.282-0.001-0.566-0.009-0.848c-0.017-0.598-0.043-1.192-0.054-1.789c-0.008-0.57-0.008-1.14-0.073-1.707
	C39.72,27.484,39.704,27.245,39.683,27.005z M14.004,17.816c-0.104,0-0.173,0-0.244,0c-0.283,0-0.277-0.03-0.153,0.252
	c0.153,0.349,0.412,0.637,0.557,0.99c0.047,0.117,0.131,0.132,0.277,0.091c0.194-0.056,0.389-0.105,0.594-0.097
	c0.219,0.008,0.304,0.097,0.312,0.317c0.013,0.313,0.021,0.627,0.047,0.939c0.017,0.202-0.013,0.366-0.201,0.476
	c-0.057,0.033-0.102,0.084-0.151,0.128c-0.394,0.367-0.861,0.634-1.301,0.935c-0.282,0.194-0.578,0.373-0.902,0.478
	c-0.461,0.149-0.944,0.181-1.427,0.161c-0.251-0.011-0.503-0.021-0.755-0.011c-0.185,0.007-0.372,0.009-0.552,0.066
	c-0.06,0.02-0.127,0.043-0.086,0.129c0.151,0.314,0.283,0.64,0.518,0.905c0.142,0.158,0.307,0.256,0.532,0.228
	c0.541-0.07,1.065-0.2,1.575-0.394c0.153-0.058,0.288-0.152,0.439-0.213c0.043-0.019,0.093-0.04,0.09,0.045
	c-0.02,0.484-0.04,0.968-0.058,1.452c-0.003,0.082-0.032,0.156-0.093,0.207c-0.118,0.1-0.131,0.215-0.086,0.355
	c0.179,0.55,0.342,1.103,0.482,1.665c0.085,0.348,0.196,0.691,0.218,1.055c0.013,0.201,0.046,0.4,0.121,0.592
	c0.033,0.082,0.089,0.132,0.168,0.164c0.212,0.08,0.419,0.023,0.588-0.158c0.131-0.145,0.264-0.285,0.398-0.426
	c0.022-0.022,0.048-0.062,0.086-0.043c0.038,0.021,0.021,0.063,0.018,0.096c-0.02,0.215-0.047,0.432-0.059,0.646
	c-0.007,0.104-0.041,0.139-0.147,0.146c-0.336,0.018-0.673,0.015-1.005,0.081c-0.093,0.019-0.181,0.044-0.262,0.092
	c-0.323,0.191-0.59,0.45-0.854,0.714c-0.183,0.183-0.239,0.392-0.159,0.638c0.027,0.084,0.044,0.172,0.068,0.258
	c0.077,0.271,0.168,0.539,0.226,0.817c0.083,0.394,0.453,0.63,0.815,0.617c0.289-0.013,0.582-0.011,0.869-0.051
	c0.315-0.046,0.567-0.175,0.701-0.483c0.041-0.097,0.109-0.181,0.186-0.251c0.352-0.33,0.728-0.631,1.14-0.88
	c0.321-0.193,0.689-0.292,1.016-0.479c0.049-0.028,0.105-0.025,0.159-0.01c0.072,0.021,0.137,0.004,0.199-0.037
	c0.174-0.109,0.294-0.269,0.354-0.459c0.062-0.197,0.135-0.39,0.199-0.584c0.085-0.257,0.028-0.428-0.222-0.518
	c-0.506-0.18-1.022-0.334-1.558-0.102c-0.053,0.023-0.083,0.006-0.088-0.049c-0.006-0.061,0-0.123,0.062-0.151
	c0.194-0.091,0.334-0.25,0.492-0.388c0.178-0.153,0.338-0.338,0.549-0.443c0.261-0.129,0.329-0.338,0.309-0.594
	c-0.023-0.287-0.081-0.568-0.072-0.857c0.002-0.098-0.056-0.146-0.155-0.148c-0.152-0.006-0.301,0.002-0.445,0.065
	c-0.092,0.039-0.189,0.065-0.289,0.086c-0.1,0.022-0.124-0.039-0.141-0.108c-0.019-0.078-0.031-0.172,0.07-0.192
	c0.126-0.025,0.184-0.112,0.222-0.216c0.11-0.297,0.161-0.606,0.129-0.923c-0.011-0.113-0.044-0.223-0.16-0.28
	c-0.035-0.018-0.042-0.053-0.051-0.088c-0.079-0.273-0.022-0.377,0.247-0.459c0.014-0.004,0.03-0.01,0.044-0.013
	c0.106-0.016,0.161-0.085,0.194-0.179c0.041-0.109,0.045-0.221,0.015-0.33c-0.03-0.108-0.085-0.211-0.102-0.322
	c-0.032-0.214-0.181-0.28-0.361-0.319c-0.284-0.061-0.569-0.038-0.855-0.006c-0.305,0.033-0.567,0.15-0.795,0.35
	c-0.172,0.152-0.344,0.302-0.515,0.454c-0.299,0.265-0.626,0.484-1.009,0.608c-0.188,0.062-0.274-0.003-0.271-0.201
	c0.002-0.125,0.032-0.247,0.056-0.368c0.033-0.161,0.125-0.261,0.279-0.312c0.125-0.042,0.25-0.083,0.361-0.156
	c0.305-0.2,0.619-0.384,0.94-0.554c0.472-0.252,0.891-0.591,1.357-0.854c0.428-0.243,0.842-0.511,1.32-0.655
	c0.062-0.018,0.108-0.058,0.145-0.11c0.132-0.186,0.22-0.392,0.259-0.617c0.04-0.24-0.103-0.494-0.324-0.589
	c-0.078-0.032-0.156-0.043-0.237-0.011c-0.201,0.082-0.408,0.145-0.618,0.201c-0.239,0.064-0.461,0.159-0.666,0.298
	c-0.106,0.073-0.214,0.14-0.32,0.211c-0.055,0.038-0.088,0.021-0.099-0.042c-0.006-0.041-0.01-0.084-0.011-0.126
	c-0.012-0.295,0.014-0.588,0.038-0.883c0.008-0.089,0.051-0.114,0.135-0.119c0.344-0.021,0.688-0.043,1.027-0.111
	c0.484-0.096,1.036-0.479,0.872-1.236c-0.063-0.289-0.173-0.377-0.47-0.347c-0.336,0.036-0.671,0.068-1.007,0.1
	c-0.164,0.015-0.202-0.021-0.23-0.187c-0.039-0.23-0.005-0.457,0.022-0.682c0.027-0.227,0.09-0.449,0.134-0.672
	c0.062-0.311-0.014-0.585-0.227-0.818c-0.122-0.135-0.218-0.136-0.35-0.016c-0.071,0.065-0.138,0.136-0.199,0.211
	c-0.168,0.203-0.349,0.386-0.614,0.458c-0.063,0.017-0.119,0.055-0.167,0.101c-0.038,0.035-0.078,0.084-0.058,0.132
	c0.078,0.177,0.054,0.386,0.182,0.547c0.067,0.085,0.091,0.186,0.087,0.296c-0.009,0.233-0.079,0.458-0.125,0.684
	c-0.021,0.098-0.104,0.163-0.188,0.214c-0.103,0.061-0.212,0.108-0.333,0.131C14.443,17.81,14.207,17.822,14.004,17.816z
	 M33.367,25.388c0.032,0.032,0.018,0.069,0.018,0.101c-0.003,0.462-0.079,0.917-0.172,1.37c-0.024,0.115-0.104,0.154-0.207,0.17
	c-0.085,0.012-0.17,0.019-0.252,0.037c-0.075,0.018-0.108,0.058-0.049,0.135c0.405,0.52,0.599,1.131,0.739,1.764
	c0.053,0.229,0.141,0.318,0.375,0.358c0.222,0.038,0.312-0.003,0.423-0.196c0.073-0.13,0.128-0.264,0.153-0.412
	c0.051-0.275,0.062-0.554,0.101-0.831c0.049-0.358,0.124-0.711,0.142-1.071c0.031-0.588,0.119-1.17,0.188-1.755
	c0.043-0.373,0.127-0.743,0.114-1.12c-0.008-0.278,0.054-0.499,0.276-0.685c0.175-0.148,0.278-0.354,0.269-0.596
	c-0.006-0.216,0.027-0.425,0.065-0.636c0.036-0.194,0.081-0.387,0.113-0.582c0.042-0.251-0.042-0.329-0.294-0.292
	c-0.069,0.01-0.139,0.021-0.208,0.021c-0.149,0.003-0.192-0.031-0.222-0.18c-0.041-0.198-0.004-0.394,0.041-0.586
	c0.035-0.156,0.072-0.184,0.233-0.18c0.126,0.003,0.252,0,0.353-0.088c0.1-0.086,0.19-0.182,0.281-0.278
	c0.053-0.058,0.09-0.13,0.096-0.208c0.016-0.202,0.072-0.396,0.105-0.595c0.018-0.096,0.021-0.193,0.016-0.29
	c-0.012-0.19-0.084-0.276-0.266-0.331c-0.085-0.025-0.176-0.038-0.249-0.094c-0.087-0.066-0.188-0.084-0.294-0.101
	c-0.251-0.04-0.503-0.011-0.753,0.008c-0.219,0.015-0.426,0.064-0.588,0.237c-0.087,0.091-0.201,0.159-0.299,0.24
	C33.379,18.917,33.103,19,32.797,19c-0.116,0-0.231,0.001-0.347,0.024c-0.137,0.031-0.186,0.087-0.178,0.227
	c0.006,0.186,0.053,0.369,0.076,0.552c0.014,0.105,0.066,0.145,0.162,0.161c0.215,0.04,0.43,0.063,0.646,0.069
	c0.167,0.002,0.232,0.06,0.242,0.218c0.021,0.326-0.176,0.65-0.467,0.725c-0.113,0.029-0.226,0.058-0.334,0.099
	c-0.146,0.051-0.184,0.113-0.162,0.265c0.021,0.146,0.047,0.291,0.084,0.433c0.051,0.192,0.146,0.358,0.326,0.462
	c0.1,0.059,0.196,0.126,0.293,0.191c0.271,0.184,0.299,0.32,0.109,0.56c-0.008,0.01-0.012,0.021-0.018,0.029
	c-0.201,0.283-0.399,0.577-0.681,0.776c-0.278,0.196-0.347,0.445-0.295,0.747c0.06,0.347,0.14,0.691,0.238,1.03
	c0.03,0.102,0.091,0.162,0.194,0.173c0.228,0.022,0.418-0.048,0.567-0.226C33.291,25.472,33.306,25.41,33.367,25.388z
	 M28.429,31.139c0,0.161-0.006,0.375,0,0.588c0.008,0.25,0.146,0.362,0.396,0.332c0.042-0.004,0.085-0.013,0.126-0.014
	c0.354-0.004,0.642-0.145,0.876-0.411c0.207-0.237,0.4-0.483,0.562-0.753c0.103-0.169,0.215-0.343,0.238-0.539
	c0.039-0.312,0.173-0.578,0.35-0.826c0.39-0.546,0.722-1.121,0.946-1.754c0.171-0.481,0.353-0.962,0.448-1.466
	c0.027-0.144,0.044-0.292,0.016-0.438c-0.027-0.142-0.109-0.176-0.224-0.094c-0.104,0.076-0.187,0.176-0.254,0.285
	c-0.205,0.325-0.405,0.653-0.612,0.975c-0.391,0.605-0.822,1.178-1.396,1.623c-0.219,0.17-0.361,0.138-0.445-0.125
	c-0.085-0.264-0.188-0.522-0.193-0.811c-0.021-0.793-0.062-1.589,0.198-2.359c0.015-0.039,0.021-0.082,0.024-0.125
	c0.056-0.43,0-0.85-0.108-1.266c-0.024-0.093-0.065-0.178-0.149-0.243c-0.213-0.162-0.396-0.358-0.57-0.561
	c-0.249-0.29-0.436-0.623-0.654-0.934c-0.068-0.098-0.139-0.198-0.218-0.288c-0.111-0.13-0.192-0.117-0.271,0.038
	c-0.045,0.088-0.068,0.183-0.088,0.276c-0.113,0.538-0.158,1.082-0.162,1.628c-0.002,0.161,0.047,0.297,0.153,0.413
	c0.192,0.209,0.339,0.443,0.397,0.726c0.031,0.148,0.062,0.296,0.095,0.443c0.147,0.695,0.293,1.389,0.442,2.082
	c0.101,0.465,0.157,0.93,0.146,1.407C28.481,29.663,28.416,30.372,28.429,31.139z M8.925,30.925c0.006,0.132,0.02,0.251,0.059,0.366
	c0.11,0.326,0.339,0.514,0.667,0.604c0.318,0.086,0.54-0.052,0.735-0.277c0.02-0.024,0.04-0.047,0.06-0.071
	c0.318-0.384,0.56-0.817,0.797-1.255c0.474-0.873,0.812-1.811,1.283-2.686c0.137-0.254,0.198-0.522,0.176-0.816
	c-0.027-0.364,0.043-0.719,0.127-1.07c0.015-0.059,0.08-0.146,0.01-0.176c-0.063-0.025-0.092,0.076-0.124,0.129
	c-0.447,0.775-0.891,1.555-1.341,2.327c-0.155,0.269-0.315,0.538-0.555,0.743c-0.159,0.136-0.282,0.111-0.396-0.062
	c-0.125-0.188-0.196-0.404-0.29-0.607C10.052,27.9,10.024,27.718,10,27.533c-0.058-0.456-0.039-0.912-0.02-1.368
	c0.015-0.341,0.047-0.681,0.083-1.02c0.019-0.185-0.021-0.346-0.142-0.486c-0.132-0.156-0.305-0.266-0.474-0.374
	c-0.402-0.258-0.576-0.646-0.632-1.1c-0.035-0.274,0.082-0.498,0.27-0.69c0.102-0.102,0.202-0.203,0.285-0.321
	c0.04-0.058,0.077-0.116,0.098-0.184c0.028-0.087,0.007-0.16-0.06-0.221c-0.066-0.062-0.138-0.045-0.205-0.008
	c-0.146,0.08-0.289,0.169-0.451,0.211c-0.283,0.073-0.552,0.021-0.815-0.095c-0.113-0.049-0.156-0.025-0.193,0.095
	c-0.037,0.12-0.02,0.239,0.016,0.354c0.137,0.42,0.181,0.855,0.211,1.292c0.023,0.329,0.089,0.643,0.262,0.932
	c0.125,0.208,0.251,0.418,0.336,0.649c0.15,0.406,0.202,0.83,0.229,1.254C8.841,27.111,8.924,27.764,9,28.419
	c0.047,0.404,0.024,0.813,0.006,1.22C8.989,30.07,8.961,30.504,8.925,30.925z M22.586,30.041c0.07-0.012,0.148-0.016,0.224-0.036
	c0.235-0.058,0.381-0.249,0.356-0.489c-0.059-0.558-0.195-1.091-0.456-1.59c-0.128-0.246-0.307-0.432-0.567-0.543
	c-0.16-0.066-0.336-0.129-0.454-0.255c-0.156-0.169-0.34-0.187-0.541-0.167c-0.24,0.023-0.441,0.118-0.548,0.354
	c-0.038,0.084-0.033,0.153,0.034,0.232c0.172,0.205,0.334,0.417,0.458,0.657c0.092,0.177,0.085,0.348-0.003,0.522
	c-0.355,0.7-0.86,1.285-1.43,1.817c-0.189,0.179-0.4,0.317-0.644,0.409c-0.105,0.039-0.2,0.102-0.298,0.158
	c-0.045,0.025-0.101,0.061-0.08,0.125c0.019,0.059,0.077,0.055,0.128,0.062c0.135,0.017,0.27,0.007,0.405-0.001
	c0.568-0.031,1.109-0.161,1.611-0.441c0.406-0.229,0.802-0.475,1.222-0.676C22.184,30.095,22.364,29.992,22.586,30.041z
	 M12.908,20.371c-0.005-0.187-0.121-0.461-0.27-0.729c-0.268-0.481-0.713-0.756-1.169-1.017c-0.333-0.189-0.709-0.229-1.083-0.217
	c-0.368,0.012-0.637,0.223-0.831,0.526c-0.087,0.136-0.058,0.181,0.101,0.192c0.363,0.026,0.613,0.255,0.679,0.624
	c0.039,0.225,0.021,0.265-0.173,0.376c-0.061,0.035-0.126,0.059-0.188,0.093c-0.169,0.091-0.357,0.154-0.481,0.318
	c-0.043,0.06-0.051,0.108,0.002,0.165c0.154,0.168,0.322,0.302,0.573,0.265c0.076-0.011,0.154-0.01,0.231-0.017
	c0.403-0.033,0.803-0.055,1.189,0.116c0.162,0.071,0.335,0.119,0.514,0.145C12.511,21.287,12.908,20.976,12.908,20.371z
	 M19.571,27.014c0.297-0.004,0.536-0.07,0.732-0.298c0.267-0.311,0.555-0.604,0.863-0.877c0.136-0.119,0.279-0.212,0.462-0.249
	c0.248-0.049,0.489-0.125,0.704-0.264c0.164-0.105,0.292-0.247,0.235-0.506c-0.103-0.474-0.312-0.897-0.602-1.282
	c-0.183-0.243-0.384-0.471-0.668-0.6c-0.287-0.126-0.577-0.175-0.869,0c-0.074,0.045-0.099,0.09-0.07,0.178
	c0.09,0.272,0.159,0.551,0.207,0.835c0.027,0.155,0.021,0.304-0.03,0.457c-0.178,0.514-0.408,1.005-0.676,1.477
	c-0.185,0.325-0.355,0.663-0.669,0.897c-0.075,0.055-0.052,0.134,0.047,0.174C19.35,27.002,19.471,27.011,19.571,27.014z
	 M30.371,18.744c-0.132-0.009-0.261,0.006-0.384,0.04c-0.295,0.079-0.586,0.173-0.885,0.246c-0.113,0.029-0.137,0.084-0.108,0.182
	c0.056,0.212,0.196,0.348,0.392,0.434c0.111,0.048,0.219,0.103,0.318,0.169c0.186,0.122,0.203,0.268,0.042,0.42
	c-0.287,0.268-0.614,0.469-0.995,0.58c-0.043,0.012-0.102,0.013-0.109,0.07c-0.009,0.064,0.051,0.079,0.094,0.104
	c0.01,0.006,0.021,0.011,0.031,0.015c0.494,0.177,1.002,0.285,1.529,0.232c0.504-0.053,1.006-0.032,1.504,0.052
	c0.167,0.029,0.292-0.024,0.398-0.135c0.219-0.226,0.271-0.531,0.123-0.817c-0.309-0.597-0.783-1.044-1.34-1.407
	C30.795,18.807,30.595,18.724,30.371,18.744z M21.678,17.625c-0.138-0.01-0.234-0.004-0.329,0.015c-0.467,0.09-0.86,0.34-1.25,0.596
	c-0.041,0.028-0.056,0.063-0.033,0.109c0.116,0.233,0.219,0.472,0.444,0.629c0.104,0.071,0.194,0.158,0.209,0.292
	c0.014,0.138,0.003,0.273-0.068,0.395c-0.094,0.161-0.192,0.318-0.286,0.479c-0.097,0.164-0.207,0.32-0.26,0.504
	c-0.038,0.125,0.012,0.206,0.142,0.22c0.096,0.011,0.192,0.003,0.289-0.013c0.542-0.09,0.888-0.416,1.117-0.9
	c0.189-0.4,0.333-0.817,0.497-1.227c0.09-0.226,0.176-0.457,0.197-0.703c0.011-0.136-0.034-0.246-0.132-0.269
	C22.021,17.712,21.839,17.622,21.678,17.625z M12.982,35.277L12.982,35.277c0.07,0,0.14,0,0.208,0c0.031,0,0.063,0,0.083-0.031
	c0.047-0.074,0.001-0.245-0.08-0.28c-0.048-0.021-0.049-0.055-0.049-0.093c-0.001-0.221-0.001-0.443,0-0.663
	c0-0.034-0.005-0.083,0.036-0.088c0.148-0.021,0.094-0.134,0.102-0.218c0.008-0.073-0.027-0.104-0.101-0.104
	c-0.124,0.004-0.249,0.001-0.372,0.001c-0.063,0-0.139-0.009-0.132,0.087c0.006,0.08-0.059,0.196,0.088,0.223
	c0.048,0.008,0.061,0.037,0.065,0.08c0.021,0.173,0.002,0.193-0.173,0.193c-0.035,0-0.07,0.002-0.105,0
	c-0.054-0.004-0.132,0.018-0.126-0.072c0.005-0.073-0.057-0.174,0.081-0.207c0.122-0.029,0.061-0.141,0.069-0.215
	c0.007-0.074-0.044-0.091-0.106-0.09c-0.132,0.002-0.264,0-0.396,0.001c-0.035,0.001-0.071-0.004-0.094,0.033
	c-0.047,0.073,0,0.244,0.08,0.279c0.047,0.019,0.049,0.054,0.05,0.094c0,0.22,0,0.442-0.001,0.663c0,0.034,0.005,0.082-0.037,0.088
	c-0.148,0.021-0.093,0.133-0.103,0.218c-0.007,0.073,0.028,0.104,0.103,0.104c0.136-0.003,0.271,0,0.407,0
	c0.031,0,0.062,0,0.083-0.029c0.056-0.077,0.005-0.247-0.087-0.283c-0.035-0.013-0.046-0.034-0.052-0.067
	c-0.029-0.172,0-0.205,0.174-0.205c0.034,0,0.07-0.002,0.104,0c0.056,0.004,0.132-0.016,0.125,0.074
	c-0.003,0.073,0.059,0.184-0.082,0.203c-0.046,0.006-0.062,0.037-0.069,0.08c-0.032,0.188,0,0.227,0.189,0.228
	C12.905,35.277,12.943,35.277,12.982,35.277z M32.126,33.801c-0.096,0-0.193-0.002-0.29,0c-0.051,0.002-0.128-0.016-0.125,0.063
	c0.006,0.085-0.069,0.204,0.072,0.245c0.055,0.018,0.062,0.052,0.062,0.097c0,0.222,0,0.44,0,0.664c0,0.034,0.006,0.082-0.035,0.089
	c-0.156,0.023-0.094,0.143-0.104,0.229c-0.008,0.062,0.025,0.092,0.089,0.092c0.144-0.002,0.287,0,0.431,0
	c0.026-0.002,0.053-0.004,0.072-0.029c0.057-0.077,0.006-0.248-0.087-0.283c-0.035-0.013-0.053-0.033-0.051-0.066
	c0.001-0.047-0.022-0.116,0.042-0.131c0.072-0.016,0.167-0.043,0.219,0.025c0.035,0.046,0.158,0.107,0.02,0.198
	c-0.067,0.045-0.037,0.155-0.021,0.231c0.014,0.075,0.085,0.051,0.135,0.053c0.117,0.004,0.233,0.003,0.35,0
	c0.045,0,0.105,0.011,0.111-0.055c0.004-0.082,0.047-0.207-0.033-0.233c-0.121-0.044-0.146-0.14-0.205-0.222
	c-0.053-0.072-0.061-0.131,0.006-0.211c0.115-0.145,0.132-0.314,0.05-0.482c-0.083-0.172-0.224-0.266-0.415-0.271
	C32.319,33.799,32.224,33.801,32.126,33.801z M24.077,35.277c0.05,0,0.102,0.004,0.151,0c0.059-0.006,0.154,0.029,0.149-0.073
	c-0.002-0.086,0.075-0.215-0.094-0.239c-0.059-0.008-0.066-0.061-0.079-0.104c-0.073-0.245-0.141-0.492-0.22-0.734
	c-0.128-0.396-0.016-0.314-0.44-0.328c-0.097-0.002-0.135,0.036-0.161,0.125c-0.086,0.305-0.18,0.609-0.272,0.913
	c-0.013,0.043-0.015,0.11-0.063,0.116c-0.151,0.02-0.112,0.126-0.118,0.218c-0.004,0.082,0.035,0.109,0.111,0.106
	c0.12-0.004,0.241,0,0.361,0c0.055-0.002,0.133,0.016,0.131-0.071c-0.001-0.082,0.06-0.19-0.071-0.238
	c-0.027-0.01-0.053-0.018-0.047-0.053s0.017-0.075,0.06-0.075c0.119-0.002,0.24-0.002,0.359,0c0.036,0.002,0.047,0.036,0.055,0.068
	c0.007,0.025,0.002,0.048-0.027,0.054c-0.16,0.037-0.087,0.163-0.083,0.247c0.004,0.105,0.106,0.057,0.168,0.066
	C23.991,35.283,24.034,35.277,24.077,35.277z M15.51,35.277L15.51,35.277c0.066,0,0.132,0.003,0.198,0
	c0.38-0.008,0.316,0.068,0.322-0.334c0.001-0.021-0.001-0.039-0.003-0.059c-0.003-0.025-0.013-0.049-0.039-0.051
	c-0.07-0.005-0.14-0.007-0.209-0.004c-0.057,0.002-0.052,0.059-0.065,0.097c-0.008,0.024-0.029,0.032-0.053,0.039
	c-0.155,0.042-0.212-0.006-0.214-0.164c-0.001-0.104,0.059-0.104,0.136-0.108c0.058-0.002,0.138,0.033,0.162-0.064
	c0.044-0.175-0.001-0.238-0.182-0.244c-0.012,0-0.023-0.001-0.035-0.001c-0.052,0.001-0.083-0.024-0.076-0.077
	c0.007-0.063-0.039-0.146,0.044-0.188c0.083-0.042,0.191,0.002,0.231,0.086c0.012,0.029,0.031,0.041,0.06,0.048
	c0.188,0.043,0.245-0.002,0.245-0.192c0-0.051-0.003-0.102,0-0.15c0.005-0.082-0.032-0.11-0.111-0.109
	c-0.271,0.002-0.542,0.001-0.813,0.001c-0.051,0-0.114-0.002-0.107,0.071c0.008,0.08-0.06,0.189,0.058,0.232
	c0.068,0.023,0.079,0.06,0.079,0.119c0,0.209-0.001,0.418,0.001,0.627c0,0.065-0.015,0.101-0.085,0.127
	c-0.107,0.041-0.046,0.147-0.052,0.226c-0.008,0.071,0.05,0.075,0.103,0.075C15.239,35.277,15.374,35.277,15.51,35.277z
	 M29.479,33.801c-0.137,0-0.271-0.001-0.406,0c-0.038,0.001-0.08-0.007-0.104,0.036c-0.045,0.08,0,0.238,0.086,0.278
	c0.045,0.021,0.045,0.058,0.045,0.096c0,0.216,0,0.434,0,0.652c0,0.053-0.01,0.089-0.074,0.109
	c-0.121,0.041-0.057,0.148-0.063,0.229s0.06,0.075,0.115,0.075c0.196,0,0.396,0,0.593,0c0.355,0,0.367-0.014,0.323-0.369
	c-0.001-0.012-0.002-0.024-0.005-0.034c-0.004-0.021-0.016-0.04-0.036-0.041c-0.069-0.004-0.14-0.007-0.208-0.004
	c-0.059,0.002-0.053,0.057-0.064,0.096c-0.01,0.024-0.029,0.033-0.054,0.04c-0.155,0.044-0.213-0.005-0.215-0.163
	c-0.002-0.104,0.058-0.104,0.134-0.108c0.059-0.002,0.137,0.033,0.162-0.063c0.045-0.174-0.001-0.239-0.18-0.245
	c-0.012,0-0.022-0.001-0.035-0.001c-0.051,0.001-0.083-0.022-0.077-0.077c0.008-0.063-0.038-0.146,0.043-0.188
	s0.192,0.002,0.231,0.085c0.014,0.028,0.031,0.042,0.061,0.048c0.186,0.044,0.244-0.001,0.245-0.191
	c0-0.054-0.002-0.108-0.001-0.162c0.003-0.069-0.028-0.1-0.098-0.098C29.758,33.802,29.618,33.801,29.479,33.801z M20.49,33.801
	c-0.097,0-0.194-0.002-0.291,0c-0.051,0.002-0.129-0.016-0.124,0.064c0.006,0.084-0.071,0.203,0.072,0.244
	c0.047,0.015,0.062,0.041,0.062,0.084c0,0.229,0,0.457,0,0.685c0,0.032,0,0.075-0.036,0.08c-0.138,0.019-0.097,0.12-0.104,0.203
	c-0.006,0.084,0.026,0.121,0.113,0.116c0.12-0.004,0.24,0,0.361,0c0.061,0,0.139,0.012,0.132-0.082
	c-0.006-0.081,0.06-0.199-0.086-0.227c-0.081-0.015-0.063-0.074-0.065-0.126c-0.003-0.059,0.032-0.081,0.086-0.081
	c0.082-0.002,0.163,0,0.243-0.017c0.249-0.056,0.41-0.271,0.387-0.519c-0.022-0.242-0.221-0.422-0.472-0.426
	C20.675,33.799,20.582,33.801,20.49,33.801z M26.526,33.801c-0.108,0-0.217-0.001-0.325,0c-0.034,0.001-0.07-0.004-0.093,0.034
	c-0.047,0.075,0,0.243,0.082,0.279c0.045,0.021,0.047,0.056,0.047,0.094c0,0.222,0.002,0.442,0,0.663
	c0,0.031,0.006,0.076-0.026,0.081c-0.153,0.026-0.106,0.143-0.112,0.235c-0.004,0.063,0.028,0.09,0.092,0.09
	c0.129,0,0.256,0,0.384,0c0.063,0,0.137,0.009,0.13-0.084c-0.005-0.082,0.059-0.199-0.088-0.225
	c-0.082-0.015-0.061-0.076-0.062-0.128c-0.003-0.061,0.035-0.079,0.088-0.079c0.09,0,0.18,0,0.266-0.022
	c0.232-0.058,0.386-0.276,0.363-0.515c-0.022-0.236-0.22-0.416-0.463-0.423C26.712,33.799,26.62,33.801,26.526,33.801z
	 M9.679,33.801c-0.093,0-0.186-0.002-0.278,0c-0.371,0.008-0.311-0.066-0.316,0.332c0,0.053-0.008,0.126,0.073,0.118
	c0.08-0.01,0.195,0.065,0.235-0.071c0.013-0.045,0.032-0.07,0.08-0.063c0.053,0.008,0.053,0.049,0.053,0.089
	c0,0.225,0,0.449,0,0.674c0,0.031,0.001,0.076-0.034,0.078c-0.161,0.011-0.12,0.128-0.124,0.223c-0.002,0.066,0.026,0.1,0.097,0.1
	c0.139-0.004,0.279,0,0.418,0c0.031-0.002,0.062-0.002,0.082-0.032c0.047-0.076,0.002-0.244-0.079-0.281
	c-0.034-0.015-0.049-0.036-0.049-0.071c0-0.235,0-0.473,0-0.709c0-0.031,0.011-0.062,0.05-0.066
	c0.039-0.002,0.057,0.021,0.061,0.056c0.008,0.063,0.045,0.079,0.104,0.082c0.224,0.013,0.225,0.013,0.224-0.217
	c0-0.042-0.001-0.084,0-0.127c0.004-0.079-0.03-0.111-0.109-0.11C10.005,33.803,9.843,33.801,9.679,33.801z"/>
<path fill="#FFFFFF" d="M39.683,27.005c0.021,0.239,0.037,0.479,0.063,0.716c0.063,0.567,0.063,1.137,0.073,1.707
	c0.01,0.598,0.037,1.192,0.054,1.79c0.008,0.281,0.009,0.565,0.009,0.847c0.002,0.523,0.062,1.045,0.072,1.567
	c0.007,0.33-0.01,0.345-0.332,0.418c-0.28,0.064-0.562,0.123-0.85,0.132c-0.207,0.01-0.237-0.015-0.279-0.223
	c-0.051-0.251-0.072-0.507-0.078-0.764c-0.018-0.819-0.163-1.625-0.334-2.424c-0.105-0.494-0.163-0.994-0.158-1.5
	c0.006-0.623-0.013-1.25,0.01-1.873c0.014-0.473-0.004-0.945,0.03-1.418c0.004-0.064,0.038-0.151-0.037-0.19
	c-0.065-0.036-0.131,0.021-0.192,0.054c-0.118,0.062-0.211,0.158-0.309,0.245c-0.023,0.021-0.044,0.043-0.066,0.063
	c-0.375,0.348-0.783,0.337-1.139-0.03c-0.182-0.188-0.328-0.401-0.443-0.637c-0.108-0.221-0.086-0.395,0.101-0.555
	c0.542-0.464,1.046-0.97,1.601-1.42c0.084-0.068,0.125-0.156,0.139-0.259c0.019-0.145,0.037-0.292,0.029-0.44
	c-0.002-0.068,0.012-0.15-0.066-0.185s-0.161-0.021-0.232,0.029c-0.082,0.058-0.158,0.124-0.225,0.2
	c-0.084,0.097-0.171,0.19-0.262,0.281c-0.105,0.105-0.184,0.121-0.295,0.024c-0.483-0.423-0.728-0.812-0.582-1.416
	c0.037-0.154,0.076-0.309,0.108-0.465c0.019-0.085,0.068-0.131,0.15-0.158c0.208-0.07,0.426-0.076,0.642-0.095
	c0.19-0.017,0.379-0.019,0.57-0.03c0.163-0.009,0.182-0.027,0.206-0.19c0.022-0.147-0.007-0.293-0.03-0.438
	c-0.015-0.088-0.064-0.114-0.15-0.091c-0.176,0.047-0.354,0.093-0.535,0.113c-0.329,0.04-0.451-0.063-0.518-0.298
	c-0.053-0.19-0.119-0.377-0.146-0.573c-0.026-0.187,0.017-0.271,0.181-0.361c0.118-0.063,0.241-0.11,0.369-0.14
	c0.293-0.068,0.508-0.233,0.653-0.497c0.104-0.185,0.17-0.381,0.188-0.594c0.007-0.102-0.04-0.16-0.139-0.183
	c-0.188-0.042-0.378-0.019-0.567-0.01c-0.234,0.01-0.47,0.06-0.706,0.015c-0.122-0.024-0.259-0.04-0.305-0.179
	c-0.047-0.146,0.063-0.237,0.153-0.326c0.031-0.031,0.065-0.058,0.104-0.075c0.284-0.124,0.557-0.276,0.857-0.354
	c0.418-0.108,0.785-0.324,1.166-0.517c0.248-0.126,0.496-0.257,0.763-0.345c0.085-0.028,0.162-0.025,0.246,0.016
	c0.252,0.128,0.519,0.222,0.761,0.374c0.199,0.126,0.262,0.293,0.225,0.513c-0.049,0.309-0.18,0.584-0.338,0.847
	c-0.091,0.149-0.236,0.193-0.397,0.202c-0.073,0.004-0.146-0.011-0.22-0.016c-0.066-0.004-0.139-0.013-0.181,0.052
	c-0.044,0.07-0.024,0.146,0.013,0.21c0.084,0.145,0.277,0.301,0.508,0.256c0.216-0.043,0.436-0.069,0.654-0.101
	c0.217-0.032,0.289,0.014,0.342,0.228c0.082,0.332,0.101,0.668,0.039,1.003c-0.041,0.219-0.154,0.397-0.349,0.515
	c-0.146,0.09-0.299,0.117-0.467,0.056c-0.101-0.037-0.212-0.078-0.302,0.021c-0.113,0.125-0.146,0.275-0.094,0.433
	c0.026,0.083,0.1,0.12,0.187,0.106c0.188-0.032,0.378-0.03,0.532-0.19c0.115-0.119,0.285-0.175,0.449-0.208
	c0.15-0.028,0.285,0.05,0.422,0.108c0.186,0.078,0.367,0.166,0.553,0.245c0.139,0.059,0.207,0.129,0.184,0.272
	c-0.06,0.398-0.156,0.789-0.44,1.092c-0.2,0.214-0.453,0.369-0.714,0.497c-0.195,0.097-0.266,0.263-0.319,0.447
	c-0.031,0.106,0.022,0.157,0.134,0.126c0.16-0.044,0.318-0.1,0.479-0.149c0.133-0.041,0.268-0.082,0.41-0.061
	c0.201,0.033,0.318,0.206,0.283,0.408c-0.025,0.145-0.09,0.273-0.164,0.396c-0.115,0.197-0.265,0.373-0.406,0.552
	c-0.223,0.291-0.557,0.381-0.871,0.506c-0.079,0.032-0.158,0.067-0.241,0.088c-0.13,0.032-0.181,0.117-0.192,0.241
	c-0.039,0.404-0.103,0.807-0.09,1.216c0.002,0.072,0,0.139,0.088,0.167c0.049,0.015,0.057,0.072,0.075,0.113
	c0.117,0.263,0.302,0.399,0.541,0.378c0.299-0.027,0.333-0.145,0.269-0.35c-0.041-0.131-0.011-0.174,0.125-0.183
	c0.25-0.017,0.473,0.069,0.674,0.211c0.056,0.037,0.109,0.075,0.158,0.117c0.196,0.166,0.414,0.286,0.664,0.351
	c0.315,0.082,0.487,0.301,0.571,0.601c0.103,0.358,0.095,0.719-0.008,1.077c-0.09,0.318-0.304,0.498-0.624,0.549
	c-0.665,0.107-1.446-0.321-1.732-0.928c-0.192-0.41-0.395-0.817-0.627-1.207c-0.031-0.053-0.065-0.104-0.1-0.155
	C39.694,27.002,39.688,27.004,39.683,27.005z"/>
<path fill="#FFFFFF" d="M14.004,17.816c0.203,0.005,0.438-0.007,0.672-0.049c0.121-0.022,0.23-0.07,0.333-0.131
	c0.084-0.051,0.168-0.116,0.188-0.214c0.046-0.227,0.116-0.451,0.125-0.684c0.003-0.11-0.021-0.21-0.087-0.296
	c-0.127-0.161-0.104-0.37-0.182-0.547c-0.02-0.048,0.02-0.097,0.058-0.132c0.048-0.046,0.104-0.084,0.167-0.101
	c0.266-0.072,0.446-0.255,0.614-0.458c0.062-0.075,0.128-0.146,0.199-0.211c0.131-0.12,0.228-0.119,0.35,0.016
	c0.213,0.232,0.289,0.507,0.227,0.818c-0.044,0.223-0.107,0.445-0.134,0.672c-0.027,0.225-0.061,0.452-0.022,0.682
	c0.028,0.166,0.066,0.202,0.23,0.187c0.335-0.032,0.671-0.064,1.007-0.1c0.297-0.031,0.407,0.058,0.47,0.347
	c0.164,0.757-0.388,1.14-0.872,1.236c-0.339,0.068-0.684,0.09-1.027,0.111c-0.084,0.005-0.126,0.03-0.135,0.119
	c-0.024,0.295-0.049,0.588-0.038,0.883c0.001,0.042,0.005,0.085,0.011,0.126c0.011,0.062,0.043,0.08,0.099,0.042
	c0.106-0.071,0.214-0.138,0.32-0.211c0.204-0.139,0.427-0.234,0.666-0.298c0.209-0.056,0.417-0.119,0.618-0.201
	c0.082-0.033,0.16-0.021,0.237,0.011c0.221,0.095,0.363,0.349,0.324,0.589c-0.039,0.225-0.127,0.431-0.259,0.617
	c-0.037,0.053-0.083,0.093-0.145,0.11c-0.478,0.144-0.892,0.412-1.32,0.655c-0.466,0.263-0.885,0.602-1.357,0.854
	c-0.322,0.17-0.635,0.354-0.94,0.554c-0.111,0.074-0.236,0.115-0.361,0.156c-0.154,0.052-0.247,0.151-0.279,0.312
	c-0.024,0.122-0.053,0.243-0.056,0.368c-0.004,0.198,0.083,0.263,0.271,0.201c0.383-0.124,0.71-0.344,1.009-0.608
	c0.171-0.151,0.343-0.302,0.515-0.454c0.228-0.2,0.49-0.317,0.795-0.35c0.287-0.031,0.572-0.055,0.855,0.006
	c0.181,0.039,0.329,0.105,0.361,0.319c0.017,0.11,0.071,0.214,0.102,0.322c0.03,0.109,0.026,0.221-0.015,0.33
	c-0.033,0.094-0.088,0.164-0.194,0.179c-0.015,0.003-0.03,0.009-0.044,0.013c-0.269,0.083-0.325,0.186-0.247,0.459
	c0.009,0.035,0.016,0.07,0.051,0.088c0.116,0.058,0.149,0.167,0.16,0.28c0.031,0.317-0.019,0.626-0.129,0.923
	c-0.038,0.104-0.095,0.19-0.222,0.216c-0.101,0.021-0.088,0.113-0.07,0.191c0.017,0.07,0.041,0.133,0.141,0.109
	c0.099-0.021,0.196-0.047,0.289-0.086c0.144-0.062,0.292-0.071,0.445-0.064c0.1,0.002,0.158,0.049,0.155,0.147
	c-0.008,0.289,0.049,0.571,0.072,0.856c0.02,0.258-0.048,0.465-0.309,0.594c-0.211,0.105-0.371,0.291-0.549,0.445
	c-0.157,0.137-0.298,0.295-0.492,0.387c-0.061,0.027-0.067,0.091-0.062,0.15c0.005,0.055,0.035,0.073,0.088,0.049
	c0.536-0.231,1.052-0.076,1.558,0.103c0.25,0.089,0.307,0.26,0.222,0.519c-0.064,0.193-0.137,0.387-0.199,0.582
	c-0.061,0.192-0.18,0.35-0.354,0.461c-0.062,0.039-0.127,0.055-0.199,0.036c-0.054-0.016-0.11-0.019-0.159,0.009
	c-0.326,0.188-0.695,0.287-1.016,0.479c-0.413,0.249-0.789,0.55-1.14,0.88c-0.077,0.071-0.145,0.155-0.186,0.251
	c-0.134,0.31-0.386,0.437-0.701,0.483c-0.288,0.041-0.581,0.039-0.869,0.051c-0.363,0.013-0.733-0.223-0.815-0.617
	c-0.058-0.277-0.149-0.545-0.226-0.818c-0.024-0.084-0.041-0.172-0.068-0.258c-0.08-0.246-0.023-0.453,0.159-0.637
	c0.264-0.264,0.531-0.521,0.854-0.714c0.081-0.048,0.169-0.074,0.262-0.093c0.332-0.065,0.669-0.062,1.005-0.08
	c0.106-0.006,0.14-0.043,0.147-0.146c0.012-0.216,0.04-0.432,0.059-0.647c0.002-0.031,0.02-0.075-0.018-0.094
	c-0.038-0.02-0.064,0.02-0.086,0.043c-0.134,0.14-0.267,0.28-0.398,0.424c-0.169,0.183-0.376,0.238-0.588,0.158
	c-0.08-0.031-0.136-0.08-0.168-0.164c-0.075-0.19-0.108-0.39-0.121-0.59c-0.022-0.363-0.133-0.707-0.218-1.056
	c-0.14-0.562-0.303-1.116-0.482-1.665C12.89,25.116,12.902,25,13.021,24.9c0.062-0.05,0.09-0.125,0.093-0.207
	c0.019-0.483,0.038-0.967,0.058-1.452c0.003-0.085-0.047-0.064-0.09-0.045c-0.151,0.061-0.286,0.155-0.439,0.213
	c-0.51,0.194-1.034,0.324-1.575,0.394c-0.225,0.028-0.39-0.069-0.532-0.228c-0.235-0.266-0.367-0.591-0.518-0.905
	c-0.041-0.085,0.026-0.109,0.086-0.129c0.18-0.057,0.367-0.059,0.552-0.066c0.251-0.009,0.504,0,0.755,0.011
	c0.482,0.02,0.965-0.011,1.427-0.161c0.324-0.105,0.62-0.284,0.902-0.478c0.44-0.301,0.908-0.568,1.301-0.935
	c0.049-0.044,0.094-0.095,0.151-0.128c0.188-0.109,0.218-0.274,0.201-0.476c-0.026-0.312-0.035-0.626-0.047-0.939
	c-0.007-0.22-0.093-0.309-0.312-0.317c-0.205-0.008-0.399,0.041-0.594,0.097c-0.146,0.041-0.229,0.025-0.277-0.091
	c-0.145-0.354-0.404-0.641-0.557-0.99c-0.124-0.283-0.129-0.252,0.153-0.252C13.831,17.816,13.901,17.816,14.004,17.816z
	 M14.263,25.398c0.004,0.047-0.021,0.109,0.034,0.138c0.06,0.03,0.103-0.022,0.141-0.057c0.167-0.147,0.315-0.309,0.469-0.468
	c0.207-0.213,0.386-0.456,0.667-0.587c0.077-0.037,0.083-0.114,0.074-0.192c-0.009-0.07-0.054-0.118-0.123-0.118
	c-0.214,0.004-0.419,0.038-0.571,0.211c-0.166,0.19-0.326,0.384-0.499,0.567C14.317,25.037,14.259,25.205,14.263,25.398z"/>
<path fill="#FFFFFF" d="M33.367,25.388c-0.062,0.022-0.076,0.084-0.112,0.127c-0.148,0.178-0.341,0.248-0.568,0.226
	c-0.103-0.011-0.164-0.071-0.193-0.173c-0.1-0.339-0.18-0.685-0.238-1.03c-0.051-0.302,0.016-0.551,0.295-0.747
	c0.281-0.199,0.48-0.493,0.68-0.776c0.006-0.009,0.011-0.02,0.019-0.029c0.188-0.24,0.162-0.376-0.11-0.56
	c-0.096-0.065-0.191-0.132-0.291-0.191c-0.181-0.104-0.277-0.271-0.326-0.462c-0.039-0.142-0.064-0.288-0.086-0.433
	c-0.021-0.152,0.019-0.214,0.162-0.265c0.109-0.041,0.223-0.07,0.336-0.099c0.291-0.074,0.486-0.398,0.467-0.725
	c-0.01-0.158-0.076-0.216-0.244-0.218c-0.217-0.006-0.432-0.029-0.646-0.069c-0.096-0.017-0.147-0.056-0.161-0.161
	c-0.024-0.184-0.072-0.366-0.078-0.552c-0.006-0.139,0.043-0.196,0.179-0.227c0.114-0.023,0.229-0.025,0.347-0.024
	c0.305,0,0.582-0.083,0.82-0.279c0.099-0.081,0.212-0.148,0.299-0.24c0.162-0.173,0.37-0.222,0.588-0.237
	c0.25-0.019,0.502-0.047,0.753-0.008c0.104,0.017,0.207,0.035,0.294,0.101c0.073,0.056,0.164,0.069,0.249,0.094
	c0.183,0.055,0.255,0.141,0.265,0.331c0.006,0.097,0.002,0.193-0.015,0.29c-0.034,0.199-0.091,0.393-0.106,0.595
	c-0.004,0.078-0.041,0.15-0.096,0.208c-0.089,0.096-0.181,0.192-0.279,0.278c-0.102,0.088-0.227,0.091-0.354,0.088
	c-0.16-0.004-0.197,0.024-0.234,0.18c-0.045,0.193-0.08,0.388-0.041,0.586c0.031,0.149,0.072,0.184,0.223,0.18
	c0.068,0,0.139-0.011,0.208-0.021c0.253-0.037,0.336,0.041,0.294,0.292c-0.032,0.195-0.077,0.388-0.113,0.582
	c-0.037,0.211-0.07,0.42-0.064,0.636c0.009,0.242-0.094,0.447-0.27,0.596c-0.224,0.186-0.283,0.407-0.275,0.685
	c0.012,0.376-0.072,0.747-0.115,1.12c-0.068,0.585-0.156,1.167-0.188,1.755c-0.02,0.36-0.094,0.713-0.143,1.071
	c-0.038,0.277-0.051,0.556-0.1,0.831c-0.026,0.148-0.082,0.282-0.154,0.412c-0.111,0.193-0.202,0.234-0.424,0.196
	c-0.233-0.04-0.321-0.13-0.373-0.358c-0.143-0.632-0.334-1.244-0.74-1.764c-0.059-0.077-0.027-0.117,0.049-0.135
	c0.082-0.019,0.167-0.025,0.252-0.037c0.104-0.016,0.184-0.055,0.207-0.17c0.094-0.453,0.168-0.907,0.172-1.37
	C33.385,25.457,33.399,25.419,33.367,25.388z"/>
<path fill="#FFFFFF" d="M28.429,31.139c-0.013-0.767,0.053-1.476,0.07-2.188c0.012-0.478-0.045-0.942-0.145-1.407
	c-0.15-0.693-0.295-1.387-0.443-2.082c-0.032-0.147-0.062-0.295-0.096-0.443c-0.059-0.283-0.205-0.517-0.396-0.726
	c-0.107-0.116-0.156-0.252-0.154-0.413c0.004-0.547,0.049-1.09,0.164-1.628c0.02-0.094,0.041-0.188,0.086-0.276
	c0.08-0.155,0.159-0.168,0.271-0.038c0.079,0.09,0.148,0.19,0.218,0.288c0.218,0.311,0.405,0.644,0.654,0.934
	c0.175,0.203,0.356,0.398,0.571,0.561c0.082,0.065,0.125,0.15,0.148,0.243c0.107,0.416,0.164,0.836,0.109,1.266
	c-0.006,0.043-0.012,0.086-0.025,0.125c-0.262,0.77-0.22,1.565-0.197,2.359c0.006,0.287,0.107,0.546,0.192,0.811
	c0.084,0.262,0.228,0.295,0.444,0.125c0.576-0.445,1.007-1.018,1.397-1.623c0.207-0.321,0.407-0.649,0.612-0.975
	c0.068-0.109,0.15-0.209,0.254-0.285c0.113-0.084,0.197-0.048,0.225,0.094c0.027,0.146,0.01,0.295-0.017,0.438
	c-0.097,0.504-0.276,0.984-0.448,1.466c-0.225,0.635-0.557,1.209-0.945,1.754c-0.178,0.248-0.312,0.514-0.351,0.826
	c-0.022,0.196-0.136,0.37-0.237,0.539c-0.162,0.27-0.356,0.518-0.563,0.753c-0.233,0.267-0.521,0.406-0.876,0.411
	c-0.042,0.001-0.084,0.008-0.126,0.014c-0.25,0.03-0.39-0.082-0.396-0.332C28.423,31.514,28.429,31.3,28.429,31.139z"/>
<path fill="#FFFFFF" d="M8.925,30.925c0.037-0.421,0.064-0.854,0.082-1.286c0.017-0.406,0.04-0.815-0.007-1.22
	c-0.077-0.655-0.16-1.308-0.202-1.963c-0.028-0.424-0.08-0.849-0.229-1.254c-0.085-0.23-0.211-0.44-0.336-0.649
	c-0.172-0.289-0.238-0.603-0.262-0.932c-0.03-0.438-0.075-0.872-0.211-1.292c-0.036-0.115-0.053-0.235-0.016-0.354
	c0.037-0.12,0.08-0.145,0.193-0.095c0.263,0.116,0.532,0.168,0.815,0.095c0.162-0.042,0.305-0.131,0.451-0.211
	c0.067-0.037,0.139-0.054,0.205,0.008c0.067,0.061,0.088,0.134,0.06,0.221c-0.021,0.068-0.058,0.126-0.098,0.184
	c-0.083,0.118-0.184,0.219-0.285,0.321c-0.188,0.192-0.305,0.417-0.27,0.69c0.057,0.454,0.23,0.842,0.632,1.1
	c0.169,0.108,0.341,0.218,0.474,0.374c0.121,0.14,0.161,0.301,0.142,0.486c-0.035,0.338-0.068,0.679-0.083,1.02
	c-0.019,0.457-0.038,0.913,0.02,1.368c0.024,0.185,0.052,0.368,0.133,0.539c0.094,0.204,0.165,0.419,0.29,0.608
	c0.114,0.172,0.237,0.196,0.396,0.062c0.24-0.205,0.4-0.476,0.555-0.743c0.45-0.773,0.894-1.551,1.341-2.327
	c0.032-0.053,0.061-0.155,0.124-0.129c0.07,0.03,0.004,0.117-0.01,0.177c-0.084,0.352-0.154,0.705-0.127,1.069
	c0.022,0.293-0.039,0.563-0.176,0.817c-0.471,0.875-0.809,1.812-1.283,2.685c-0.237,0.437-0.479,0.871-0.797,1.255
	c-0.02,0.024-0.04,0.047-0.06,0.071c-0.195,0.226-0.417,0.364-0.735,0.276c-0.328-0.088-0.558-0.276-0.667-0.603
	C8.944,31.176,8.931,31.059,8.925,30.925z"/>
<path fill="#FFFFFF" d="M22.586,30.041c-0.222-0.049-0.402,0.054-0.582,0.141c-0.42,0.2-0.816,0.446-1.222,0.674
	c-0.502,0.281-1.043,0.41-1.611,0.442c-0.135,0.009-0.271,0.017-0.405,0.001c-0.051-0.007-0.11-0.003-0.128-0.061
	c-0.021-0.065,0.035-0.1,0.08-0.127c0.098-0.057,0.193-0.118,0.298-0.157c0.243-0.093,0.454-0.231,0.644-0.409
	c0.57-0.531,1.075-1.117,1.43-1.818c0.088-0.175,0.095-0.346,0.003-0.521c-0.124-0.241-0.286-0.453-0.458-0.657
	c-0.067-0.079-0.072-0.149-0.034-0.231c0.106-0.236,0.308-0.33,0.548-0.354c0.2-0.021,0.385-0.002,0.541,0.167
	c0.118,0.126,0.294,0.188,0.454,0.255c0.26,0.111,0.439,0.298,0.567,0.543c0.261,0.499,0.397,1.032,0.456,1.589
	c0.025,0.242-0.121,0.434-0.356,0.49C22.734,30.025,22.656,30.029,22.586,30.041z"/>
<path fill="#FFFFFF" d="M12.908,20.371c0,0.605-0.397,0.916-0.906,0.84c-0.179-0.026-0.352-0.074-0.514-0.145
	c-0.386-0.171-0.786-0.149-1.189-0.116c-0.078,0.007-0.156,0.006-0.231,0.017c-0.251,0.038-0.419-0.096-0.573-0.265
	c-0.053-0.057-0.045-0.105-0.002-0.165c0.124-0.164,0.312-0.227,0.481-0.318c0.061-0.034,0.126-0.058,0.188-0.093
	c0.195-0.111,0.212-0.151,0.173-0.376c-0.066-0.368-0.316-0.597-0.679-0.624c-0.159-0.011-0.188-0.056-0.101-0.192
	c0.194-0.304,0.463-0.515,0.831-0.526c0.373-0.013,0.75,0.027,1.083,0.217c0.456,0.261,0.901,0.536,1.169,1.017
	C12.787,19.909,12.903,20.184,12.908,20.371z"/>
<path fill="#FFFFFF" d="M19.571,27.014c-0.1-0.003-0.221-0.012-0.333-0.057c-0.1-0.04-0.123-0.119-0.047-0.174
	c0.313-0.234,0.484-0.572,0.669-0.897c0.268-0.472,0.499-0.962,0.676-1.477c0.052-0.153,0.058-0.302,0.03-0.457
	c-0.048-0.284-0.116-0.563-0.207-0.835c-0.029-0.088-0.004-0.133,0.07-0.178c0.292-0.175,0.583-0.126,0.869,0
	c0.284,0.128,0.485,0.356,0.668,0.6c0.29,0.384,0.499,0.808,0.602,1.282c0.057,0.26-0.071,0.401-0.235,0.506
	c-0.215,0.138-0.457,0.215-0.704,0.264c-0.184,0.036-0.326,0.13-0.462,0.249c-0.309,0.273-0.596,0.566-0.863,0.877
	C20.106,26.943,19.868,27.01,19.571,27.014z"/>
<path fill="#FFFFFF" d="M30.371,18.744c0.226-0.02,0.424,0.063,0.608,0.183c0.558,0.362,1.031,0.81,1.34,1.407
	c0.146,0.286,0.096,0.591-0.123,0.817c-0.106,0.111-0.231,0.164-0.398,0.135c-0.498-0.084-1-0.105-1.504-0.052
	c-0.527,0.053-1.035-0.055-1.529-0.232c-0.01-0.004-0.021-0.008-0.031-0.015c-0.043-0.024-0.103-0.04-0.094-0.104
	c0.008-0.057,0.065-0.058,0.109-0.07c0.381-0.11,0.708-0.312,0.995-0.58c0.161-0.152,0.144-0.298-0.042-0.42
	c-0.1-0.066-0.207-0.121-0.318-0.169c-0.193-0.085-0.335-0.222-0.392-0.434c-0.027-0.098-0.005-0.152,0.108-0.182
	c0.297-0.073,0.59-0.167,0.885-0.246C30.11,18.75,30.237,18.735,30.371,18.744z"/>
<path fill="#FFFFFF" d="M21.678,17.625c0.162-0.003,0.344,0.087,0.536,0.129c0.099,0.022,0.143,0.132,0.132,0.269
	c-0.021,0.246-0.106,0.477-0.197,0.703c-0.164,0.41-0.308,0.827-0.497,1.227c-0.229,0.484-0.574,0.811-1.117,0.9
	c-0.096,0.016-0.192,0.024-0.289,0.013c-0.13-0.015-0.18-0.095-0.142-0.22c0.054-0.184,0.164-0.341,0.26-0.504
	c0.094-0.161,0.191-0.318,0.286-0.479c0.071-0.122,0.083-0.257,0.068-0.395c-0.015-0.134-0.105-0.221-0.209-0.292
	c-0.225-0.157-0.328-0.396-0.444-0.629c-0.023-0.046-0.008-0.082,0.033-0.109c0.39-0.255,0.783-0.505,1.25-0.596
	C21.444,17.621,21.54,17.614,21.678,17.625z"/>
<path fill="#FFFFFF" d="M12.982,35.277c-0.039,0-0.077,0-0.116,0c-0.189,0-0.222-0.039-0.189-0.227
	c0.007-0.043,0.023-0.074,0.069-0.081c0.141-0.019,0.079-0.128,0.082-0.202c0.007-0.09-0.07-0.07-0.125-0.074
	c-0.034-0.002-0.07,0-0.104,0c-0.175,0-0.203,0.033-0.174,0.205c0.006,0.033,0.017,0.055,0.052,0.067
	c0.092,0.036,0.144,0.206,0.087,0.283c-0.021,0.028-0.053,0.028-0.083,0.028c-0.136,0-0.271-0.002-0.407,0
	c-0.074,0.002-0.109-0.028-0.103-0.103c0.009-0.084-0.045-0.196,0.103-0.218c0.042-0.006,0.037-0.055,0.037-0.088
	c0.001-0.221,0.001-0.442,0.001-0.663c-0.001-0.04-0.003-0.075-0.05-0.095c-0.081-0.035-0.127-0.205-0.08-0.278
	c0.023-0.037,0.06-0.032,0.094-0.033c0.131-0.001,0.263,0.001,0.396-0.001c0.062-0.001,0.113,0.016,0.106,0.09
	c-0.008,0.074,0.053,0.186-0.069,0.215c-0.138,0.032-0.076,0.133-0.081,0.207c-0.006,0.09,0.072,0.068,0.126,0.072
	c0.036,0.002,0.07,0,0.105,0c0.176,0,0.194-0.021,0.173-0.193c-0.004-0.043-0.017-0.071-0.065-0.08
	c-0.147-0.026-0.082-0.144-0.088-0.224c-0.007-0.095,0.068-0.086,0.132-0.086c0.123,0,0.248,0.002,0.372-0.001
	c0.074-0.001,0.109,0.029,0.101,0.104c-0.008,0.084,0.046,0.197-0.102,0.218c-0.041,0.006-0.036,0.055-0.036,0.088
	c-0.001,0.22-0.001,0.442,0,0.663c0,0.039,0.001,0.074,0.049,0.093c0.081,0.035,0.126,0.207,0.08,0.28
	c-0.02,0.031-0.052,0.031-0.083,0.031C13.122,35.277,13.052,35.277,12.982,35.277L12.982,35.277z"/>
<path fill="#FFFFFF" d="M32.126,33.801c0.098,0,0.193-0.002,0.291,0.001c0.191,0.007,0.332,0.101,0.415,0.271
	c0.082,0.167,0.065,0.338-0.05,0.481c-0.066,0.081-0.059,0.141-0.006,0.213c0.06,0.08,0.084,0.178,0.205,0.221
	c0.08,0.027,0.037,0.152,0.033,0.234c-0.005,0.064-0.066,0.053-0.111,0.055c-0.116,0.002-0.232,0.003-0.35,0
	c-0.05-0.002-0.121,0.021-0.135-0.053c-0.016-0.078-0.046-0.188,0.021-0.232c0.139-0.092,0.016-0.152-0.02-0.198
	c-0.051-0.067-0.146-0.042-0.219-0.024c-0.064,0.014-0.04,0.082-0.042,0.129c-0.002,0.035,0.016,0.055,0.051,0.067
	c0.093,0.035,0.144,0.206,0.087,0.283c-0.02,0.024-0.046,0.026-0.072,0.028c-0.145,0-0.289,0-0.431,0
	c-0.063,0-0.099-0.029-0.089-0.092c0.009-0.084-0.055-0.203,0.104-0.228c0.041-0.007,0.035-0.056,0.035-0.089
	c0-0.223,0-0.442,0-0.664c0-0.044-0.008-0.079-0.062-0.098c-0.144-0.041-0.066-0.159-0.072-0.244
	c-0.004-0.079,0.074-0.062,0.125-0.063C31.933,33.799,32.03,33.801,32.126,33.801z M32.326,34.436
	c0.149-0.002,0.226-0.047,0.237-0.142c0.01-0.08-0.028-0.146-0.1-0.166c-0.094-0.026-0.195-0.04-0.291,0.011
	c-0.003,0.002-0.004,0.006-0.004,0.006c-0.014,0.09-0.027,0.178,0.005,0.256C32.2,34.463,32.276,34.426,32.326,34.436z"/>
<path fill="#FFFFFF" d="M24.077,35.277c-0.043,0-0.086,0.006-0.126-0.002c-0.062-0.008-0.164,0.041-0.168-0.065
	c-0.004-0.084-0.077-0.21,0.083-0.247c0.029-0.006,0.034-0.029,0.027-0.054c-0.007-0.033-0.019-0.066-0.055-0.068
	c-0.119-0.002-0.24-0.002-0.359,0c-0.043,0-0.054,0.041-0.06,0.075c-0.006,0.035,0.02,0.042,0.047,0.053
	c0.13,0.047,0.069,0.157,0.071,0.238c0.002,0.087-0.077,0.07-0.131,0.07c-0.121,0.002-0.241-0.002-0.361,0
	c-0.077,0.002-0.116-0.023-0.111-0.105c0.005-0.092-0.034-0.199,0.118-0.218c0.048-0.006,0.05-0.073,0.063-0.116
	c0.093-0.304,0.186-0.607,0.272-0.913c0.026-0.09,0.063-0.128,0.161-0.125c0.424,0.013,0.312-0.069,0.44,0.328
	c0.079,0.242,0.147,0.489,0.22,0.733c0.013,0.043,0.021,0.096,0.079,0.104c0.169,0.024,0.091,0.153,0.094,0.239
	c0.004,0.104-0.09,0.068-0.149,0.074C24.179,35.282,24.127,35.277,24.077,35.277z M23.67,34.165c-0.009,0-0.019,0-0.028-0.002
	c-0.028,0.092-0.056,0.185-0.084,0.276c-0.01,0.031-0.015,0.065,0.024,0.078c0.052,0.016,0.109,0.019,0.159-0.004
	c0.032-0.013,0.02-0.045,0.012-0.072C23.727,34.35,23.698,34.257,23.67,34.165z"/>
<path fill="#FFFFFF" d="M15.51,35.277c-0.136,0-0.271,0-0.407,0c-0.052,0-0.111-0.004-0.103-0.075
	c0.006-0.077-0.055-0.185,0.052-0.226c0.07-0.026,0.086-0.062,0.085-0.127c-0.002-0.207-0.001-0.418-0.001-0.627
	c0-0.06-0.011-0.095-0.079-0.119c-0.118-0.043-0.05-0.153-0.058-0.232c-0.006-0.073,0.057-0.071,0.107-0.071
	c0.272,0,0.542,0.001,0.813-0.001c0.079-0.001,0.116,0.027,0.111,0.109c-0.003,0.049,0,0.1,0,0.15c0,0.19-0.057,0.235-0.245,0.192
	c-0.029-0.007-0.048-0.019-0.06-0.048c-0.041-0.084-0.149-0.129-0.231-0.086c-0.083,0.041-0.037,0.123-0.044,0.188
	c-0.007,0.053,0.023,0.078,0.076,0.077c0.012,0,0.023,0.001,0.035,0.001c0.18,0.006,0.226,0.068,0.182,0.244
	c-0.024,0.1-0.104,0.062-0.162,0.064c-0.077,0.004-0.137,0.004-0.136,0.108c0.002,0.157,0.059,0.206,0.214,0.164
	c0.024-0.006,0.045-0.014,0.053-0.039c0.013-0.038,0.008-0.094,0.065-0.097c0.069-0.003,0.139-0.001,0.209,0.004
	c0.026,0.002,0.036,0.025,0.039,0.051c0.001,0.02,0.004,0.039,0.003,0.059c-0.006,0.402,0.058,0.326-0.322,0.334
	C15.642,35.28,15.576,35.277,15.51,35.277L15.51,35.277z"/>
<path fill="#FFFFFF" d="M29.479,33.801c0.139,0,0.278,0.001,0.418,0c0.067-0.002,0.1,0.028,0.097,0.098
	c-0.001,0.053,0.001,0.107,0.001,0.162c-0.001,0.19-0.059,0.235-0.245,0.191c-0.03-0.006-0.047-0.02-0.06-0.048
	c-0.041-0.083-0.151-0.128-0.232-0.085c-0.081,0.042-0.035,0.123-0.043,0.188c-0.006,0.055,0.025,0.078,0.077,0.077
	c0.012,0,0.022,0.001,0.036,0.001c0.178,0.006,0.225,0.071,0.179,0.245c-0.024,0.097-0.104,0.062-0.162,0.063
	c-0.078,0.004-0.136,0.005-0.134,0.108c0.002,0.158,0.059,0.207,0.215,0.163c0.023-0.006,0.044-0.015,0.053-0.04
	c0.012-0.039,0.008-0.093,0.065-0.096c0.069-0.003,0.139,0,0.208,0.004c0.021,0.001,0.033,0.021,0.035,0.041
	c0.004,0.01,0.005,0.022,0.006,0.034c0.044,0.355,0.033,0.369-0.323,0.369c-0.198,0-0.396,0-0.593,0
	c-0.055,0-0.122,0.006-0.115-0.075s-0.057-0.188,0.064-0.229c0.063-0.021,0.074-0.058,0.074-0.109c-0.002-0.219,0-0.437-0.002-0.652
	c0-0.039,0.002-0.075-0.045-0.096c-0.085-0.04-0.13-0.198-0.085-0.278c0.023-0.042,0.065-0.034,0.103-0.036
	C29.208,33.8,29.343,33.801,29.479,33.801z"/>
<path fill="#FFFFFF" d="M20.49,33.801c0.092,0,0.186-0.002,0.279,0c0.251,0.004,0.449,0.186,0.472,0.426
	c0.023,0.248-0.138,0.463-0.387,0.519c-0.081,0.017-0.161,0.014-0.243,0.017c-0.055,0-0.089,0.022-0.086,0.081
	c0.001,0.052-0.016,0.111,0.065,0.126c0.146,0.027,0.081,0.146,0.086,0.227c0.007,0.095-0.071,0.082-0.132,0.082
	c-0.121,0-0.241-0.002-0.361,0c-0.086,0.004-0.119-0.032-0.113-0.116c0.008-0.083-0.033-0.187,0.104-0.203
	c0.037-0.005,0.036-0.047,0.036-0.08c0-0.228,0-0.456,0-0.685c0-0.043-0.015-0.07-0.062-0.084c-0.143-0.041-0.066-0.16-0.072-0.244
	c-0.005-0.08,0.073-0.062,0.124-0.064C20.295,33.799,20.393,33.801,20.49,33.801z M20.674,34.436c0.014,0,0.021,0,0.029,0
	c0.102,0.006,0.188-0.017,0.22-0.127c0.021-0.07-0.015-0.127-0.071-0.17c-0.045-0.035-0.271-0.041-0.305-0.012
	c-0.005,0.005-0.013,0.012-0.014,0.018c-0.017,0.086-0.025,0.172,0.002,0.252C20.557,34.46,20.63,34.426,20.674,34.436z"/>
<path fill="#FFFFFF" d="M26.526,33.801c0.094,0,0.186-0.002,0.279,0c0.243,0.006,0.44,0.186,0.463,0.424
	c0.022,0.237-0.131,0.455-0.363,0.514c-0.086,0.022-0.176,0.022-0.266,0.022c-0.053,0-0.091,0.019-0.088,0.079
	c0.004,0.051-0.019,0.113,0.062,0.128c0.146,0.025,0.082,0.144,0.088,0.224c0.007,0.094-0.067,0.086-0.131,0.086
	c-0.127,0-0.254-0.002-0.383,0c-0.063,0-0.096-0.026-0.092-0.092c0.006-0.092-0.041-0.209,0.112-0.234
	c0.033-0.006,0.026-0.051,0.026-0.081c0.002-0.222,0-0.442,0-0.663c0-0.038-0.002-0.074-0.047-0.094
	c-0.082-0.036-0.127-0.204-0.082-0.279c0.022-0.038,0.059-0.032,0.093-0.034C26.31,33.8,26.418,33.801,26.526,33.801z
	 M26.748,34.109c-0.197,0-0.197,0-0.197,0.166c0,0.029,0.001,0.056,0.001,0.082c0,0.045,0.021,0.074,0.068,0.076
	c0.07,0,0.141,0.004,0.208-0.006c0.077-0.012,0.122-0.07,0.125-0.146c0.004-0.082-0.042-0.14-0.122-0.163
	C26.796,34.107,26.756,34.111,26.748,34.109z"/>
<path fill="#FFFFFF" d="M9.679,33.801c0.164,0,0.326,0.002,0.489-0.001c0.08-0.001,0.113,0.032,0.109,0.11
	c-0.001,0.042,0,0.084,0,0.127c0,0.229,0,0.229-0.224,0.217c-0.06-0.003-0.096-0.02-0.104-0.082
	c-0.004-0.035-0.022-0.058-0.061-0.056c-0.04,0.004-0.05,0.036-0.05,0.065c0,0.237,0,0.475,0,0.711c0,0.034,0.015,0.056,0.049,0.07
	c0.081,0.038,0.126,0.206,0.079,0.281c-0.02,0.031-0.051,0.031-0.082,0.031c-0.14,0-0.279-0.002-0.418,0
	c-0.071,0-0.1-0.032-0.097-0.1c0.003-0.094-0.038-0.211,0.124-0.222c0.035-0.002,0.034-0.047,0.034-0.078c0-0.226,0-0.45,0-0.674
	c0-0.04,0-0.081-0.053-0.089c-0.048-0.008-0.067,0.019-0.08,0.062c-0.041,0.139-0.155,0.062-0.235,0.072
	c-0.081,0.008-0.074-0.064-0.073-0.118c0.006-0.397-0.055-0.323,0.316-0.332C9.493,33.799,9.586,33.801,9.679,33.801z"/>
<path fill="#7C272D" d="M14.263,25.398c-0.003-0.194,0.055-0.361,0.192-0.505c0.173-0.184,0.333-0.377,0.499-0.567
	c0.152-0.173,0.357-0.207,0.571-0.211c0.068,0,0.114,0.048,0.123,0.118c0.01,0.078,0.003,0.155-0.074,0.192
	c-0.281,0.131-0.46,0.374-0.667,0.587c-0.153,0.159-0.302,0.321-0.469,0.468c-0.038,0.034-0.081,0.086-0.141,0.057
	C14.242,25.508,14.267,25.446,14.263,25.398z"/>
<path fill="#7C272D" d="M32.326,34.436c-0.048-0.01-0.125,0.028-0.152-0.035c-0.034-0.078-0.019-0.168-0.005-0.252
	c0,0,0.001-0.008,0.004-0.01c0.096-0.051,0.197-0.039,0.291-0.011c0.071,0.021,0.107,0.086,0.1,0.166
	C32.551,34.389,32.476,34.434,32.326,34.436z"/>
<path fill="#231815" d="M23.67,34.165c0.028,0.093,0.057,0.185,0.083,0.276c0.008,0.025,0.02,0.059-0.012,0.072
	c-0.05,0.021-0.107,0.019-0.159,0.004c-0.039-0.013-0.034-0.048-0.024-0.08c0.028-0.092,0.056-0.184,0.084-0.275
	C23.651,34.164,23.661,34.165,23.67,34.165z"/>
<path fill="#7C272D" d="M20.674,34.436c-0.044-0.01-0.117,0.024-0.139-0.039c-0.027-0.082-0.019-0.168-0.002-0.252
	c0-0.006,0.008-0.013,0.014-0.018c0.034-0.027,0.26-0.021,0.305,0.012c0.056,0.043,0.091,0.1,0.071,0.17
	c-0.032,0.11-0.118,0.133-0.22,0.127C20.695,34.436,20.688,34.436,20.674,34.436z"/>
<path fill="#7C272D" d="M26.748,34.109c0.008,0.002,0.048-0.002,0.084,0.009c0.081,0.022,0.126,0.081,0.122,0.163
	c-0.004,0.076-0.049,0.134-0.125,0.146c-0.068,0.011-0.139,0.007-0.208,0.005c-0.047,0-0.067-0.029-0.067-0.076
	c0-0.025-0.002-0.053-0.002-0.08C26.551,34.109,26.551,34.109,26.748,34.109z"/>
</svg>
