<?xml version="1.0" encoding="utf-8"?>
<!-- Generator: Adobe Illustrator 16.0.0, SVG Export Plug-In . SVG Version: 6.00 Build 0)  -->
<!DOCTYPE svg PUBLIC "-//W3C//DTD SVG 1.1//EN" "http://www.w3.org/Graphics/SVG/1.1/DTD/svg11.dtd">
<svg version="1.1" id="图层_1" xmlns="http://www.w3.org/2000/svg" xmlns:xlink="http://www.w3.org/1999/xlink" x="0px" y="0px"
	 width="40px" height="40px" viewBox="0 0 40 40" enable-background="new 0 0 40 40" xml:space="preserve">
<path fill="#FBB03B" d="M40,20c0,11.042-8.957,20-20,20S0,31.042,0,20C0,8.957,8.957,0,20,0S40,8.957,40,20z"/>
<g>
	<path d="M19.529,16.981l-4.202,0.46c-0.39-1.09-1.173-1.641-2.341-1.641c-1.148,0-2.063,0.585-2.74,1.746
		c-0.67,1.163-1.006,2.411-1.006,3.738c0,0.764,0.248,1.406,0.748,1.931c0.5,0.516,1.138,0.779,1.914,0.779h0.038
		c0.881,0,1.652-0.23,2.317-0.681l0.311-1.483h-2.615l0.631-2.883h6.451l-1.39,6.499c-2.148,1.064-4.282,1.604-6.398,1.604
		c-1.901,0-3.415-0.515-4.53-1.552c-1.116-1.028-1.674-2.48-1.674-4.35c0-1.558,0.355-2.986,1.066-4.289
		c0.71-1.301,1.711-2.316,2.999-3.032c1.295-0.728,2.777-1.081,4.454-1.081C16.831,12.747,18.818,14.154,19.529,16.981z"/>
	<path d="M28.716,12.747c2.1,0,3.655,0.56,4.642,1.694c0.983,1.128,1.479,2.515,1.479,4.167c0,0.629-0.09,1.354-0.275,2.168
		c-0.19,0.816-0.529,1.659-1.062,2.53c-0.518,0.87-1.193,1.609-2.034,2.219c-0.824,0.609-1.633,1.015-2.397,1.219
		c-0.763,0.202-1.578,0.308-2.446,0.308c-1.973,0-3.51-0.507-4.621-1.502c-1.105-1.004-1.662-2.402-1.662-4.21
		c0-0.941,0.137-1.864,0.413-2.759s0.685-1.74,1.228-2.536c0.542-0.795,1.214-1.466,2.008-2.001
		c0.797-0.537,1.576-0.889,2.354-1.053C27.111,12.828,27.902,12.747,28.716,12.747z M26.887,23.898c0.826,0,1.524-0.311,2.1-0.94
		c0.576-0.617,0.998-1.403,1.26-2.351c0.264-0.947,0.399-1.62,0.399-2.02c0-0.891-0.231-1.559-0.678-2.012
		c-0.443-0.455-1.017-0.677-1.724-0.677c-0.779,0-1.45,0.285-2.009,0.851c-0.566,0.572-0.984,1.33-1.275,2.277
		c-0.277,0.945-0.419,1.751-0.419,2.419c0,0.7,0.209,1.29,0.621,1.75C25.576,23.662,26.152,23.898,26.887,23.898z"/>
</g>
</svg>
