<?xml version="1.0" encoding="utf-8"?>
<!-- Generator: Adobe Illustrator 16.0.0, SVG Export Plug-In . SVG Version: 6.00 Build 0)  -->
<!DOCTYPE svg PUBLIC "-//W3C//DTD SVG 1.1//EN" "http://www.w3.org/Graphics/SVG/1.1/DTD/svg11.dtd">
<svg version="1.1" id="图层_1" xmlns="http://www.w3.org/2000/svg" xmlns:xlink="http://www.w3.org/1999/xlink" x="0px" y="0px"
	 width="235px" height="235.498px" viewBox="0 0 235 235.498" enable-background="new 0 0 235 235.498" xml:space="preserve">
<g>
	<circle fill="#875635" cx="117.999" cy="117.498" r="20.223"/>
	<g>
		<g>
			<g>
				<circle fill="#875635" cx="46.145" cy="11.282" r="11.066"/>
				<path fill="#875635" d="M197.732,233.574c-5.051,3.442-11.937,2.14-15.38-2.91c-3.442-5.048-2.139-11.932,2.91-15.375
					c5.051-3.441,11.936-2.139,15.379,2.91C204.084,223.247,202.782,230.13,197.732,233.574z"/>
				
					<rect x="-3.299" y="118.722" transform="matrix(0.5634 0.8262 -0.8262 0.5634 153.4156 -46.9284)" fill="#875635" width="248.817" height="5.937"/>
			</g>
			<g>
				<circle fill="#875635" cx="224.262" cy="49.25" r="11.066"/>
				<circle fill="#875635" cx="11.068" cy="194.572" r="11.066"/>
				
					<rect x="-10.768" y="121.195" transform="matrix(-0.8263 0.5632 -0.5632 -0.8263 277.4904 162.7474)" fill="#875635" width="248.835" height="5.938"/>
			</g>
		</g>
		<g opacity="0.15">
			<line fill="none" stroke="#FFFFFF" stroke-miterlimit="10" x1="236" y1="116.796" x2="0.151" y2="116.796"/>
			<line fill="none" stroke="#FFFFFF" stroke-miterlimit="10" x1="233.929" y1="93.938" x2="2.457" y2="139.971"/>
			<line fill="none" stroke="#FFFFFF" stroke-miterlimit="10" x1="1.857" y1="93.73" x2="234.067" y2="139.91"/>
			<line fill="none" stroke="#FFFFFF" stroke-miterlimit="10" x1="201.567" y1="33.833" x2="34.685" y2="200.68"/>
			<line fill="none" stroke="#FFFFFF" stroke-miterlimit="10" x1="34.685" y1="33.271" x2="201.939" y2="200.491"/>
			<line fill="none" stroke="#FFFFFF" stroke-miterlimit="10" x1="118.675" y1="-0.503" x2="118.675" y2="235.294"/>
			<line fill="none" stroke="#FFFFFF" stroke-miterlimit="10" x1="163.356" y1="8.282" x2="73.04" y2="226.276"/>
			<line fill="none" stroke="#FFFFFF" stroke-miterlimit="10" x1="9.147" y1="71.688" x2="227.234" y2="162.003"/>
			<line fill="none" stroke="#FFFFFF" stroke-miterlimit="10" x1="227.189" y1="71.814" x2="9.147" y2="162.111"/>
			<line fill="none" stroke="#FFFFFF" stroke-miterlimit="10" x1="73.526" y1="8.17" x2="163.85" y2="226.183"/>
			<line fill="none" stroke="#FFFFFF" stroke-miterlimit="10" x1="183.719" y1="19.176" x2="52.602" y2="215.367"/>
			<line fill="none" stroke="#FFFFFF" stroke-miterlimit="10" x1="18.389" y1="50.142" x2="216.583" y2="182.543"/>
			<line fill="none" stroke="#FFFFFF" stroke-miterlimit="10" x1="95.634" y1="1.53" x2="141.791" y2="233.523"/>
			<line fill="none" stroke="#FFFFFF" stroke-miterlimit="10" x1="141.257" y1="1.568" x2="95.215" y2="232.991"/>
			<line fill="none" stroke="#FFFFFF" stroke-miterlimit="10" x1="216.261" y1="51.43" x2="20.03" y2="182.52"/>
			<line fill="none" stroke="#FFFFFF" stroke-miterlimit="10" x1="53.111" y1="18.95" x2="184.219" y2="215.124"/>
		</g>
		<circle fill="#A67C52" cx="118.057" cy="117.68" r="15.51"/>
	</g>
</g>
</svg>
