<?xml version="1.0" encoding="utf-8"?>
<!-- Generator: Adobe Illustrator 16.0.0, SVG Export Plug-In . SVG Version: 6.00 Build 0)  -->
<!DOCTYPE svg PUBLIC "-//W3C//DTD SVG 1.1//EN" "http://www.w3.org/Graphics/SVG/1.1/DTD/svg11.dtd">
<svg version="1.1" id="图层_1" xmlns="http://www.w3.org/2000/svg" xmlns:xlink="http://www.w3.org/1999/xlink" x="0px" y="0px"
	 width="150px" height="63.809px" viewBox="0 0 150 63.809" enable-background="new 0 0 150 63.809" xml:space="preserve">
<g>
	<g>
		<g>
			<defs>
				<rect id="SVGID_1_" width="150" height="65"/>
			</defs>
			<clipPath id="SVGID_2_">
				<use xlink:href="#SVGID_1_"  overflow="visible"/>
			</clipPath>
			<g id="XMLID_2_" clip-path="url(#SVGID_2_)">
				<g>
					<path fill="#E27C21" d="M84.185-0.782c-0.327-6.933-2.342-13.423-5.639-19.07c13.145,1.228,24.525,8.527,31.306,19.07H84.185z"
						/>
					<path fill="#100A04" d="M77.95,23.308c-0.882,1.429-1.85,2.795-2.897,4.099c-1.68-2.092-3.157-4.349-4.412-6.745
						C73.001,21.695,75.442,22.582,77.95,23.308z"/>
					<path fill="#165668" d="M39.358-0.782H0.533c0.94-19.805,15.639-36.008,34.75-39.255c-0.21,2.011-0.313,4.053-0.313,6.118
						c0,10.498,2.714,20.364,7.479,28.931C41.333-3.653,40.299-2.251,39.358-0.782z"/>
					<path fill="#165668" d="M39.358-0.782c0.94-1.469,1.975-2.871,3.09-4.206c0.806,1.438,1.666,2.845,2.58,4.206H39.358z"/>
					<path fill="#E27C21" d="M149.572-0.782h-5.536c1.666-2.477,3.144-5.088,4.425-7.811C149.066-6.071,149.447-3.461,149.572-0.782
						z"/>
					<path fill="#40400B" d="M109.852-0.782h34.185c-6.673,9.951-16.271,17.78-27.562,22.259
						C116.408,13.28,113.985,5.645,109.852-0.782z"/>
					<path fill="#CD3C46" d="M107.747,43.112c1.008,0,2.006-0.036,2.996-0.107c-7.269,12.388-20.731,20.709-36.138,20.709
						c-15.438,0-28.923-8.353-36.187-20.785c1.294,0.121,2.611,0.184,3.941,0.184c13.226,0,25.018-6.131,32.694-15.706
						C82.729,36.981,94.521,43.112,107.747,43.112z"/>
					<path fill="#12141D" d="M75.053,27.406c-7.676,9.575-19.468,15.706-32.694,15.706c-1.33,0-2.647-0.062-3.941-0.184
						c-3.614-6.194-5.688-13.4-5.688-21.09c0-8.335,2.432-16.096,6.628-22.621h5.67c6.288,9.373,15.165,16.866,25.613,21.443
						C71.896,23.058,73.373,25.314,75.053,27.406z"/>
					<path fill="#E27C21" d="M78.546-19.853c-1.294-0.121-2.611-0.184-3.941-0.184c-1.008,0-2.006,0.036-2.996,0.107
						c1.025-1.755,2.176-3.426,3.444-5.002C76.338-23.332,77.507-21.635,78.546-19.853z"/>
					<path fill="#40400B" d="M144.037-0.782h-34.185c-6.781-10.543-18.161-17.843-31.306-19.07
						c-1.039-1.782-2.208-3.479-3.493-5.078c7.676-9.576,19.468-15.707,32.694-15.707c19.742,0,36.29,13.66,40.715,32.045
						C147.181-5.87,145.703-3.259,144.037-0.782z"/>
					<path fill="#100A04" d="M84.185-0.782c0.031,0.667,0.049,1.344,0.049,2.02c0,8.098-2.297,15.662-6.284,22.07
						c-2.508-0.726-4.949-1.612-7.309-2.646c-3.05-5.805-4.77-12.415-4.77-19.424c0-0.676,0.018-1.353,0.049-2.02H84.185z"/>
					<path fill="#330F03" d="M116.475,21.477c-6.79,2.691-14.192,4.169-21.94,4.169c-5.755,0-11.322-0.814-16.584-2.338
						c3.986-6.408,6.284-13.973,6.284-22.07c0-0.676-0.018-1.353-0.049-2.02h25.667C113.985,5.645,116.408,13.28,116.475,21.477z"/>
					<path fill="#488356" d="M154.1-33.919c0,9.055-2.02,17.641-5.639,25.327c-4.425-18.385-20.973-32.045-40.715-32.045
						c-13.226,0-25.018,6.131-32.694,15.707c-7.676-9.576-19.468-15.707-32.694-15.707c-2.414,0-4.779,0.206-7.076,0.6
						c3.059-30.02,28.417-53.447,59.252-53.447C127.43-93.485,154.1-66.815,154.1-33.919z"/>
					<path fill="#165668" d="M0.533-0.782h38.825c-4.197,6.525-6.628,14.286-6.628,22.621c0,7.689,2.074,14.896,5.688,21.09
						C17.14,40.94,0.484,23.035,0.484,1.237C0.484,0.562,0.502-0.115,0.533-0.782z"/>
					<path fill="#165668" d="M45.028-0.782c-0.914-1.361-1.773-2.768-2.58-4.206c7.085-8.478,17.458-14.116,29.16-14.94
						c-3.328,5.666-5.356,12.182-5.688,19.146H45.028z"/>
					<path fill="#165668" d="M42.359-40.638c13.226,0,25.018,6.131,32.694,15.707c-1.268,1.576-2.418,3.247-3.444,5.002
						c-11.703,0.824-22.075,6.463-29.16,14.94c-4.766-8.567-7.479-18.434-7.479-28.931c0-2.065,0.103-4.107,0.313-6.118
						C37.58-40.432,39.945-40.638,42.359-40.638z"/>
					<path fill="#B61D09" d="M94.535,25.646c7.748,0,15.151-1.478,21.94-4.169c0.005,0.12,0.005,0.241,0.005,0.362
						c0,7.722-2.087,14.954-5.737,21.166c-0.99,0.071-1.988,0.107-2.996,0.107c-13.226,0-25.018-6.131-32.694-15.706
						c1.048-1.304,2.015-2.67,2.897-4.099C83.213,24.831,88.78,25.646,94.535,25.646z"/>
					<path fill="#040501" d="M45.028-0.782h20.893c-0.031,0.667-0.049,1.344-0.049,2.02c0,7.009,1.72,13.619,4.77,19.424
						C60.193,16.084,51.316,8.591,45.028-0.782z"/>
					<path fill="#E27C21" d="M84.185-0.782H65.921c0.332-6.965,2.36-13.48,5.688-19.146c0.99-0.071,1.988-0.107,2.996-0.107
						c1.33,0,2.647,0.062,3.941,0.184C81.842-14.205,83.857-7.715,84.185-0.782z"/>
					<path fill="#E27C21" d="M149.572-0.782c0.031,0.667,0.049,1.344,0.049,2.02c0,22.12-17.149,40.231-38.879,41.768
						c3.65-6.212,5.737-13.444,5.737-21.166c0-0.121,0-0.242-0.005-0.362c11.291-4.479,20.888-12.308,27.562-22.259H149.572z"/>
				</g>
				<g>
				</g>
			</g>
		</g>
	</g>
	<g>
		<g>
			<path fill-rule="evenodd" clip-rule="evenodd" fill="#FFFFFF" d="M92.79,25.763c0.026,0.299,0.046,0.6,0.08,0.897
				c0.081,0.712,0.082,1.426,0.093,2.141c0.012,0.748,0.046,1.496,0.066,2.244c0.01,0.355,0.012,0.71,0.013,1.063
				c0.001,0.657,0.078,1.31,0.09,1.966c0.008,0.411-0.01,0.434-0.417,0.525c-0.351,0.079-0.704,0.151-1.064,0.166
				c-0.261,0.009-0.298-0.021-0.35-0.28c-0.064-0.314-0.091-0.637-0.098-0.956c-0.022-1.03-0.207-2.038-0.42-3.043
				c-0.132-0.618-0.205-1.245-0.198-1.88c0.007-0.784-0.016-1.567,0.01-2.351c0.02-0.592-0.002-1.186,0.04-1.777
				c0.005-0.082,0.048-0.191-0.044-0.24c-0.084-0.045-0.167,0.025-0.244,0.067c-0.148,0.078-0.262,0.199-0.386,0.308
				c-0.029,0.025-0.055,0.055-0.085,0.08c-0.47,0.436-0.98,0.424-1.426-0.037c-0.228-0.237-0.411-0.505-0.556-0.8
				c-0.137-0.279-0.109-0.496,0.125-0.696c0.681-0.582,1.313-1.216,2.007-1.781c0.106-0.086,0.158-0.196,0.174-0.325
				c0.024-0.183,0.045-0.367,0.037-0.552c-0.004-0.086,0.015-0.189-0.082-0.231c-0.099-0.044-0.204-0.027-0.292,0.035
				c-0.103,0.073-0.199,0.155-0.283,0.253c-0.105,0.119-0.214,0.238-0.328,0.352c-0.132,0.133-0.229,0.152-0.369,0.03
				c-0.607-0.529-0.913-1.019-0.731-1.775c0.046-0.194,0.096-0.388,0.137-0.582c0.022-0.108,0.085-0.166,0.188-0.199
				c0.262-0.087,0.534-0.095,0.806-0.119c0.236-0.021,0.475-0.023,0.712-0.037c0.205-0.011,0.229-0.034,0.259-0.237
				c0.029-0.187-0.007-0.367-0.037-0.55c-0.02-0.111-0.081-0.143-0.19-0.113c-0.22,0.059-0.441,0.115-0.669,0.142
				c-0.414,0.05-0.565-0.079-0.648-0.374c-0.067-0.239-0.15-0.473-0.185-0.718c-0.034-0.235,0.02-0.342,0.227-0.454
				c0.146-0.077,0.302-0.137,0.463-0.175c0.366-0.087,0.637-0.293,0.82-0.623c0.129-0.233,0.213-0.478,0.234-0.745
				c0.008-0.128-0.049-0.201-0.173-0.229c-0.236-0.054-0.474-0.023-0.711-0.013c-0.295,0.014-0.59,0.075-0.887,0.018
				c-0.152-0.028-0.324-0.049-0.381-0.223c-0.061-0.184,0.079-0.298,0.192-0.41c0.039-0.037,0.082-0.072,0.13-0.094
				c0.356-0.155,0.699-0.346,1.075-0.443c0.526-0.137,0.987-0.407,1.462-0.649c0.312-0.157,0.623-0.32,0.957-0.431
				c0.108-0.036,0.204-0.032,0.308,0.02c0.316,0.16,0.651,0.28,0.955,0.469c0.251,0.157,0.33,0.367,0.283,0.645
				c-0.063,0.385-0.226,0.731-0.425,1.062c-0.113,0.188-0.297,0.243-0.499,0.253c-0.091,0.004-0.184-0.015-0.276-0.019
				c-0.083-0.005-0.173-0.018-0.225,0.065c-0.055,0.087-0.031,0.181,0.016,0.263c0.104,0.182,0.348,0.376,0.636,0.32
				c0.271-0.053,0.547-0.087,0.821-0.126c0.273-0.041,0.362,0.017,0.428,0.286c0.104,0.415,0.127,0.837,0.049,1.259
				c-0.051,0.273-0.192,0.497-0.436,0.646c-0.184,0.111-0.376,0.146-0.585,0.069c-0.127-0.046-0.267-0.099-0.38,0.027
				c-0.142,0.156-0.184,0.344-0.118,0.542c0.034,0.104,0.125,0.152,0.234,0.133c0.234-0.038,0.475-0.037,0.667-0.237
				c0.143-0.149,0.357-0.222,0.564-0.261c0.189-0.037,0.358,0.062,0.527,0.135c0.233,0.099,0.461,0.207,0.694,0.307
				c0.174,0.075,0.259,0.163,0.232,0.342c-0.075,0.499-0.197,0.99-0.554,1.371c-0.251,0.268-0.568,0.461-0.895,0.622
				c-0.245,0.12-0.333,0.33-0.4,0.56c-0.041,0.135,0.027,0.197,0.167,0.158c0.202-0.055,0.399-0.126,0.598-0.187
				c0.168-0.051,0.337-0.103,0.515-0.074c0.253,0.04,0.4,0.257,0.356,0.51c-0.032,0.181-0.113,0.342-0.205,0.496
				c-0.147,0.248-0.333,0.467-0.508,0.693c-0.282,0.363-0.699,0.476-1.094,0.636c-0.099,0.039-0.199,0.084-0.302,0.108
				c-0.163,0.041-0.228,0.147-0.241,0.303c-0.047,0.508-0.127,1.013-0.114,1.525c0.002,0.09,0,0.173,0.112,0.208
				c0.06,0.019,0.07,0.09,0.094,0.143c0.147,0.33,0.378,0.503,0.677,0.474c0.375-0.033,0.417-0.18,0.337-0.439
				c-0.05-0.161-0.012-0.216,0.159-0.228c0.313-0.02,0.592,0.086,0.846,0.265c0.068,0.048,0.136,0.096,0.198,0.149
				c0.245,0.208,0.52,0.358,0.832,0.438c0.395,0.103,0.61,0.377,0.717,0.752c0.127,0.452,0.118,0.903-0.011,1.354
				c-0.114,0.399-0.381,0.623-0.783,0.688c-0.833,0.134-1.813-0.404-2.172-1.164c-0.243-0.514-0.496-1.024-0.788-1.514
				c-0.04-0.066-0.083-0.129-0.125-0.194C92.806,25.759,92.798,25.761,92.79,25.763"/>
			<path fill-rule="evenodd" clip-rule="evenodd" fill="#FFFFFF" d="M84.868,23.734c-0.076,0.026-0.095,0.104-0.139,0.158
				c-0.187,0.226-0.428,0.312-0.712,0.282c-0.129-0.013-0.206-0.087-0.244-0.216c-0.125-0.426-0.226-0.857-0.3-1.293
				c-0.064-0.377,0.02-0.689,0.371-0.936c0.353-0.251,0.603-0.619,0.853-0.974c0.009-0.012,0.014-0.025,0.022-0.036
				c0.236-0.303,0.204-0.474-0.137-0.704c-0.122-0.082-0.241-0.166-0.367-0.239c-0.226-0.132-0.346-0.339-0.41-0.58
				c-0.046-0.178-0.081-0.361-0.105-0.543c-0.027-0.19,0.021-0.269,0.203-0.334c0.137-0.05,0.278-0.087,0.419-0.124
				c0.366-0.093,0.611-0.498,0.586-0.908c-0.013-0.198-0.095-0.27-0.304-0.274c-0.274-0.006-0.542-0.035-0.812-0.085
				c-0.119-0.021-0.186-0.07-0.203-0.202c-0.03-0.231-0.088-0.459-0.097-0.692c-0.008-0.174,0.053-0.247,0.225-0.283
				c0.144-0.03,0.29-0.032,0.436-0.032c0.382,0,0.729-0.104,1.027-0.349c0.125-0.103,0.266-0.187,0.375-0.302
				c0.204-0.216,0.465-0.278,0.739-0.298c0.314-0.024,0.629-0.059,0.945-0.008c0.131,0.021,0.258,0.042,0.367,0.125
				c0.092,0.07,0.207,0.085,0.312,0.118c0.229,0.069,0.319,0.177,0.333,0.416c0.007,0.12,0.003,0.242-0.019,0.364
				c-0.043,0.248-0.115,0.49-0.133,0.745c-0.007,0.098-0.055,0.188-0.122,0.26c-0.112,0.122-0.227,0.241-0.35,0.35
				c-0.126,0.11-0.284,0.113-0.442,0.11c-0.202-0.005-0.248,0.03-0.293,0.226c-0.057,0.242-0.102,0.486-0.052,0.737
				c0.037,0.185,0.09,0.229,0.278,0.226c0.086-0.002,0.174-0.015,0.261-0.028c0.318-0.046,0.421,0.052,0.368,0.367
				c-0.039,0.245-0.095,0.487-0.14,0.73c-0.048,0.263-0.09,0.527-0.081,0.796c0.01,0.305-0.117,0.563-0.337,0.747
				c-0.281,0.235-0.355,0.511-0.346,0.86c0.013,0.472-0.091,0.937-0.146,1.404c-0.084,0.733-0.194,1.464-0.234,2.202
				c-0.024,0.451-0.117,0.896-0.179,1.345c-0.047,0.346-0.063,0.696-0.125,1.041c-0.033,0.186-0.102,0.355-0.194,0.518
				c-0.138,0.243-0.251,0.295-0.529,0.246c-0.294-0.05-0.405-0.163-0.47-0.45c-0.178-0.792-0.418-1.56-0.928-2.213
				c-0.073-0.095-0.034-0.146,0.061-0.166c0.104-0.024,0.211-0.034,0.317-0.049c0.129-0.018,0.229-0.067,0.259-0.213
				c0.117-0.567,0.212-1.137,0.217-1.718C84.892,23.818,84.91,23.772,84.868,23.734"/>
			<path fill-rule="evenodd" clip-rule="evenodd" fill="#FFFFFF" d="M78.675,30.945c-0.016-0.96,0.067-1.852,0.089-2.746
				c0.015-0.597-0.056-1.181-0.182-1.763c-0.189-0.87-0.371-1.741-0.555-2.611c-0.04-0.185-0.081-0.371-0.12-0.556
				c-0.074-0.354-0.258-0.647-0.498-0.91c-0.134-0.146-0.196-0.317-0.194-0.519c0.006-0.687,0.063-1.368,0.205-2.042
				c0.025-0.118,0.055-0.237,0.11-0.347c0.098-0.193,0.199-0.211,0.339-0.049c0.098,0.114,0.185,0.238,0.272,0.361
				c0.273,0.39,0.508,0.808,0.819,1.171c0.22,0.254,0.45,0.499,0.718,0.703c0.104,0.082,0.156,0.188,0.186,0.306
				c0.137,0.521,0.207,1.049,0.139,1.587c-0.008,0.053-0.016,0.107-0.033,0.157c-0.328,0.967-0.276,1.963-0.25,2.959
				c0.01,0.359,0.137,0.685,0.244,1.017c0.105,0.327,0.286,0.368,0.559,0.156c0.721-0.562,1.262-1.278,1.751-2.036
				c0.261-0.405,0.511-0.816,0.768-1.224c0.086-0.137,0.188-0.262,0.319-0.358c0.144-0.104,0.247-0.059,0.28,0.117
				c0.035,0.186,0.014,0.371-0.021,0.552c-0.12,0.632-0.346,1.233-0.561,1.839c-0.284,0.796-0.699,1.516-1.187,2.201
				c-0.221,0.31-0.39,0.642-0.438,1.035c-0.03,0.247-0.172,0.464-0.299,0.677c-0.203,0.338-0.446,0.647-0.708,0.944
				c-0.293,0.334-0.652,0.51-1.097,0.516c-0.053,0-0.107,0.009-0.159,0.016c-0.313,0.039-0.487-0.102-0.496-0.414
				C78.668,31.416,78.675,31.148,78.675,30.945"/>
			<path fill-rule="evenodd" clip-rule="evenodd" fill="#FFFFFF" d="M54.214,30.679c0.047-0.527,0.082-1.071,0.104-1.614
				c0.021-0.51,0.051-1.023-0.009-1.529c-0.095-0.82-0.2-1.638-0.253-2.462c-0.034-0.532-0.099-1.065-0.288-1.572
				c-0.107-0.289-0.265-0.554-0.421-0.816c-0.217-0.362-0.299-0.757-0.328-1.167c-0.038-0.55-0.095-1.094-0.265-1.621
				c-0.046-0.144-0.066-0.295-0.021-0.445s0.1-0.182,0.242-0.119c0.329,0.145,0.667,0.211,1.022,0.12
				c0.204-0.053,0.383-0.166,0.566-0.267c0.084-0.047,0.173-0.065,0.256,0.01c0.083,0.077,0.111,0.167,0.075,0.277
				c-0.026,0.085-0.072,0.159-0.123,0.23c-0.104,0.147-0.231,0.276-0.358,0.404c-0.235,0.239-0.381,0.521-0.337,0.864
				c0.071,0.568,0.288,1.056,0.793,1.38c0.212,0.137,0.427,0.272,0.594,0.469c0.15,0.177,0.2,0.377,0.176,0.609
				c-0.043,0.425-0.083,0.852-0.102,1.277c-0.024,0.572-0.049,1.146,0.023,1.718c0.03,0.231,0.067,0.461,0.167,0.675
				c0.119,0.255,0.208,0.525,0.365,0.763c0.144,0.218,0.297,0.247,0.497,0.076c0.301-0.256,0.501-0.594,0.696-0.929
				c0.564-0.973,1.12-1.947,1.683-2.919c0.038-0.067,0.075-0.196,0.154-0.162c0.087,0.036,0.006,0.147-0.011,0.221
				c-0.107,0.441-0.195,0.887-0.162,1.341c0.028,0.369-0.049,0.708-0.22,1.025c-0.59,1.097-1.015,2.272-1.608,3.367
				c-0.297,0.547-0.6,1.092-1,1.573c-0.025,0.03-0.051,0.06-0.077,0.09c-0.243,0.284-0.521,0.456-0.92,0.347
				c-0.411-0.111-0.7-0.347-0.838-0.755C54.239,30.994,54.223,30.844,54.214,30.679"/>
			<path fill-rule="evenodd" clip-rule="evenodd" fill="#FFFFFF" d="M71.348,29.568c-0.278-0.062-0.504,0.068-0.73,0.177
				c-0.525,0.253-1.022,0.561-1.531,0.847c-0.628,0.352-1.308,0.514-2.021,0.554c-0.169,0.01-0.339,0.022-0.509,0.001
				c-0.063-0.008-0.137-0.005-0.16-0.076c-0.027-0.082,0.044-0.125,0.1-0.159c0.121-0.071,0.242-0.147,0.373-0.196
				c0.306-0.115,0.571-0.291,0.807-0.513c0.716-0.668,1.349-1.4,1.794-2.28c0.11-0.22,0.12-0.436,0.004-0.657
				c-0.156-0.299-0.358-0.567-0.576-0.822c-0.083-0.1-0.088-0.188-0.042-0.292c0.134-0.295,0.387-0.415,0.688-0.444
				c0.251-0.023,0.482-0.003,0.679,0.21c0.147,0.157,0.368,0.234,0.568,0.32c0.327,0.139,0.55,0.372,0.711,0.679
				c0.328,0.626,0.499,1.297,0.572,1.994c0.033,0.303-0.151,0.542-0.447,0.616C71.534,29.548,71.437,29.556,71.348,29.568"/>
			<path fill-rule="evenodd" clip-rule="evenodd" fill="#FFFFFF" d="M59.21,17.439c0,0.762-0.498,1.151-1.136,1.055
				c-0.224-0.033-0.441-0.093-0.644-0.183c-0.484-0.215-0.986-0.188-1.492-0.145c-0.097,0.008-0.194,0.007-0.29,0.021
				c-0.315,0.048-0.526-0.121-0.719-0.333c-0.064-0.071-0.056-0.133,0-0.206c0.154-0.207,0.39-0.284,0.602-0.399
				c0.077-0.042,0.159-0.072,0.235-0.116c0.245-0.14,0.267-0.19,0.217-0.473c-0.082-0.461-0.396-0.749-0.851-0.781
				c-0.198-0.014-0.234-0.07-0.125-0.24c0.243-0.382,0.581-0.646,1.043-0.661c0.467-0.016,0.938,0.034,1.356,0.273
				c0.572,0.326,1.132,0.67,1.466,1.274C59.058,16.862,59.204,17.208,59.21,17.439"/>
			<path fill-rule="evenodd" clip-rule="evenodd" fill="#FFFFFF" d="M67.566,25.772c-0.125-0.003-0.276-0.013-0.418-0.07
				c-0.125-0.052-0.154-0.149-0.06-0.22c0.393-0.292,0.606-0.716,0.838-1.123c0.338-0.594,0.626-1.208,0.849-1.854
				c0.066-0.189,0.073-0.379,0.039-0.574c-0.061-0.354-0.146-0.703-0.259-1.046c-0.036-0.11-0.006-0.169,0.088-0.225
				c0.364-0.217,0.73-0.158,1.089,0.002c0.355,0.158,0.609,0.446,0.838,0.75c0.365,0.483,0.626,1.013,0.755,1.609
				c0.071,0.323-0.09,0.501-0.294,0.634c-0.27,0.174-0.573,0.27-0.883,0.33c-0.23,0.046-0.409,0.164-0.58,0.313
				c-0.388,0.34-0.748,0.71-1.084,1.1C68.238,25.686,67.939,25.767,67.566,25.772"/>
			<path fill-rule="evenodd" clip-rule="evenodd" fill="#FFFFFF" d="M81.112,15.401c0.282-0.025,0.531,0.077,0.765,0.228
				c0.699,0.456,1.292,1.016,1.679,1.765c0.186,0.359,0.12,0.743-0.155,1.026c-0.134,0.137-0.291,0.204-0.499,0.169
				c-0.625-0.106-1.253-0.132-1.888-0.066c-0.661,0.067-1.296-0.069-1.916-0.29c-0.013-0.005-0.027-0.011-0.04-0.019
				c-0.054-0.031-0.129-0.05-0.118-0.13c0.009-0.071,0.082-0.071,0.137-0.088c0.477-0.138,0.888-0.392,1.248-0.728
				c0.202-0.189,0.18-0.374-0.053-0.525c-0.125-0.084-0.259-0.153-0.399-0.213c-0.242-0.107-0.419-0.277-0.491-0.543
				c-0.032-0.122-0.005-0.192,0.138-0.228c0.373-0.093,0.738-0.21,1.109-0.31C80.785,15.409,80.944,15.39,81.112,15.401"/>
			<path fill-rule="evenodd" clip-rule="evenodd" fill="#FFFFFF" d="M70.208,13.995c0.204-0.002,0.432,0.112,0.673,0.163
				c0.125,0.028,0.179,0.167,0.166,0.338c-0.026,0.309-0.133,0.597-0.246,0.881c-0.206,0.514-0.387,1.036-0.625,1.538
				c-0.286,0.607-0.719,1.017-1.399,1.129c-0.121,0.021-0.242,0.031-0.362,0.018c-0.164-0.021-0.226-0.121-0.179-0.277
				c0.069-0.231,0.207-0.428,0.327-0.633c0.118-0.201,0.241-0.399,0.358-0.601c0.089-0.153,0.104-0.322,0.086-0.494
				c-0.018-0.169-0.132-0.278-0.262-0.368c-0.282-0.195-0.412-0.498-0.557-0.788c-0.029-0.058-0.01-0.104,0.042-0.137
				c0.488-0.321,0.98-0.634,1.567-0.749C69.915,13.991,70.037,13.983,70.208,13.995"/>
			<path fill-rule="evenodd" clip-rule="evenodd" fill="#FFFFFF" d="M59.303,36.138h-0.146c-0.237-0.001-0.277-0.049-0.237-0.286
				c0.009-0.052,0.029-0.091,0.086-0.099c0.178-0.024,0.099-0.162,0.105-0.253c0.008-0.115-0.089-0.091-0.158-0.095
				c-0.043-0.002-0.088,0-0.131,0c-0.22,0-0.254,0.042-0.219,0.256c0.008,0.043,0.023,0.069,0.066,0.085
				c0.117,0.046,0.18,0.257,0.11,0.354c-0.027,0.037-0.067,0.035-0.105,0.035c-0.17,0.002-0.341-0.002-0.51,0.002
				c-0.093,0.002-0.139-0.037-0.128-0.129c0.01-0.105-0.058-0.245,0.128-0.272c0.052-0.008,0.046-0.068,0.046-0.111
				c0.001-0.276,0-0.554,0-0.831c0-0.049-0.002-0.093-0.062-0.117c-0.101-0.043-0.158-0.259-0.1-0.352
				c0.028-0.045,0.075-0.039,0.117-0.04c0.166-0.002,0.331,0.001,0.497-0.002c0.079,0,0.143,0.019,0.133,0.11
				c-0.01,0.096,0.066,0.236-0.086,0.271c-0.173,0.043-0.094,0.168-0.102,0.258c-0.008,0.115,0.09,0.089,0.159,0.093
				c0.043,0.003,0.087,0,0.131,0c0.221,0,0.244-0.025,0.219-0.241c-0.006-0.056-0.022-0.09-0.082-0.102
				c-0.185-0.033-0.104-0.18-0.111-0.281c-0.008-0.117,0.086-0.107,0.165-0.107c0.155,0,0.312,0.003,0.466-0.001
				c0.094-0.001,0.138,0.038,0.128,0.131c-0.011,0.104,0.057,0.244-0.128,0.272c-0.052,0.008-0.047,0.067-0.047,0.11
				c0,0.276,0,0.554,0,0.831c0,0.049,0.003,0.093,0.062,0.118c0.101,0.043,0.159,0.258,0.1,0.351
				c-0.025,0.039-0.064,0.038-0.103,0.039C59.478,36.138,59.391,36.137,59.303,36.138L59.303,36.138z"/>
			<path fill-rule="evenodd" clip-rule="evenodd" fill="#FFFFFF" d="M62.474,36.137h-0.51c-0.067,0-0.14-0.005-0.131-0.094
				c0.01-0.098-0.067-0.231,0.066-0.283c0.089-0.033,0.108-0.078,0.107-0.158c-0.002-0.262-0.001-0.524,0-0.788
				c0-0.073-0.014-0.118-0.099-0.149c-0.149-0.052-0.064-0.189-0.073-0.291c-0.008-0.091,0.071-0.088,0.134-0.088
				c0.34-0.001,0.681,0.001,1.021-0.002c0.099,0,0.144,0.036,0.138,0.137c-0.003,0.062-0.001,0.126-0.001,0.19
				c0,0.239-0.07,0.294-0.307,0.24c-0.036-0.008-0.058-0.025-0.075-0.06c-0.05-0.105-0.185-0.16-0.29-0.108
				c-0.104,0.051-0.045,0.154-0.056,0.235c-0.008,0.064,0.031,0.098,0.097,0.098c0.015-0.001,0.029,0,0.044,0
				c0.224,0.008,0.283,0.087,0.227,0.308c-0.03,0.122-0.13,0.076-0.204,0.08c-0.095,0.003-0.169,0.003-0.168,0.136
				c0.002,0.198,0.073,0.259,0.269,0.206c0.03-0.008,0.055-0.019,0.066-0.05c0.017-0.047,0.009-0.116,0.082-0.12
				c0.088-0.005,0.174-0.001,0.261,0.005c0.033,0.001,0.046,0.032,0.049,0.063c0.003,0.023,0.004,0.048,0.004,0.073
				c-0.008,0.506,0.073,0.409-0.405,0.42C62.638,36.138,62.556,36.138,62.474,36.137L62.474,36.137z"/>
			<path fill-rule="evenodd" clip-rule="evenodd" fill="#FFFFFF" d="M79.994,34.284c0.174,0.001,0.349,0.002,0.524,0
				c0.086-0.001,0.125,0.036,0.122,0.122c-0.002,0.068,0,0.137,0,0.205c0,0.237-0.073,0.294-0.308,0.239
				c-0.037-0.009-0.059-0.025-0.074-0.061c-0.05-0.104-0.189-0.16-0.291-0.107c-0.103,0.053-0.045,0.155-0.056,0.236
				c-0.007,0.066,0.033,0.097,0.098,0.097c0.015,0,0.029,0,0.044,0c0.223,0.008,0.283,0.089,0.227,0.309
				c-0.032,0.121-0.132,0.075-0.206,0.078c-0.096,0.003-0.169,0.006-0.167,0.138c0.002,0.198,0.074,0.26,0.269,0.205
				c0.03-0.009,0.055-0.02,0.066-0.051c0.017-0.048,0.01-0.116,0.083-0.12c0.087-0.004,0.174,0.001,0.261,0.006
				c0.026,0.001,0.041,0.024,0.046,0.049c0.002,0.016,0.003,0.03,0.005,0.045c0.056,0.446,0.041,0.464-0.405,0.464
				c-0.249,0-0.496,0-0.743-0.001c-0.068,0-0.154,0.006-0.144-0.096c0.009-0.099-0.073-0.235,0.08-0.287
				c0.08-0.026,0.092-0.07,0.092-0.14c-0.001-0.271,0-0.543-0.001-0.816c0-0.047,0.001-0.093-0.057-0.12
				c-0.105-0.049-0.162-0.248-0.106-0.348c0.03-0.054,0.082-0.044,0.128-0.045C79.653,34.283,79.823,34.284,79.994,34.284"/>
			<path fill-rule="evenodd" clip-rule="evenodd" fill="#FFFFFF" d="M55.161,34.284c0.205,0,0.408,0.003,0.612-0.001
				c0.101-0.002,0.144,0.041,0.139,0.139c-0.002,0.053,0,0.106,0,0.16c0,0.286-0.001,0.286-0.283,0.272
				c-0.073-0.004-0.121-0.024-0.129-0.104c-0.006-0.042-0.03-0.073-0.079-0.068c-0.049,0.005-0.062,0.042-0.062,0.085
				c-0.001,0.295-0.001,0.592,0,0.889c0,0.041,0.017,0.07,0.059,0.09c0.104,0.047,0.16,0.257,0.1,0.351
				c-0.024,0.039-0.064,0.04-0.102,0.04c-0.175,0.001-0.35-0.002-0.525,0.002c-0.088,0-0.124-0.041-0.122-0.124
				c0.004-0.119-0.048-0.267,0.155-0.279c0.044-0.003,0.042-0.06,0.043-0.098c0.001-0.282,0.001-0.563,0-0.847
				c0-0.049,0.001-0.102-0.066-0.112c-0.06-0.007-0.084,0.024-0.101,0.081c-0.05,0.173-0.193,0.077-0.294,0.089
				c-0.101,0.011-0.092-0.08-0.091-0.146c0.006-0.5-0.07-0.407,0.396-0.417C54.928,34.282,55.044,34.284,55.161,34.284"/>
			<path fill-rule="evenodd" clip-rule="evenodd" fill="#FFFFFF" d="M65.898,27.584c-0.634-0.225-1.281-0.419-1.953-0.128
				c-0.069,0.029-0.105,0.008-0.111-0.062c-0.007-0.074,0.002-0.154,0.077-0.19c0.243-0.114,0.419-0.312,0.617-0.483
				c0.224-0.195,0.424-0.427,0.69-0.559c0.327-0.162,0.411-0.421,0.386-0.743c-0.028-0.359-0.1-0.714-0.091-1.075
				c0.003-0.122-0.069-0.183-0.194-0.188c-0.191-0.006-0.378,0.005-0.558,0.082c-0.116,0.049-0.239,0.081-0.362,0.108
				c-0.126,0.029-0.156-0.049-0.177-0.138c-0.024-0.099-0.04-0.215,0.087-0.241c0.16-0.031,0.23-0.14,0.278-0.269
				c0.138-0.374,0.202-0.762,0.163-1.16c-0.014-0.142-0.055-0.278-0.2-0.351c-0.045-0.022-0.053-0.068-0.065-0.11
				c-0.098-0.342-0.028-0.473,0.31-0.576c0.019-0.006,0.036-0.014,0.056-0.018c0.132-0.02,0.201-0.105,0.244-0.224
				c0.05-0.137,0.056-0.276,0.017-0.415c-0.038-0.136-0.106-0.265-0.126-0.402c-0.042-0.27-0.228-0.354-0.454-0.4
				c-0.357-0.076-0.714-0.048-1.072-0.009c-0.383,0.041-0.711,0.188-0.997,0.44c-0.215,0.189-0.432,0.378-0.646,0.567
				c-0.375,0.333-0.785,0.607-1.266,0.765c-0.236,0.076-0.345-0.006-0.34-0.256c0.003-0.154,0.04-0.307,0.071-0.46
				c0.04-0.201,0.156-0.327,0.349-0.391c0.157-0.053,0.313-0.104,0.454-0.196c0.382-0.252,0.775-0.481,1.179-0.696
				c0.592-0.314,1.117-0.74,1.701-1.071c0.537-0.303,1.057-0.641,1.657-0.819c0.078-0.023,0.136-0.073,0.181-0.14
				c0.164-0.233,0.277-0.491,0.325-0.773c0.05-0.303-0.128-0.619-0.405-0.738c-0.097-0.043-0.196-0.057-0.298-0.014
				c-0.251,0.102-0.512,0.182-0.775,0.252c-0.298,0.079-0.578,0.201-0.834,0.374c-0.132,0.091-0.268,0.177-0.401,0.265
				c-0.069,0.047-0.109,0.024-0.123-0.053c-0.009-0.052-0.013-0.105-0.016-0.159c-0.014-0.369,0.018-0.738,0.049-1.106
				c0.008-0.111,0.063-0.144,0.168-0.15c0.432-0.023,0.862-0.054,1.289-0.138c0.605-0.122,1.299-0.602,1.093-1.55
				c-0.08-0.364-0.217-0.476-0.591-0.436c-0.42,0.044-0.84,0.084-1.261,0.124c-0.207,0.019-0.253-0.025-0.288-0.232
				c-0.049-0.288-0.007-0.574,0.026-0.856c0.034-0.284,0.113-0.562,0.169-0.844c0.077-0.389-0.018-0.734-0.284-1.026
				c-0.154-0.167-0.274-0.17-0.439-0.019c-0.089,0.082-0.172,0.171-0.25,0.265c-0.21,0.254-0.437,0.482-0.769,0.573
				c-0.08,0.022-0.15,0.069-0.211,0.127c-0.048,0.045-0.098,0.107-0.072,0.166c0.097,0.223,0.067,0.484,0.227,0.688
				c0.085,0.105,0.115,0.233,0.11,0.369c-0.012,0.294-0.098,0.575-0.157,0.859c-0.024,0.122-0.13,0.203-0.236,0.266
				c-0.129,0.078-0.268,0.117-0.418,0.144c-0.293,0.054-0.588,0.04-0.844,0.04h-0.304c-0.356,0-0.349-0.016-0.194,0.338
				c0.191,0.438,0.518,0.81,0.699,1.255c0.059,0.146,0.164,0.171,0.347,0.118c0.243-0.069,0.488-0.128,0.745-0.118
				c0.273,0.011,0.381,0.123,0.392,0.398c0.015,0.394,0.024,0.788,0.058,1.18c0.022,0.253-0.016,0.459-0.252,0.597
				c-0.071,0.041-0.128,0.105-0.188,0.16c-0.494,0.462-1.08,0.795-1.633,1.173c-0.353,0.243-0.724,0.467-1.131,0.6
				c-0.579,0.188-1.184,0.227-1.789,0.201c-0.316-0.014-0.632-0.025-0.947-0.015c-0.231,0.009-0.467,0.012-0.693,0.084
				c-0.075,0.024-0.16,0.055-0.108,0.162c0.19,0.394,0.355,0.801,0.651,1.135c0.177,0.199,0.385,0.32,0.666,0.284
				c0.678-0.087,1.336-0.249,1.975-0.493c0.192-0.072,0.362-0.189,0.551-0.268c0.054-0.022,0.117-0.05,0.113,0.059
				c-0.025,0.607-0.05,1.214-0.073,1.82c-0.004,0.104-0.04,0.195-0.116,0.26c-0.148,0.124-0.166,0.269-0.107,0.445
				c0.224,0.688,0.428,1.383,0.603,2.086c0.108,0.438,0.248,0.869,0.275,1.325c0.015,0.253,0.057,0.501,0.152,0.739
				c0.041,0.106,0.11,0.168,0.211,0.205c0.267,0.102,0.525,0.033,0.738-0.196c0.164-0.18,0.331-0.357,0.498-0.533
				c0.029-0.029,0.063-0.077,0.109-0.053c0.047,0.023,0.026,0.077,0.023,0.119c-0.026,0.271-0.059,0.542-0.075,0.812
				c-0.007,0.128-0.051,0.174-0.183,0.181c-0.421,0.022-0.846,0.019-1.262,0.102c-0.115,0.023-0.226,0.057-0.328,0.117
				c-0.405,0.241-0.741,0.563-1.072,0.895c-0.228,0.23-0.3,0.49-0.2,0.8c0.034,0.104,0.056,0.216,0.086,0.323
				c0.098,0.341,0.212,0.678,0.285,1.025c0.103,0.493,0.566,0.791,1.022,0.773c0.362-0.014,0.729-0.013,1.09-0.064
				c0.395-0.058,0.711-0.219,0.878-0.606c0.053-0.121,0.137-0.225,0.233-0.315c0.442-0.412,0.914-0.789,1.43-1.103
				c0.402-0.242,0.865-0.366,1.274-0.602c0.062-0.035,0.131-0.032,0.199-0.013c0.09,0.025,0.173,0.005,0.25-0.044
				c0.218-0.14,0.368-0.338,0.444-0.579c0.078-0.245,0.169-0.486,0.25-0.731C66.282,27.91,66.212,27.694,65.898,27.584
				 M62.552,22.526l-0.834,0.735c-0.193,0.198-0.38,0.403-0.589,0.587c-0.047,0.041-0.102,0.109-0.177,0.071
				c-0.068-0.036-0.037-0.114-0.042-0.173c-0.003-0.244,0.066-0.454,0.24-0.636c0.217-0.229,0.419-0.473,0.626-0.71
				c0.19-0.218,0.448-0.259,0.714-0.264c0.087-0.002,0.143,0.059,0.155,0.147C62.659,22.382,62.651,22.479,62.552,22.526"/>
			<path fill-rule="evenodd" clip-rule="evenodd" fill="#FFFFFF" d="M84.386,35.774c-0.15-0.053-0.181-0.177-0.256-0.276
				c-0.067-0.093-0.077-0.166,0.007-0.268c0.145-0.18,0.164-0.393,0.062-0.604c-0.104-0.214-0.279-0.334-0.521-0.341
				c-0.122-0.005-0.244-0.002-0.365-0.002c-0.122,0-0.243-0.002-0.365,0.001c-0.063,0.002-0.161-0.021-0.155,0.08
				c0.007,0.105-0.09,0.255,0.091,0.306c0.067,0.021,0.078,0.064,0.078,0.121c0,0.277,0,0.556,0,0.831
				c0,0.044,0.006,0.104-0.045,0.112c-0.195,0.03-0.117,0.179-0.129,0.287c-0.009,0.077,0.033,0.115,0.112,0.114
				c0.18-0.002,0.36,0,0.539-0.001c0.034,0,0.067-0.003,0.091-0.035c0.071-0.096,0.007-0.31-0.108-0.354
				c-0.043-0.016-0.066-0.041-0.065-0.084c0.002-0.06-0.029-0.145,0.054-0.162c0.091-0.021,0.209-0.054,0.273,0.031
				c0.043,0.059,0.197,0.135,0.024,0.25c-0.085,0.055-0.045,0.191-0.027,0.289c0.018,0.095,0.108,0.063,0.171,0.065
				c0.146,0.004,0.292,0.002,0.438,0c0.055-0.001,0.132,0.015,0.137-0.069C84.432,35.965,84.487,35.81,84.386,35.774 M83.563,35.08
				c-0.06-0.012-0.156,0.035-0.19-0.045c-0.042-0.097-0.024-0.21-0.008-0.313c0.001-0.006,0.003-0.013,0.006-0.014
				c0.12-0.062,0.247-0.048,0.366-0.014c0.088,0.026,0.135,0.109,0.124,0.208C83.846,35.023,83.752,35.079,83.563,35.08"/>
			<path fill-rule="evenodd" clip-rule="evenodd" fill="#FFFFFF" d="M77.22,34.814c-0.029-0.296-0.276-0.521-0.58-0.529
				c-0.116-0.003-0.233-0.001-0.35-0.001c-0.136,0-0.272-0.001-0.408,0.001c-0.042,0.001-0.088-0.005-0.116,0.042
				c-0.058,0.095-0.019,0.306,0.083,0.35c0.06,0.025,0.043,0.068,0.043,0.118v0.83c0,0.039,0.025,0.098-0.017,0.104
				c-0.194,0.032-0.125,0.178-0.131,0.294c-0.004,0.079,0.041,0.114,0.12,0.113c0.16-0.001,0.322,0,0.482,0.001
				c0.079,0,0.175,0.009,0.165-0.106c-0.007-0.104,0.075-0.25-0.11-0.283c-0.103-0.018-0.076-0.096-0.079-0.16
				c-0.003-0.076,0.043-0.1,0.112-0.1c0.112,0,0.223,0.001,0.333-0.028C77.057,35.387,77.25,35.114,77.22,34.814 M76.669,35.071
				c-0.086,0.013-0.174,0.007-0.261,0.006c-0.059,0-0.086-0.038-0.086-0.095c-0.001-0.034-0.002-0.067-0.002-0.103
				c0-0.209,0-0.209,0.248-0.207c0.011,0.001,0.062-0.003,0.107,0.012c0.099,0.027,0.158,0.099,0.152,0.202
				C76.822,34.982,76.766,35.057,76.669,35.071"/>
			<path fill-rule="evenodd" clip-rule="evenodd" fill="#FFFFFF" d="M69.66,34.814c-0.03-0.296-0.275-0.521-0.581-0.529
				c-0.116-0.003-0.232-0.001-0.35-0.001c-0.136,0-0.272-0.001-0.407,0.001c-0.043,0.001-0.09-0.005-0.118,0.042
				c-0.058,0.095,0,0.306,0.103,0.35c0.058,0.025,0.061,0.068,0.061,0.118c0,0.278,0,0.554,0,0.83c0,0.039,0.006,0.098-0.035,0.104
				c-0.194,0.032-0.133,0.178-0.14,0.294c-0.005,0.079,0.036,0.114,0.115,0.113c0.16-0.001,0.32,0,0.481,0.001
				c0.078,0,0.172,0.009,0.164-0.106c-0.008-0.104,0.074-0.25-0.111-0.283c-0.103-0.018-0.077-0.096-0.08-0.16
				c-0.002-0.076,0.044-0.1,0.112-0.1c0.112,0,0.224,0.001,0.333-0.028C69.496,35.387,69.688,35.114,69.66,34.814 M69.108,35.071
				c-0.085,0.013-0.175,0.007-0.261,0.006c-0.06,0-0.085-0.038-0.086-0.095c0-0.034-0.001-0.067-0.001-0.103
				c-0.001-0.209-0.001-0.209,0.247-0.207c0.012,0.001,0.061-0.003,0.106,0.012c0.101,0.027,0.159,0.099,0.153,0.202
				C69.261,34.982,69.206,35.057,69.108,35.071"/>
			<path fill-rule="evenodd" clip-rule="evenodd" fill="#FFFFFF" d="M73.478,35.744c-0.073-0.011-0.082-0.076-0.098-0.131
				c-0.093-0.307-0.178-0.616-0.277-0.921c-0.161-0.496-0.019-0.394-0.551-0.41c-0.122-0.004-0.17,0.046-0.201,0.156
				c-0.108,0.384-0.227,0.765-0.342,1.146c-0.017,0.056-0.019,0.141-0.08,0.147c-0.189,0.022-0.14,0.158-0.147,0.272
				c-0.006,0.104,0.043,0.137,0.14,0.134c0.15-0.004,0.301,0,0.452-0.001c0.069-0.002,0.167,0.021,0.166-0.089
				c-0.003-0.103,0.075-0.24-0.089-0.299c-0.035-0.012-0.067-0.021-0.059-0.067c0.007-0.042,0.021-0.092,0.075-0.094
				c0.149-0.003,0.301-0.002,0.45,0.003c0.045,0.001,0.061,0.044,0.07,0.084c0.007,0.033,0.001,0.061-0.034,0.068
				c-0.2,0.046-0.11,0.204-0.105,0.309c0.006,0.134,0.133,0.072,0.211,0.084c0.051,0.007,0.106,0.002,0.16,0.002
				c0.062,0,0.127,0.004,0.189-0.002c0.074-0.007,0.192,0.038,0.188-0.093C73.592,35.938,73.688,35.774,73.478,35.744
				 M72.797,35.178c-0.064,0.029-0.134,0.024-0.2,0.004c-0.049-0.015-0.042-0.059-0.03-0.098c0.034-0.115,0.07-0.229,0.104-0.346
				c0.013,0.002,0.025,0.003,0.035,0.004c0.036,0.115,0.071,0.229,0.106,0.346C72.823,35.119,72.838,35.161,72.797,35.178"/>
		</g>
		<g>
			<path fill="#FFFFFF" d="M52.031,41.053v-1.512c0.945,0.168,1.766,0.504,2.465,1.008c0.082-0.252,0.144-0.525,0.185-0.819h2.035
				c-0.207,1.008-0.473,1.85-0.801,2.521c0.287,0.63,0.431,1.323,0.431,2.079v7.182c0.041,1.554-0.638,2.311-2.034,2.269h-1.726
				v-1.574h0.739c0.41,0.041,0.617-0.21,0.617-0.757v-2.71c-0.576,0.379-1.254,0.652-2.034,0.82V47.92
				c0.822-0.419,1.5-1.028,2.034-1.827v-1.386v-0.188c-0.576,0.336-1.232,0.672-1.973,1.008v-1.575
				c0.041-0.041,0.103-0.084,0.186-0.126c0.656-0.545,1.088-0.966,1.293-1.26C53.119,41.936,52.646,41.432,52.031,41.053z
				 M56.838,41.494v-1.449h3.328v-0.693h2.466v0.693h3.39v1.449h-3.39v0.566h3.082v1.449h-3.082v0.631h3.636v1.448h-9.676v-1.448
				h3.574V43.51h-3.02v-1.449h3.02v-0.566H56.838z M62.569,52.33c0.41,0.042,0.596-0.167,0.556-0.63v-0.062h-3.514v2.268h-2.465
				v-7.812h8.444v5.733c0.04,1.387-0.596,2.058-1.911,2.016h-1.665V52.33H62.569z M63.125,47.668h-3.514v0.63h3.514V47.668z
				 M59.611,49.621v0.693h3.514v-0.693H59.611z"/>
			<path fill="#FFFFFF" d="M67.177,41.053v-1.512c0.945,0.168,1.766,0.504,2.466,1.008c0.082-0.252,0.144-0.525,0.185-0.819h2.034
				c-0.205,1.008-0.473,1.85-0.801,2.521c0.287,0.63,0.431,1.323,0.431,2.079v7.182c0.041,1.554-0.636,2.311-2.033,2.269h-1.727
				v-1.574h0.741c0.41,0.041,0.616-0.21,0.616-0.757v-2.71c-0.576,0.379-1.254,0.652-2.034,0.82V47.92
				c0.821-0.419,1.5-1.028,2.034-1.827v-1.386v-0.188c-0.576,0.336-1.232,0.672-1.972,1.008v-1.575
				c0.04-0.041,0.102-0.084,0.185-0.126c0.657-0.545,1.088-0.966,1.294-1.26C68.266,41.936,67.794,41.432,67.177,41.053z
				 M71.985,41.494v-1.449h3.329v-0.693h2.465v0.693h3.39v1.449h-3.39v0.566h3.083v1.449h-3.083v0.631h3.637v1.448h-9.677v-1.448
				h3.575V43.51h-3.021v-1.449h3.021v-0.566H71.985z M77.717,52.33c0.41,0.042,0.595-0.167,0.555-0.63v-0.062h-3.513v2.268h-2.466
				v-7.812h8.445v5.733c0.041,1.387-0.597,2.058-1.911,2.016h-1.664V52.33H77.717z M78.271,47.668h-3.513v0.63h3.513V47.668z
				 M74.758,49.621v0.693h3.513v-0.693H74.758z"/>
			<path fill="#FFFFFF" d="M82.202,45.715v-1.764h3.883v5.985c0.041,1.26,0.657,1.911,1.849,1.952h8.505v1.765h-8.875
				c-1.109,0-1.932-0.337-2.465-1.008c-0.616,0.629-1.562,1.008-2.835,1.134v-1.386c0.74-0.294,1.11-0.84,1.11-1.639v-5.04H82.202z
				 M85.221,39.729c0.41,0.882,0.74,1.933,0.987,3.15h-2.527c-0.083-0.966-0.37-2.016-0.863-3.15H85.221z M95.022,46.597
				c0.698,1.429,1.17,2.898,1.417,4.41h-2.403c0-0.252-0.041-0.503-0.124-0.756c-1.602,0.338-3.924,0.484-6.964,0.441v-2.079
				c0.822-0.966,1.397-2.037,1.726-3.213h-2.157v-1.765h9.923V45.4h-4.684c-0.616,1.303-1.316,2.373-2.096,3.213
				c1.767,0,3.04-0.063,3.821-0.189c-0.124-0.588-0.329-1.196-0.616-1.827H95.022z M95.638,41.936h-8.382v-1.827h8.382V41.936z"/>
		</g>
	</g>
</g>
</svg>
